SplineFontDB: 3.2
FontName: IRTerafik-Bold
FullName: IRTerafik-Bold
FamilyName: IRTerafik
Weight: Bold
Copyright: Copyright (c) 2022, Information Technology Organization of Iran (ito.gov.ir)
Version: 1.000
ItalicAngle: 0
UnderlinePosition: -100
UnderlineWidth: 60
Ascent: 1638
Descent: 410
InvalidEm: 0
sfntRevision: 0x00010000
LayerCount: 2
Layer: 0 1 "Back" 1
Layer: 1 1 "Fore" 0
XUID: [1021 420 722297922 14851735]
StyleMap: 0x0020
FSType: 0
OS2Version: 3
OS2_WeightWidthSlopeOnly: 0
OS2_UseTypoMetrics: 0
CreationTime: 1356422699
ModificationTime: 1662631548
PfmFamily: 17
TTFWeight: 700
TTFWidth: 5
LineGap: 100
VLineGap: 0
Panose: 2 0 8 6 0 0 0 2 0 2
OS2TypoAscent: 2100
OS2TypoAOffset: 0
OS2TypoDescent: -1300
OS2TypoDOffset: 0
OS2TypoLinegap: 300
OS2WinAscent: 2100
OS2WinAOffset: 0
OS2WinDescent: 1300
OS2WinDOffset: 0
HheadAscent: 2100
HheadAOffset: 0
HheadDescent: -1300
HheadDOffset: 0
OS2SubXSize: 1434
OS2SubYSize: 1331
OS2SubXOff: 0
OS2SubYOff: 293
OS2SupXSize: 1434
OS2SupYSize: 1331
OS2SupXOff: 0
OS2SupYOff: 928
OS2StrikeYSize: 50
OS2StrikeYPos: 250
OS2CapHeight: 2108
OS2XHeight: 707
OS2FamilyClass: 2048
OS2Vendor: 'PARS'
OS2CodePages: 20000041.00000000
OS2UnicodeRanges: 00002003.00000000.00000000.00000000
Lookup: 1 1 0 "'init' Initial Forms in Arabic lookup 0" { "'init' Initial Forms in Arabic lookup 0 subtable"  } ['init' ('arab' <'dflt' > ) ]
Lookup: 1 1 0 "'isol' Isolated Forms in Arabic lookup 1" { "'isol' Isolated Forms in Arabic lookup 1 subtable"  } ['isol' ('arab' <'dflt' > ) ]
Lookup: 1 1 0 "'medi' Medial Forms in Arabic lookup 2" { "'medi' Medial Forms in Arabic lookup 2 subtable"  } ['medi' ('arab' <'dflt' > ) ]
Lookup: 1 1 0 "'fina' Terminal Forms in Arabic lookup 3" { "'fina' Terminal Forms in Arabic lookup 3 subtable"  } ['fina' ('arab' <'dflt' > ) ]
Lookup: 4 1 0 "'ccmp' Glyph Composition/Decomposition in Arabic lookup 4" { "'ccmp' Glyph Composition/Decomposition in Arabic lookup 4 subtable"  } ['ccmp' ('arab' <'dflt' > ) ]

StartChar: quotedbl
Encoding: 34 34 1
Width: 691
Flags: W
LayerCount: 2
Fore
SplineSet
559 1242 m 1,0,-1
 559 847 l 1,1,-1
 409 847 l 1,2,-1
 409 1242 l 1,3,-1
 559 1242 l 1,0,-1
319 1242 m 1,4,-1
 319 847 l 1,5,-1
 168 847 l 1,6,-1
 168 1242 l 1,7,-1
 319 1242 l 1,4,-1
EndSplineSet
EndChar

StartChar: numbersign
Encoding: 35 35 2
Width: 911
Flags: W
LayerCount: 2
Fore
SplineSet
123 292 m 1,0,-1
 14 292 l 1,1,-1
 14 468 l 1,2,-1
 158 468 l 1,3,-1
 206 704 l 1,4,-1
 14 704 l 1,5,-1
 14 881 l 1,6,-1
 242 881 l 1,7,-1
 306 1193 l 1,8,-1
 485 1193 l 1,9,-1
 422 881 l 1,10,-1
 598 881 l 1,11,-1
 660 1193 l 1,12,-1
 846 1193 l 1,13,-1
 782 881 l 1,14,-1
 892 881 l 1,15,-1
 892 704 l 1,16,-1
 746 704 l 1,17,-1
 698 468 l 1,18,-1
 892 468 l 1,19,-1
 892 292 l 1,20,-1
 662 292 l 1,21,-1
 598 -20 l 1,22,-1
 420 -20 l 1,23,-1
 482 292 l 1,24,-1
 304 292 l 1,25,-1
 241 -20 l 1,26,-1
 60 -20 l 1,27,-1
 123 292 l 1,0,-1
386 704 m 1,28,-1
 339 468 l 1,29,-1
 517 468 l 1,30,-1
 563 704 l 1,31,-1
 386 704 l 1,28,-1
EndSplineSet
EndChar

StartChar: dollar
Encoding: 36 36 3
Width: 911
Flags: W
LayerCount: 2
Fore
SplineSet
391 174 m 1,0,-1
 391 509 l 1,1,2
 234 554 234 554 161 644.5 c 128,-1,3
 88 735 88 735 88 865 c 0,4,5
 88 996 88 996 171 1085 c 128,-1,6
 254 1174 254 1174 391 1188 c 1,7,-1
 391 1267 l 1,8,-1
 507 1267 l 1,9,-1
 507 1188 l 1,10,11
 634 1173 634 1173 709.5 1101.5 c 128,-1,12
 785 1030 785 1030 806 910 c 1,13,-1
 603 883 l 1,14,15
 585 978 585 978 507 1011 c 1,16,-1
 507 698 l 1,17,18
 699 646 699 646 768.5 563.5 c 128,-1,19
 838 481 838 481 838 351 c 0,20,21
 838 206 838 206 750.5 107 c 128,-1,22
 663 8 663 8 507 -14 c 1,23,-1
 507 -164 l 1,24,-1
 391 -164 l 1,25,-1
 391 -18 l 1,26,27
 253 -2 253 -2 166.5 84.5 c 128,-1,28
 80 171 80 171 56 329 c 1,29,-1
 265 351 l 1,30,31
 278 287 278 287 313 240.5 c 128,-1,32
 348 194 348 194 391 174 c 1,0,-1
391 1014 m 1,33,34
 344 998 344 998 316 959.5 c 128,-1,35
 288 921 288 921 288 874 c 0,36,37
 288 832 288 832 313.5 795.5 c 128,-1,38
 339 759 339 759 391 737 c 1,39,-1
 391 1014 l 1,33,34
507 162 m 1,40,41
 567 174 567 174 604.5 218 c 128,-1,42
 642 262 642 262 642 322 c 0,43,44
 642 376 642 376 610.5 415 c 128,-1,45
 579 454 579 454 507 474 c 1,46,-1
 507 162 l 1,40,41
EndSplineSet
EndChar

StartChar: percent
Encoding: 37 37 4
Width: 1457
Flags: W
LayerCount: 2
Fore
SplineSet
71 883 m 256,0,1
 71 1041 71 1041 140.5 1117 c 128,-1,2
 210 1193 210 1193 328 1193 c 0,3,4
 450 1193 450 1193 519.5 1117.5 c 128,-1,5
 589 1042 589 1042 589 883 c 0,6,7
 589 726 589 726 519.5 650 c 128,-1,8
 450 574 450 574 332 574 c 0,9,10
 210 574 210 574 140.5 649.5 c 128,-1,11
 71 725 71 725 71 883 c 256,0,1
246 885 m 0,12,13
 246 770 246 770 273 731 c 0,14,15
 293 702 293 702 328 702 c 0,16,17
 364 702 364 702 384 731 c 0,18,19
 410 770 410 770 410 885 c 0,20,21
 410 999 410 999 384 1038 c 0,22,23
 364 1067 364 1067 328 1067 c 0,24,25
 293 1067 293 1067 273 1038 c 0,26,27
 246 999 246 999 246 885 c 0,12,13
499 -45 m 1,28,-1
 333 -45 l 1,29,-1
 958 1193 l 1,30,-1
 1119 1193 l 1,31,-1
 499 -45 l 1,28,-1
862 263 m 256,32,33
 862 421 862 421 931.5 497 c 128,-1,34
 1001 573 1001 573 1121 573 c 0,35,36
 1242 573 1242 573 1311 497 c 128,-1,37
 1380 421 1380 421 1380 263 c 256,38,39
 1380 105 1380 105 1311 29 c 128,-1,40
 1242 -47 1242 -47 1123 -47 c 0,41,42
 1001 -47 1001 -47 931.5 29 c 128,-1,43
 862 105 862 105 862 263 c 256,32,33
1038 264 m 256,44,45
 1038 150 1038 150 1064 111 c 0,46,47
 1084 82 1084 82 1119 82 c 0,48,49
 1155 82 1155 82 1174 110 c 0,50,51
 1201 150 1201 150 1201 264 c 256,52,53
 1201 378 1201 378 1175 418 c 0,54,55
 1155 446 1155 446 1119 446 c 256,56,57
 1083 446 1083 446 1064 418 c 0,58,59
 1038 378 1038 378 1038 264 c 256,44,45
EndSplineSet
EndChar

StartChar: ampersand
Encoding: 38 38 5
Width: 1183
Flags: W
LayerCount: 2
Fore
SplineSet
1157 143 m 1,0,-1
 1021 -30 l 1,1,2
 921 18 921 18 829 104 c 1,3,4
 758 40 758 40 678 9.5 c 128,-1,5
 598 -21 598 -21 487 -21 c 0,6,7
 268 -21 268 -21 158 102 c 0,8,9
 72 198 72 198 72 322 c 0,10,11
 72 434 72 434 139 524 c 128,-1,12
 206 614 206 614 340 681 c 1,13,14
 280 752 280 752 249.5 816.5 c 128,-1,15
 219 881 219 881 219 938 c 0,16,17
 219 1045 219 1045 304.5 1119 c 128,-1,18
 390 1193 390 1193 547 1193 c 0,19,20
 699 1193 699 1193 784.5 1115.5 c 128,-1,21
 870 1038 870 1038 870 926 c 0,22,23
 870 854 870 854 828 790 c 128,-1,24
 786 726 786 726 657 646 c 1,25,-1
 820 430 l 1,26,27
 849 482 849 482 870 564 c 1,28,-1
 1073 518 l 1,29,30
 1042 410 1042 410 1020 360 c 128,-1,31
 998 310 998 310 972 276 c 1,32,33
 1010 241 1010 241 1069.5 199 c 128,-1,34
 1129 157 1129 157 1157 143 c 1,0,-1
545 781 m 1,35,-1
 606 827 l 2,36,37
 673 879 673 879 673 930 c 0,38,39
 673 974 673 974 640.5 1004 c 128,-1,40
 608 1034 608 1034 553 1034 c 0,41,42
 499 1034 499 1034 468.5 1007.5 c 128,-1,43
 438 981 438 981 438 946 c 0,44,45
 438 904 438 904 490 845 c 2,46,-1
 545 781 l 1,35,-1
457 537 m 1,47,48
 379 498 379 498 340.5 442.5 c 128,-1,49
 302 387 302 387 302 330 c 0,50,51
 302 257 302 257 350 211 c 128,-1,52
 398 165 398 165 478 165 c 0,53,54
 530 165 530 165 579 185.5 c 128,-1,55
 628 206 628 206 686 254 c 1,56,-1
 457 537 l 1,47,48
EndSplineSet
EndChar

StartChar: quotesingle
Encoding: 39 39 6
Width: 351
Flags: W
LayerCount: 2
Fore
SplineSet
267 1242 m 1,0,-1
 267 847 l 1,1,-1
 117 847 l 1,2,-1
 117 1242 l 1,3,-1
 267 1242 l 1,0,-1
EndSplineSet
EndChar

StartChar: asterisk
Encoding: 42 42 7
Width: 774
Flags: W
LayerCount: 2
Fore
SplineSet
430 713 m 1,0,-1
 430 569 l 2,1,2
 430 555 430 555 422 545 c 128,-1,3
 414 535 414 535 399 535 c 2,4,-1
 348 535 l 2,5,6
 340 535 340 535 329.5 545 c 128,-1,7
 319 555 319 555 319 569 c 2,8,-1
 319 713 l 1,9,-1
 221 612 l 1,10,11
 193 594 193 594 164 612 c 1,12,-1
 133 645 l 2,13,14
 115 668 115 668 139 694 c 2,15,-1
 240 797 l 1,16,-1
 96 797 l 2,17,18
 82 797 82 797 69.5 806 c 128,-1,19
 57 815 57 815 57 831 c 2,20,-1
 57 881 l 2,21,22
 57 891 57 891 69.5 900 c 128,-1,23
 82 909 82 909 96 909 c 2,24,-1
 231 909 l 1,25,-1
 133 1010 l 2,26,27
 119 1022 119 1022 118 1036.5 c 128,-1,28
 117 1051 117 1051 127 1065 c 1,29,-1
 164 1096 l 2,30,31
 174 1106 174 1106 186.5 1105 c 128,-1,32
 199 1104 199 1104 211 1090 c 2,33,-1
 319 985 l 1,34,-1
 319 1141 l 2,35,36
 319 1153 319 1153 329.5 1164.5 c 128,-1,37
 340 1176 340 1176 348 1176 c 2,38,-1
 399 1176 l 2,39,40
 414 1176 414 1176 422 1164.5 c 128,-1,41
 430 1153 430 1153 430 1141 c 2,42,-1
 430 991 l 1,43,-1
 537 1096 l 2,44,45
 549 1110 549 1110 561 1111 c 128,-1,46
 573 1112 573 1112 592 1104 c 1,47,-1
 618 1065 l 1,48,49
 629 1057 629 1057 629 1044.5 c 128,-1,50
 629 1032 629 1032 616 1016 c 2,51,-1
 512 909 l 1,52,-1
 668 909 l 2,53,54
 678 909 678 909 690 900 c 128,-1,55
 702 891 702 891 702 881 c 2,56,-1
 702 831 l 2,57,58
 702 815 702 815 690 806 c 128,-1,59
 678 797 678 797 668 797 c 2,60,-1
 504 797 l 1,61,-1
 616 694 l 1,62,63
 635 668 635 668 616 637 c 1,64,-1
 586 606 l 1,65,66
 563 588 563 588 537 612 c 2,67,-1
 430 713 l 1,0,-1
EndSplineSet
EndChar

StartChar: plus
Encoding: 43 43 8
Width: 1082
Flags: W
LayerCount: 2
Fore
SplineSet
625 107 m 1,0,-1
 458 107 l 1,1,-1
 458 414 l 1,2,-1
 152 414 l 1,3,-1
 152 581 l 1,4,-1
 458 581 l 1,5,-1
 458 887 l 1,6,-1
 625 887 l 1,7,-1
 625 581 l 1,8,-1
 932 581 l 1,9,-1
 932 414 l 1,10,-1
 625 414 l 1,11,-1
 625 107 l 1,0,-1
EndSplineSet
EndChar

StartChar: hyphen
Encoding: 45 45 9
Width: 1088
Flags: W
LayerCount: 2
Fore
SplineSet
106 414 m 1,0,-1
 106 581 l 1,1,-1
 986 581 l 1,2,-1
 986 414 l 1,3,-1
 106 414 l 1,0,-1
EndSplineSet
EndChar

StartChar: period
Encoding: 46 46 10
Width: 432
Flags: W
LayerCount: 2
Fore
SplineSet
430 0 m 1,0,-1
 167 0 l 1,1,-1
 167 261 l 1,2,-1
 430 261 l 1,3,-1
 430 0 l 1,0,-1
EndSplineSet
EndChar

StartChar: slash
Encoding: 47 47 11
Width: 930
Flags: W
LayerCount: 2
Fore
SplineSet
687 1209 m 1,0,-1
 878 1209 l 1,1,-1
 248 -222 l 1,2,-1
 57 -222 l 1,3,-1
 687 1209 l 1,0,-1
EndSplineSet
EndChar

StartChar: zero
Encoding: 48 48 12
Width: 911
Flags: W
LayerCount: 2
Fore
SplineSet
450 1178 m 0,0,1
 620 1178 620 1178 716 1056 c 0,2,3
 830 912 830 912 830 578 c 0,4,5
 830 246 830 246 715 100 c 0,6,7
 620 -20 620 -20 450 -20 c 0,8,9
 278 -20 278 -20 173.5 111.5 c 128,-1,10
 69 243 69 243 69 581 c 0,11,12
 69 912 69 912 184 1058 c 0,13,14
 279 1178 279 1178 450 1178 c 0,0,1
450 991 m 0,15,16
 409 991 409 991 377 965 c 128,-1,17
 345 939 345 939 327 872 c 0,18,19
 304 785 304 785 304 578 c 0,20,21
 304 372 304 372 325 295 c 128,-1,22
 346 218 346 218 377.5 192 c 128,-1,23
 409 166 409 166 450 166 c 0,24,25
 490 166 490 166 522 192 c 128,-1,26
 554 218 554 218 572 286 c 0,27,28
 595 372 595 372 595 578 c 0,29,30
 595 785 595 785 574.5 862 c 128,-1,31
 554 939 554 939 522 965 c 128,-1,32
 490 991 490 991 450 991 c 0,15,16
EndSplineSet
EndChar

StartChar: one
Encoding: 49 49 13
Width: 911
Flags: W
LayerCount: 2
Fore
SplineSet
645 0 m 1,0,-1
 420 0 l 1,1,-1
 420 847 l 1,2,3
 297 732 297 732 130 677 c 1,4,-1
 130 881 l 1,5,6
 218 910 218 910 321 990 c 128,-1,7
 424 1070 424 1070 462 1178 c 1,8,-1
 645 1178 l 1,9,-1
 645 0 l 1,0,-1
EndSplineSet
EndChar

StartChar: two
Encoding: 50 50 14
Width: 911
Flags: W
LayerCount: 2
Fore
SplineSet
829 209 m 1,0,-1
 829 0 l 1,1,-1
 41 0 l 1,2,3
 54 118 54 118 118 224 c 128,-1,4
 182 330 182 330 370 506 c 0,5,6
 522 647 522 647 557 698 c 0,7,8
 603 767 603 767 603 835 c 0,9,10
 603 910 603 910 562.5 950.5 c 128,-1,11
 522 991 522 991 451 991 c 0,12,13
 381 991 381 991 339.5 948.5 c 128,-1,14
 298 906 298 906 291 808 c 1,15,-1
 67 830 l 1,16,17
 87 1016 87 1016 192.5 1097 c 128,-1,18
 298 1178 298 1178 457 1178 c 0,19,20
 630 1178 630 1178 729.5 1084 c 128,-1,21
 829 990 829 990 829 851 c 0,22,23
 829 772 829 772 800.5 700.5 c 128,-1,24
 772 629 772 629 710 550 c 0,25,26
 670 498 670 498 563.5 400.5 c 128,-1,27
 457 303 457 303 428.5 271 c 128,-1,28
 400 239 400 239 382 209 c 1,29,-1
 829 209 l 1,0,-1
EndSplineSet
EndChar

StartChar: three
Encoding: 51 51 15
Width: 911
Flags: W
LayerCount: 2
Fore
SplineSet
62 311 m 1,0,-1
 279 338 l 1,1,2
 290 254 290 254 335.5 210 c 128,-1,3
 381 166 381 166 446 166 c 0,4,5
 515 166 515 166 562.5 219 c 128,-1,6
 610 272 610 272 610 362 c 0,7,8
 610 446 610 446 564.5 496 c 128,-1,9
 519 546 519 546 454 546 c 0,10,11
 410 546 410 546 350 529 c 1,12,-1
 375 712 l 1,13,14
 466 710 466 710 514 752 c 128,-1,15
 562 794 562 794 562 863 c 0,16,17
 562 922 562 922 527 957.5 c 128,-1,18
 492 993 492 993 434 993 c 256,19,20
 376 993 376 993 335 953 c 128,-1,21
 294 913 294 913 286 836 c 1,22,-1
 78 871 l 1,23,24
 100 978 100 978 143.5 1041.5 c 128,-1,25
 187 1105 187 1105 265 1141.5 c 128,-1,26
 343 1178 343 1178 440 1178 c 0,27,28
 606 1178 606 1178 706 1072 c 0,29,30
 788 986 788 986 788 877 c 0,31,32
 788 722 788 722 619 630 c 1,33,34
 720 609 720 609 780.5 533.5 c 128,-1,35
 841 458 841 458 841 352 c 0,36,37
 841 198 841 198 728 89 c 128,-1,38
 615 -20 615 -20 447 -20 c 0,39,40
 288 -20 288 -20 183 71.5 c 128,-1,41
 78 163 78 163 62 311 c 1,0,-1
EndSplineSet
EndChar

StartChar: four
Encoding: 52 52 16
Width: 911
Flags: W
LayerCount: 2
Fore
SplineSet
510 0 m 1,0,-1
 510 236 l 1,1,-1
 30 236 l 1,2,-1
 30 433 l 1,3,-1
 539 1178 l 1,4,-1
 728 1178 l 1,5,-1
 728 434 l 1,6,-1
 874 434 l 1,7,-1
 874 236 l 1,8,-1
 728 236 l 1,9,-1
 728 0 l 1,10,-1
 510 0 l 1,0,-1
510 434 m 1,11,-1
 510 834 l 1,12,-1
 241 434 l 1,13,-1
 510 434 l 1,11,-1
EndSplineSet
EndChar

StartChar: five
Encoding: 53 53 17
Width: 911
Flags: W
LayerCount: 2
Fore
SplineSet
73 302 m 1,0,-1
 297 325 l 1,1,2
 306 249 306 249 353.5 204.5 c 128,-1,3
 401 160 401 160 462 160 c 0,4,5
 533 160 533 160 581.5 217 c 128,-1,6
 630 274 630 274 630 390 c 0,7,8
 630 498 630 498 582 552 c 128,-1,9
 534 606 534 606 456 606 c 0,10,11
 359 606 359 606 282 520 c 1,12,-1
 100 546 l 1,13,-1
 215 1157 l 1,14,-1
 810 1157 l 1,15,-1
 810 946 l 1,16,-1
 386 946 l 1,17,-1
 350 747 l 1,18,19
 426 785 426 785 504 785 c 0,20,21
 654 785 654 785 758 676 c 128,-1,22
 862 567 862 567 862 394 c 0,23,24
 862 249 862 249 778 135 c 0,25,26
 663 -20 663 -20 460 -20 c 0,27,28
 298 -20 298 -20 195.5 67 c 128,-1,29
 93 154 93 154 73 302 c 1,0,-1
EndSplineSet
EndChar

StartChar: six
Encoding: 54 54 18
Width: 911
Flags: W
LayerCount: 2
Fore
SplineSet
831 886 m 1,0,-1
 614 862 l 1,1,2
 606 929 606 929 572 961 c 128,-1,3
 538 993 538 993 485 993 c 0,4,5
 414 993 414 993 364.5 929 c 128,-1,6
 315 865 315 865 302 662 c 1,7,8
 386 762 386 762 511 762 c 0,9,10
 652 762 652 762 752.5 654.5 c 128,-1,11
 853 547 853 547 853 378 c 0,12,13
 853 198 853 198 747.5 89 c 128,-1,14
 642 -20 642 -20 476 -20 c 0,15,16
 298 -20 298 -20 184 118 c 128,-1,17
 70 256 70 256 70 570 c 0,18,19
 70 893 70 893 189 1035.5 c 128,-1,20
 308 1178 308 1178 498 1178 c 0,21,22
 632 1178 632 1178 719.5 1103 c 128,-1,23
 807 1028 807 1028 831 886 c 1,0,-1
322 395 m 0,24,25
 322 286 322 286 372 226 c 128,-1,26
 422 166 422 166 487 166 c 0,27,28
 550 166 550 166 591.5 215 c 128,-1,29
 633 264 633 264 633 375 c 0,30,31
 633 490 633 490 588 543 c 128,-1,32
 543 596 543 596 476 596 c 0,33,34
 411 596 411 596 366.5 545 c 128,-1,35
 322 494 322 494 322 395 c 0,24,25
EndSplineSet
EndChar

StartChar: seven
Encoding: 55 55 19
Width: 911
Flags: W
LayerCount: 2
Fore
SplineSet
70 948 m 1,0,-1
 70 1157 l 1,1,-1
 838 1157 l 1,2,-1
 838 994 l 1,3,4
 743 900 743 900 644.5 725 c 128,-1,5
 546 550 546 550 494.5 352.5 c 128,-1,6
 443 155 443 155 444 0 c 1,7,-1
 227 0 l 1,8,9
 233 243 233 243 327.5 496 c 128,-1,10
 422 749 422 749 581 948 c 1,11,-1
 70 948 l 1,0,-1
EndSplineSet
EndChar

StartChar: eight
Encoding: 56 56 20
Width: 911
Flags: W
LayerCount: 2
Fore
SplineSet
262 633 m 1,0,1
 175 670 175 670 135.5 734 c 128,-1,2
 96 798 96 798 96 875 c 0,3,4
 96 1006 96 1006 187.5 1092 c 128,-1,5
 279 1178 279 1178 448 1178 c 0,6,7
 615 1178 615 1178 707.5 1092 c 128,-1,8
 800 1006 800 1006 800 875 c 0,9,10
 800 794 800 794 757.5 730 c 128,-1,11
 715 666 715 666 638 633 c 1,12,13
 736 594 736 594 787 518.5 c 128,-1,14
 838 443 838 443 838 345 c 0,15,16
 838 182 838 182 734 80.5 c 128,-1,17
 630 -21 630 -21 458 -21 c 0,18,19
 298 -21 298 -21 192 63 c 0,20,21
 66 162 66 162 66 335 c 0,22,23
 66 430 66 430 113.5 510 c 128,-1,24
 161 590 161 590 262 633 c 1,0,1
309 859 m 0,25,26
 309 792 309 792 347 754.5 c 128,-1,27
 385 717 385 717 448 717 c 0,28,29
 512 717 512 717 550.5 755 c 128,-1,30
 589 793 589 793 589 860 c 0,31,32
 589 923 589 923 551 961 c 128,-1,33
 513 999 513 999 450 999 c 0,34,35
 386 999 386 999 347.5 960.5 c 128,-1,36
 309 922 309 922 309 859 c 0,25,26
288 357 m 0,37,38
 288 264 288 264 335.5 212 c 128,-1,39
 383 160 383 160 454 160 c 0,40,41
 524 160 524 160 569.5 210 c 128,-1,42
 615 260 615 260 615 354 c 0,43,44
 615 437 615 437 568.5 487 c 128,-1,45
 522 537 522 537 451 537 c 0,46,47
 369 537 369 537 328.5 480 c 128,-1,48
 288 423 288 423 288 357 c 0,37,38
EndSplineSet
EndChar

StartChar: nine
Encoding: 57 57 21
Width: 911
Flags: W
LayerCount: 2
Fore
SplineSet
74 271 m 1,0,-1
 292 295 l 1,1,2
 300 229 300 229 333.5 197 c 128,-1,3
 367 165 367 165 422 165 c 0,4,5
 492 165 492 165 541 229 c 128,-1,6
 590 293 590 293 603 494 c 1,7,8
 518 396 518 396 391 396 c 0,9,10
 253 396 253 396 152.5 503 c 128,-1,11
 52 610 52 610 52 781 c 0,12,13
 52 959 52 959 158 1068.5 c 128,-1,14
 264 1178 264 1178 428 1178 c 0,15,16
 606 1178 606 1178 720.5 1040 c 128,-1,17
 835 902 835 902 835 586 c 0,18,19
 835 264 835 264 716 121.5 c 128,-1,20
 597 -21 597 -21 406 -21 c 0,21,22
 268 -21 268 -21 183 52.5 c 128,-1,23
 98 126 98 126 74 271 c 1,0,-1
583 762 m 0,24,25
 583 871 583 871 533 931 c 128,-1,26
 483 991 483 991 418 991 c 0,27,28
 355 991 355 991 314 942 c 128,-1,29
 273 893 273 893 273 781 c 0,30,31
 273 667 273 667 317.5 614 c 128,-1,32
 362 561 362 561 430 561 c 0,33,34
 494 561 494 561 538.5 612 c 128,-1,35
 583 663 583 663 583 762 c 0,24,25
EndSplineSet
EndChar

StartChar: less
Encoding: 60 60 22
Width: 1117
Flags: W
LayerCount: 2
Fore
SplineSet
955 58 m 1,0,-1
 150 444 l 1,1,-1
 150 534 l 1,2,-1
 955 918 l 1,3,-1
 955 784 l 1,4,-1
 331 489 l 1,5,-1
 955 192 l 1,6,-1
 955 58 l 1,0,-1
EndSplineSet
EndChar

StartChar: equal
Encoding: 61 61 23
Width: 1117
Flags: W
LayerCount: 2
Fore
SplineSet
106 224 m 1,0,-1
 106 391 l 1,1,-1
 986 391 l 1,2,-1
 986 224 l 1,3,-1
 106 224 l 1,0,-1
106 574 m 1,4,-1
 106 741 l 1,5,-1
 986 741 l 1,6,-1
 986 574 l 1,7,-1
 106 574 l 1,4,-1
EndSplineSet
EndChar

StartChar: greater
Encoding: 62 62 24
Width: 1117
Flags: W
LayerCount: 2
Fore
SplineSet
966 444 m 1,0,-1
 160 58 l 1,1,-1
 160 192 l 1,2,-1
 786 489 l 1,3,-1
 160 784 l 1,4,-1
 160 918 l 1,5,-1
 966 534 l 1,6,-1
 966 444 l 1,0,-1
EndSplineSet
EndChar

StartChar: question
Encoding: 63 63 25
Width: 1001
Flags: W
LayerCount: 2
Fore
SplineSet
601 302 m 1,0,-1
 397 302 l 1,1,2
 396 346 396 346 396 356 c 0,3,4
 396 455 396 455 429 519 c 128,-1,5
 462 583 462 583 560 663 c 128,-1,6
 658 743 658 743 678 768 c 0,7,8
 707 807 707 807 707 854 c 0,9,10
 707 920 707 920 654.5 967 c 128,-1,11
 602 1014 602 1014 514 1014 c 0,12,13
 428 1014 428 1014 370.5 965 c 128,-1,14
 313 916 313 916 291 816 c 1,15,-1
 85 842 l 1,16,17
 94 985 94 985 207 1085 c 128,-1,18
 320 1185 320 1185 504 1185 c 0,19,20
 698 1185 698 1185 812 1083.5 c 128,-1,21
 926 982 926 982 926 848 c 0,22,23
 926 774 926 774 884 707.5 c 128,-1,24
 842 641 842 641 705 526 c 0,25,26
 634 467 634 467 616.5 431 c 128,-1,27
 599 395 599 395 601 302 c 1,0,-1
397 0 m 1,28,-1
 397 225 l 1,29,-1
 622 225 l 1,30,-1
 622 0 l 1,31,-1
 397 0 l 1,28,-1
EndSplineSet
EndChar

StartChar: at
Encoding: 64 64 26
Width: 1598
Flags: W
LayerCount: 2
Fore
SplineSet
1422 15 m 1,0,-1
 1592 15 l 1,1,2
 1512 -147 1512 -147 1346 -239 c 0,3,4
 1157 -345 1157 -345 884 -345 c 0,5,6
 620 -345 620 -345 428 -255.5 c 128,-1,7
 236 -166 236 -166 142.5 8 c 128,-1,8
 49 182 49 182 49 386 c 0,9,10
 49 611 49 611 155.5 805 c 128,-1,11
 262 999 262 999 446.5 1096.5 c 128,-1,12
 631 1194 631 1194 869 1194 c 0,13,14
 1070 1194 1070 1194 1227 1115.5 c 128,-1,15
 1384 1037 1384 1037 1467 892.5 c 128,-1,16
 1550 748 1550 748 1550 577 c 0,17,18
 1550 373 1550 373 1424 208 c 0,19,20
 1266 0 1266 0 1020 0 c 0,21,22
 954 0 954 0 920 23 c 128,-1,23
 886 46 886 46 875 91 c 1,24,25
 781 0 781 0 658 0 c 0,26,27
 525 0 525 0 437.5 91.5 c 128,-1,28
 350 183 350 183 350 335 c 0,29,30
 350 523 350 523 455 678 c 0,31,32
 583 867 583 867 783 867 c 0,33,34
 926 867 926 867 994 758 c 1,35,-1
 1014 847 l 1,36,-1
 1225 847 l 1,37,-1
 1104 274 l 2,38,39
 1093 219 1093 219 1093 203 c 0,40,41
 1093 183 1093 183 1102 173 c 128,-1,42
 1111 163 1111 163 1124 163 c 0,43,44
 1162 163 1162 163 1223 210 c 0,45,46
 1305 270 1305 270 1355.5 372.5 c 128,-1,47
 1406 475 1406 475 1406 585 c 0,48,49
 1406 782 1406 782 1263.5 914 c 128,-1,50
 1121 1046 1121 1046 866 1046 c 0,51,52
 649 1046 649 1046 498 958 c 128,-1,53
 347 870 347 870 270.5 709.5 c 128,-1,54
 194 549 194 549 194 375 c 0,55,56
 194 206 194 206 279.5 68 c 128,-1,57
 365 -70 365 -70 519 -134 c 128,-1,58
 673 -198 673 -198 871 -198 c 0,59,60
 1062 -198 1062 -198 1200 -144.5 c 128,-1,61
 1338 -91 1338 -91 1422 15 c 1,0,-1
557 344 m 0,62,63
 557 242 557 242 598 194 c 128,-1,64
 639 146 639 146 700 146 c 0,65,66
 746 146 746 146 786 169 c 0,67,68
 816 185 816 185 846 219 c 0,69,70
 888 268 888 268 919 361.5 c 128,-1,71
 950 455 950 455 950 536 c 0,72,73
 950 626 950 626 908 674.5 c 128,-1,74
 866 723 866 723 802 723 c 0,75,76
 733 723 733 723 674.5 670 c 128,-1,77
 616 617 616 617 586.5 518.5 c 128,-1,78
 557 420 557 420 557 344 c 0,62,63
EndSplineSet
EndChar

StartChar: A
Encoding: 65 65 27
Width: 1183
Flags: W
LayerCount: 2
Fore
SplineSet
1177 0 m 1,0,-1
 919 0 l 1,1,-1
 817 266 l 1,2,-1
 348 266 l 1,3,-1
 251 0 l 1,4,-1
 0 0 l 1,5,-1
 457 1173 l 1,6,-1
 707 1173 l 1,7,-1
 1177 0 l 1,0,-1
741 464 m 1,8,-1
 579 899 l 1,9,-1
 421 464 l 1,10,-1
 741 464 l 1,8,-1
EndSplineSet
EndChar

StartChar: B
Encoding: 66 66 28
Width: 1183
Flags: W
LayerCount: 2
Fore
SplineSet
120 1173 m 1,0,-1
 589 1173 l 2,1,2
 728 1173 728 1173 796.5 1161.5 c 128,-1,3
 865 1150 865 1150 919 1113 c 128,-1,4
 973 1076 973 1076 1009 1015 c 128,-1,5
 1045 954 1045 954 1045 878 c 0,6,7
 1045 795 1045 795 1000.5 726.5 c 128,-1,8
 956 658 956 658 880 623 c 1,9,10
 987 592 987 592 1044.5 517 c 128,-1,11
 1102 442 1102 442 1102 340 c 0,12,13
 1102 260 1102 260 1065 184.5 c 128,-1,14
 1028 109 1028 109 963.5 63.5 c 128,-1,15
 899 18 899 18 805 8 c 0,16,17
 746 2 746 2 519 0 c 2,18,-1
 120 0 l 1,19,-1
 120 1173 l 1,0,-1
357 978 m 1,20,-1
 357 706 l 1,21,-1
 512 706 l 2,22,23
 650 706 650 706 684 710 c 0,24,25
 745 718 745 718 779.5 752.5 c 128,-1,26
 814 787 814 787 814 844 c 0,27,28
 814 898 814 898 784 932 c 128,-1,29
 754 966 754 966 695 974 c 0,30,31
 660 978 660 978 493 978 c 2,32,-1
 357 978 l 1,20,-1
357 511 m 1,33,-1
 357 198 l 1,34,-1
 576 198 l 2,35,36
 704 198 704 198 738 205 c 0,37,38
 791 214 791 214 824.5 251.5 c 128,-1,39
 858 289 858 289 858 351 c 0,40,41
 858 404 858 404 832 441 c 128,-1,42
 806 478 806 478 758 494.5 c 128,-1,43
 710 511 710 511 548 511 c 2,44,-1
 357 511 l 1,33,-1
EndSplineSet
EndChar

StartChar: C
Encoding: 67 67 29
Width: 1183
Flags: W
LayerCount: 2
Fore
SplineSet
870 431 m 1,0,-1
 1099 358 l 1,1,2
 1046 166 1046 166 923.5 73 c 128,-1,3
 801 -20 801 -20 612 -20 c 0,4,5
 378 -20 378 -20 228 139.5 c 128,-1,6
 78 299 78 299 78 576 c 0,7,8
 78 869 78 869 229 1031 c 128,-1,9
 380 1193 380 1193 626 1193 c 0,10,11
 842 1193 842 1193 976 1066 c 0,12,13
 1056 990 1056 990 1096 850 c 1,14,-1
 862 794 l 1,15,16
 841 885 841 885 775 937.5 c 128,-1,17
 709 990 709 990 614 990 c 0,18,19
 484 990 484 990 403 896.5 c 128,-1,20
 322 803 322 803 322 594 c 0,21,22
 322 371 322 371 402 276.5 c 128,-1,23
 482 182 482 182 610 182 c 0,24,25
 704 182 704 182 772 242 c 128,-1,26
 840 302 840 302 870 431 c 1,0,-1
EndSplineSet
EndChar

StartChar: D
Encoding: 68 68 30
Width: 1183
Flags: W
LayerCount: 2
Fore
SplineSet
118 1173 m 1,0,-1
 551 1173 l 2,1,2
 698 1173 698 1173 774 1150 c 0,3,4
 878 1120 878 1120 951.5 1042.5 c 128,-1,5
 1025 965 1025 965 1063.5 852.5 c 128,-1,6
 1102 740 1102 740 1102 575 c 0,7,8
 1102 430 1102 430 1066 326 c 0,9,10
 1022 198 1022 198 940 118 c 0,11,12
 878 58 878 58 774 25 c 0,13,14
 695 0 695 0 564 0 c 2,15,-1
 118 0 l 1,16,-1
 118 1173 l 1,0,-1
355 974 m 1,17,-1
 355 198 l 1,18,-1
 532 198 l 2,19,20
 631 198 631 198 675 209 c 0,21,22
 733 223 733 223 771 257.5 c 128,-1,23
 809 292 809 292 833 371 c 128,-1,24
 857 450 857 450 857 586 c 256,25,26
 857 722 857 722 833 794.5 c 128,-1,27
 809 867 809 867 765.5 908 c 128,-1,28
 722 949 722 949 656 963 c 0,29,30
 606 974 606 974 462 974 c 2,31,-1
 355 974 l 1,17,-1
EndSplineSet
EndChar

StartChar: E
Encoding: 69 69 31
Width: 1093
Flags: W
LayerCount: 2
Fore
SplineSet
119 0 m 1,0,-1
 119 1173 l 1,1,-1
 989 1173 l 1,2,-1
 989 974 l 1,3,-1
 356 974 l 1,4,-1
 356 714 l 1,5,-1
 945 714 l 1,6,-1
 945 517 l 1,7,-1
 356 517 l 1,8,-1
 356 198 l 1,9,-1
 1011 198 l 1,10,-1
 1011 0 l 1,11,-1
 119 0 l 1,0,-1
EndSplineSet
EndChar

StartChar: F
Encoding: 70 70 32
Width: 1001
Flags: W
LayerCount: 2
Fore
SplineSet
121 0 m 1,0,-1
 121 1173 l 1,1,-1
 925 1173 l 1,2,-1
 925 974 l 1,3,-1
 358 974 l 1,4,-1
 358 697 l 1,5,-1
 847 697 l 1,6,-1
 847 498 l 1,7,-1
 358 498 l 1,8,-1
 358 0 l 1,9,-1
 121 0 l 1,0,-1
EndSplineSet
EndChar

StartChar: G
Encoding: 71 71 33
Width: 1274
Flags: W
LayerCount: 2
Fore
SplineSet
665 431 m 1,0,-1
 665 629 l 1,1,-1
 1175 629 l 1,2,-1
 1175 162 l 1,3,4
 1101 90 1101 90 959.5 35 c 128,-1,5
 818 -20 818 -20 674 -20 c 0,6,7
 490 -20 490 -20 353 57 c 128,-1,8
 216 134 216 134 147 278 c 128,-1,9
 78 422 78 422 78 590 c 0,10,11
 78 774 78 774 155 916 c 128,-1,12
 232 1058 232 1058 380 1134 c 0,13,14
 493 1193 493 1193 661 1193 c 0,15,16
 879 1193 879 1193 1002 1101.5 c 128,-1,17
 1125 1010 1125 1010 1160 848 c 1,18,-1
 925 804 l 1,19,20
 900 890 900 890 831.5 940 c 128,-1,21
 763 990 763 990 661 990 c 0,22,23
 506 990 506 990 414 892 c 128,-1,24
 322 794 322 794 322 600 c 0,25,26
 322 391 322 391 415 286.5 c 128,-1,27
 508 182 508 182 658 182 c 0,28,29
 733 182 733 182 807.5 211.5 c 128,-1,30
 882 241 882 241 936 282 c 1,31,-1
 936 431 l 1,32,-1
 665 431 l 1,0,-1
EndSplineSet
EndChar

StartChar: H
Encoding: 72 72 34
Width: 1183
Flags: W
LayerCount: 2
Fore
SplineSet
120 0 m 1,0,-1
 120 1173 l 1,1,-1
 357 1173 l 1,2,-1
 357 711 l 1,3,-1
 821 711 l 1,4,-1
 821 1173 l 1,5,-1
 1058 1173 l 1,6,-1
 1058 0 l 1,7,-1
 821 0 l 1,8,-1
 821 513 l 1,9,-1
 357 513 l 1,10,-1
 357 0 l 1,11,-1
 120 0 l 1,0,-1
EndSplineSet
EndChar

StartChar: I
Encoding: 73 73 35
Width: 455
Flags: W
LayerCount: 2
Fore
SplineSet
112 0 m 1,0,-1
 112 1173 l 1,1,-1
 349 1173 l 1,2,-1
 349 0 l 1,3,-1
 112 0 l 1,0,-1
EndSplineSet
EndChar

StartChar: J
Encoding: 74 74 36
Width: 911
Flags: W
LayerCount: 2
Fore
SplineSet
542 1173 m 1,0,-1
 778 1173 l 1,1,-1
 778 430 l 2,2,3
 778 285 778 285 753 206 c 0,4,5
 718 104 718 104 628 42 c 128,-1,6
 538 -20 538 -20 390 -20 c 0,7,8
 216 -20 216 -20 122.5 77 c 128,-1,9
 29 174 29 174 28 362 c 1,10,-1
 251 388 l 1,11,12
 255 287 255 287 281 246 c 0,13,14
 319 182 319 182 398 182 c 256,15,16
 477 182 477 182 509.5 227.5 c 128,-1,17
 542 273 542 273 542 415 c 2,18,-1
 542 1173 l 1,0,-1
EndSplineSet
EndChar

StartChar: K
Encoding: 75 75 37
Width: 1183
Flags: W
LayerCount: 2
Fore
SplineSet
122 0 m 1,0,-1
 122 1173 l 1,1,-1
 359 1173 l 1,2,-1
 359 652 l 1,3,-1
 838 1173 l 1,4,-1
 1156 1173 l 1,5,-1
 714 716 l 1,6,-1
 1180 0 l 1,7,-1
 874 0 l 1,8,-1
 551 550 l 1,9,-1
 359 354 l 1,10,-1
 359 0 l 1,11,-1
 122 0 l 1,0,-1
EndSplineSet
EndChar

StartChar: L
Encoding: 76 76 38
Width: 1001
Flags: W
LayerCount: 2
Fore
SplineSet
126 0 m 1,0,-1
 126 1163 l 1,1,-1
 362 1163 l 1,2,-1
 362 198 l 1,3,-1
 951 198 l 1,4,-1
 951 0 l 1,5,-1
 126 0 l 1,0,-1
EndSplineSet
EndChar

StartChar: M
Encoding: 77 77 39
Width: 1365
Flags: W
LayerCount: 2
Fore
SplineSet
116 0 m 1,0,-1
 116 1173 l 1,1,-1
 470 1173 l 1,2,-1
 683 373 l 1,3,-1
 894 1173 l 1,4,-1
 1249 1173 l 1,5,-1
 1249 0 l 1,6,-1
 1029 0 l 1,7,-1
 1029 923 l 1,8,-1
 796 0 l 1,9,-1
 568 0 l 1,10,-1
 336 923 l 1,11,-1
 336 0 l 1,12,-1
 116 0 l 1,0,-1
EndSplineSet
EndChar

StartChar: N
Encoding: 78 78 40
Width: 1183
Flags: W
LayerCount: 2
Fore
SplineSet
122 0 m 1,0,-1
 122 1173 l 1,1,-1
 352 1173 l 1,2,-1
 832 390 l 1,3,-1
 832 1173 l 1,4,-1
 1052 1173 l 1,5,-1
 1052 0 l 1,6,-1
 814 0 l 1,7,-1
 342 765 l 1,8,-1
 342 0 l 1,9,-1
 122 0 l 1,0,-1
EndSplineSet
EndChar

StartChar: O
Encoding: 79 79 41
Width: 1274
Flags: W
LayerCount: 2
Fore
SplineSet
71 579 m 0,0,1
 71 758 71 758 125 880 c 0,2,3
 165 970 165 970 234 1041 c 128,-1,4
 303 1112 303 1112 386 1146 c 0,5,6
 495 1193 495 1193 638 1193 c 0,7,8
 898 1193 898 1193 1053.5 1032 c 128,-1,9
 1209 871 1209 871 1209 585 c 0,10,11
 1209 301 1209 301 1054.5 140.5 c 128,-1,12
 900 -20 900 -20 642 -20 c 0,13,14
 380 -20 380 -20 225.5 139.5 c 128,-1,15
 71 299 71 299 71 579 c 0,0,1
315 587 m 0,16,17
 315 388 315 388 407 285 c 128,-1,18
 499 182 499 182 641 182 c 0,19,20
 782 182 782 182 873 284 c 128,-1,21
 964 386 964 386 964 590 c 0,22,23
 964 792 964 792 875.5 891 c 128,-1,24
 787 990 787 990 641 990 c 0,25,26
 494 990 494 990 404.5 890 c 128,-1,27
 315 790 315 790 315 587 c 0,16,17
EndSplineSet
EndChar

StartChar: P
Encoding: 80 80 42
Width: 1093
Flags: W
LayerCount: 2
Fore
SplineSet
119 0 m 1,0,-1
 119 1173 l 1,1,-1
 499 1173 l 2,2,3
 715 1173 715 1173 781 1155 c 0,4,5
 882 1129 882 1129 950 1040.5 c 128,-1,6
 1018 952 1018 952 1018 812 c 0,7,8
 1018 704 1018 704 978.5 630.5 c 128,-1,9
 939 557 939 557 878.5 515 c 128,-1,10
 818 473 818 473 756 459 c 0,11,12
 671 442 671 442 510 442 c 2,13,-1
 356 442 l 1,14,-1
 356 0 l 1,15,-1
 119 0 l 1,0,-1
356 974 m 1,16,-1
 356 642 l 1,17,-1
 486 642 l 2,18,19
 626 642 626 642 673 660 c 128,-1,20
 720 678 720 678 747 717.5 c 128,-1,21
 774 757 774 757 774 809 c 0,22,23
 774 873 774 873 736 914.5 c 128,-1,24
 698 956 698 956 641 966 c 0,25,26
 598 974 598 974 470 974 c 2,27,-1
 356 974 l 1,16,-1
EndSplineSet
EndChar

StartChar: Q
Encoding: 81 81 43
Width: 1274
Flags: W
LayerCount: 2
Fore
SplineSet
1063 149 m 1,0,1
 1150 86 1150 86 1253 50 c 1,2,-1
 1166 -118 l 1,3,4
 1112 -102 1112 -102 1061 -74 c 0,5,6
 1050 -68 1050 -68 903 30 c 1,7,8
 788 -20 788 -20 648 -20 c 0,9,10
 378 -20 378 -20 224.5 139 c 128,-1,11
 71 298 71 298 71 586 c 256,12,13
 71 874 71 874 224.5 1033.5 c 128,-1,14
 378 1193 378 1193 642 1193 c 0,15,16
 902 1193 902 1193 1055 1033.5 c 128,-1,17
 1208 874 1208 874 1208 586 c 0,18,19
 1208 434 1208 434 1166 319 c 0,20,21
 1134 231 1134 231 1063 149 c 1,0,1
873 282 m 1,22,23
 918 336 918 336 941 412 c 128,-1,24
 964 488 964 488 964 586 c 0,25,26
 964 790 964 790 874.5 890 c 128,-1,27
 785 990 785 990 640 990 c 256,28,29
 495 990 495 990 405 889.5 c 128,-1,30
 315 789 315 789 315 586 c 0,31,32
 315 381 315 381 405 279 c 128,-1,33
 495 177 495 177 633 177 c 0,34,35
 684 177 684 177 730 194 c 1,36,37
 658 241 658 241 583 267 c 1,38,-1
 650 402 l 1,39,40
 766 362 766 362 873 282 c 1,22,23
EndSplineSet
EndChar

StartChar: R
Encoding: 82 82 44
Width: 1183
Flags: W
LayerCount: 2
Fore
SplineSet
120 0 m 1,0,-1
 120 1173 l 1,1,-1
 618 1173 l 2,2,3
 806 1173 806 1173 891.5 1141.5 c 128,-1,4
 977 1110 977 1110 1028 1029 c 128,-1,5
 1079 948 1079 948 1079 844 c 0,6,7
 1079 712 1079 712 1001.5 626 c 128,-1,8
 924 540 924 540 770 518 c 1,9,10
 846 473 846 473 896 419.5 c 128,-1,11
 946 366 946 366 1031 229 c 2,12,-1
 1174 0 l 1,13,-1
 891 0 l 1,14,-1
 720 255 l 2,15,16
 629 392 629 392 595.5 427.5 c 128,-1,17
 562 463 562 463 524 476.5 c 128,-1,18
 486 490 486 490 405 490 c 2,19,-1
 357 490 l 1,20,-1
 357 0 l 1,21,-1
 120 0 l 1,0,-1
357 677 m 1,22,-1
 532 677 l 2,23,24
 702 677 702 677 744.5 691.5 c 128,-1,25
 787 706 787 706 811 741 c 128,-1,26
 835 776 835 776 835 829 c 0,27,28
 835 888 835 888 803.5 924.5 c 128,-1,29
 772 961 772 961 714 970 c 0,30,31
 686 974 686 974 542 974 c 2,32,-1
 357 974 l 1,33,-1
 357 677 l 1,22,-1
EndSplineSet
EndChar

StartChar: S
Encoding: 83 83 45
Width: 1093
Flags: W
LayerCount: 2
Fore
SplineSet
59 382 m 1,0,-1
 290 404 l 1,1,2
 310 288 310 288 374 233.5 c 128,-1,3
 438 179 438 179 546 179 c 0,4,5
 660 179 660 179 718 227.5 c 128,-1,6
 776 276 776 276 776 341 c 0,7,8
 776 382 776 382 751.5 411.5 c 128,-1,9
 727 441 727 441 666 462 c 0,10,11
 625 477 625 477 477 514 c 0,12,13
 286 561 286 561 210 630 c 0,14,15
 102 726 102 726 102 866 c 0,16,17
 102 955 102 955 152.5 1033 c 128,-1,18
 203 1111 203 1111 298.5 1152 c 128,-1,19
 394 1193 394 1193 530 1193 c 0,20,21
 750 1193 750 1193 862 1096 c 128,-1,22
 974 999 974 999 979 838 c 1,23,-1
 742 827 l 1,24,25
 727 918 727 918 677 957.5 c 128,-1,26
 627 997 627 997 527 997 c 0,27,28
 424 997 424 997 366 954 c 0,29,30
 328 927 328 927 328 882 c 0,31,32
 328 840 328 840 363 810 c 0,33,34
 408 773 408 773 581 732 c 128,-1,35
 754 691 754 691 836.5 647.5 c 128,-1,36
 919 604 919 604 966 528.5 c 128,-1,37
 1013 453 1013 453 1013 342 c 0,38,39
 1013 241 1013 241 957 153 c 128,-1,40
 901 65 901 65 798.5 22 c 128,-1,41
 696 -21 696 -21 543 -21 c 0,42,43
 321 -21 321 -21 201.5 82 c 128,-1,44
 82 185 82 185 59 382 c 1,0,-1
EndSplineSet
EndChar

StartChar: T
Encoding: 84 84 46
Width: 1001
Flags: W
LayerCount: 2
Fore
SplineSet
383 0 m 1,0,-1
 383 974 l 1,1,-1
 35 974 l 1,2,-1
 35 1173 l 1,3,-1
 967 1173 l 1,4,-1
 967 974 l 1,5,-1
 620 974 l 1,6,-1
 620 0 l 1,7,-1
 383 0 l 1,0,-1
EndSplineSet
EndChar

StartChar: U
Encoding: 85 85 47
Width: 1183
Flags: W
LayerCount: 2
Fore
SplineSet
118 1173 m 1,0,-1
 354 1173 l 1,1,-1
 354 538 l 2,2,3
 354 386 354 386 363 342 c 0,4,5
 378 270 378 270 435.5 226 c 128,-1,6
 493 182 493 182 592 182 c 0,7,8
 693 182 693 182 744 223.5 c 128,-1,9
 795 265 795 265 805.5 325 c 128,-1,10
 816 385 816 385 816 524 c 2,11,-1
 816 1173 l 1,12,-1
 1053 1173 l 1,13,-1
 1053 557 l 2,14,15
 1053 346 1053 346 1033.5 258.5 c 128,-1,16
 1014 171 1014 171 962.5 111 c 128,-1,17
 911 51 911 51 824.5 15.5 c 128,-1,18
 738 -20 738 -20 599 -20 c 0,19,20
 431 -20 431 -20 344.5 19 c 128,-1,21
 258 58 258 58 207.5 120 c 128,-1,22
 157 182 157 182 141 250 c 0,23,24
 118 350 118 350 118 547 c 2,25,-1
 118 1173 l 1,0,-1
EndSplineSet
EndChar

StartChar: V
Encoding: 86 86 48
Width: 1093
Flags: W
LayerCount: 2
Fore
SplineSet
418 0 m 1,0,-1
 -1 1173 l 1,1,-1
 256 1173 l 1,2,-1
 553 305 l 1,3,-1
 840 1173 l 1,4,-1
 1091 1173 l 1,5,-1
 671 0 l 1,6,-1
 418 0 l 1,0,-1
EndSplineSet
EndChar

StartChar: W
Encoding: 87 87 49
Width: 1546
Flags: W
LayerCount: 2
Fore
SplineSet
286 0 m 1,0,-1
 6 1173 l 1,1,-1
 248 1173 l 1,2,-1
 425 367 l 1,3,-1
 639 1173 l 1,4,-1
 921 1173 l 1,5,-1
 1126 354 l 1,6,-1
 1306 1173 l 1,7,-1
 1545 1173 l 1,8,-1
 1260 0 l 1,9,-1
 1009 0 l 1,10,-1
 775 877 l 1,11,-1
 542 0 l 1,12,-1
 286 0 l 1,0,-1
EndSplineSet
EndChar

StartChar: X
Encoding: 88 88 50
Width: 1093
Flags: W
LayerCount: 2
Fore
SplineSet
0 0 m 1,0,-1
 401 612 l 1,1,-1
 38 1173 l 1,2,-1
 314 1173 l 1,3,-1
 550 796 l 1,4,-1
 780 1173 l 1,5,-1
 1054 1173 l 1,6,-1
 690 603 l 1,7,-1
 1090 0 l 1,8,-1
 805 0 l 1,9,-1
 545 406 l 1,10,-1
 284 0 l 1,11,-1
 0 0 l 1,0,-1
EndSplineSet
EndChar

StartChar: Y
Encoding: 89 89 51
Width: 1093
Flags: W
LayerCount: 2
Fore
SplineSet
427 0 m 1,0,-1
 427 494 l 1,1,-1
 -2 1173 l 1,2,-1
 275 1173 l 1,3,-1
 551 709 l 1,4,-1
 822 1173 l 1,5,-1
 1094 1173 l 1,6,-1
 663 492 l 1,7,-1
 663 0 l 1,8,-1
 427 0 l 1,0,-1
EndSplineSet
EndChar

StartChar: Z
Encoding: 90 90 52
Width: 1001
Flags: W
LayerCount: 2
Fore
SplineSet
18 0 m 1,0,-1
 18 214 l 1,1,-1
 634 974 l 1,2,-1
 87 974 l 1,3,-1
 87 1173 l 1,4,-1
 946 1173 l 1,5,-1
 946 989 l 1,6,-1
 303 198 l 1,7,-1
 970 198 l 1,8,-1
 970 0 l 1,9,-1
 18 0 l 1,0,-1
EndSplineSet
EndChar

StartChar: bracketleft
Encoding: 91 91 53
Width: 546
Flags: W
LayerCount: 2
Fore
SplineSet
117 -330 m 1,0,-1
 117 1173 l 1,1,-1
 515 1173 l 1,2,-1
 515 996 l 1,3,-1
 330 996 l 1,4,-1
 330 -154 l 1,5,-1
 515 -154 l 1,6,-1
 515 -330 l 1,7,-1
 117 -330 l 1,0,-1
EndSplineSet
EndChar

StartChar: backslash
Encoding: 92 92 54
Width: 455
Flags: W
LayerCount: 2
Fore
SplineSet
-2 1193 m 1,0,-1
 163 1193 l 1,1,-1
 457 -20 l 1,2,-1
 288 -20 l 1,3,-1
 -2 1193 l 1,0,-1
EndSplineSet
EndChar

StartChar: bracketright
Encoding: 93 93 55
Width: 546
Flags: W
LayerCount: 2
Fore
SplineSet
429 1173 m 1,0,-1
 429 -330 l 1,1,-1
 30 -330 l 1,2,-1
 30 -154 l 1,3,-1
 215 -154 l 1,4,-1
 215 998 l 1,5,-1
 30 998 l 1,6,-1
 30 1173 l 1,7,-1
 429 1173 l 1,0,-1
EndSplineSet
EndChar

StartChar: asciicircum
Encoding: 94 94 56
Width: 957
Flags: W
LayerCount: 2
Fore
SplineSet
92 554 m 1,0,-1
 393 1193 l 1,1,-1
 571 1193 l 1,2,-1
 864 554 l 1,3,-1
 637 554 l 1,4,-1
 478 945 l 1,5,-1
 321 554 l 1,6,-1
 92 554 l 1,0,-1
EndSplineSet
EndChar

StartChar: underscore
Encoding: 95 95 57
Width: 911
Flags: W
LayerCount: 2
Fore
SplineSet
-15 -324 m 1,0,-1
 -15 -178 l 1,1,-1
 919 -178 l 1,2,-1
 919 -324 l 1,3,-1
 -15 -324 l 1,0,-1
EndSplineSet
EndChar

StartChar: grave
Encoding: 96 96 58
Width: 212
Flags: W
LayerCount: 2
Fore
SplineSet
120 1002 m 1,0,1
 155 922 155 922 176 851 c 1,2,3
 183 799 183 799 172 805 c 1,4,5
 150 837 150 837 102.5 927 c 128,-1,6
 55 1017 55 1017 46 1049 c 1,7,8
 43 1086 43 1086 120 1002 c 1,0,1
EndSplineSet
EndChar

StartChar: a
Encoding: 97 97 59
Width: 911
Flags: W
LayerCount: 2
Fore
SplineSet
286 590 m 1,0,-1
 82 627 l 1,1,2
 116 750 116 750 200 809.5 c 128,-1,3
 284 869 284 869 450 869 c 0,4,5
 600 869 600 869 673.5 833.5 c 128,-1,6
 747 798 747 798 777 743 c 128,-1,7
 807 688 807 688 807 542 c 2,8,-1
 805 279 l 2,9,10
 805 167 805 167 815.5 114 c 128,-1,11
 826 61 826 61 856 0 c 1,12,-1
 634 0 l 1,13,14
 625 22 625 22 612 66 c 0,15,16
 606 86 606 86 604 93 c 1,17,18
 546 37 546 37 480.5 9 c 128,-1,19
 415 -19 415 -19 341 -19 c 0,20,21
 210 -19 210 -19 134 52 c 128,-1,22
 58 123 58 123 58 232 c 0,23,24
 58 304 58 304 92.5 360.5 c 128,-1,25
 127 417 127 417 189 447 c 128,-1,26
 251 477 251 477 368 499 c 0,27,28
 526 529 526 529 586 554 c 1,29,-1
 586 577 l 2,30,31
 586 642 586 642 554 669.5 c 128,-1,32
 522 697 522 697 434 697 c 0,33,34
 374 697 374 697 340 673.5 c 128,-1,35
 306 650 306 650 286 590 c 1,0,-1
586 408 m 1,36,37
 543 394 543 394 449.5 374 c 128,-1,38
 356 354 356 354 327 334 c 0,39,40
 283 303 283 303 283 255 c 0,41,42
 283 208 283 208 318.5 173.5 c 128,-1,43
 354 139 354 139 408 139 c 0,44,45
 469 139 469 139 524 179 c 0,46,47
 565 210 565 210 578 254 c 0,48,49
 586 282 586 282 586 363 c 2,50,-1
 586 408 l 1,36,37
EndSplineSet
EndChar

StartChar: b
Encoding: 98 98 60
Width: 1001
Flags: W
LayerCount: 2
Fore
SplineSet
108 0 m 1,0,-1
 108 1173 l 1,1,-1
 333 1173 l 1,2,-1
 333 750 l 1,3,4
 437 869 437 869 579 869 c 0,5,6
 734 869 734 869 836 756.5 c 128,-1,7
 938 644 938 644 938 434 c 0,8,9
 938 216 938 216 834 98.5 c 128,-1,10
 730 -19 730 -19 582 -19 c 0,11,12
 510 -19 510 -19 439 17.5 c 128,-1,13
 368 54 368 54 317 125 c 1,14,-1
 317 0 l 1,15,-1
 108 0 l 1,0,-1
331 443 m 0,16,17
 331 311 331 311 373 248 c 0,18,19
 431 158 431 158 528 158 c 0,20,21
 602 158 602 158 654.5 222 c 128,-1,22
 707 286 707 286 707 422 c 0,23,24
 707 568 707 568 654.5 632.5 c 128,-1,25
 602 697 602 697 519 697 c 0,26,27
 438 697 438 697 384.5 634 c 128,-1,28
 331 571 331 571 331 443 c 0,16,17
EndSplineSet
EndChar

StartChar: c
Encoding: 99 99 61
Width: 911
Flags: W
LayerCount: 2
Fore
SplineSet
858 598 m 1,0,-1
 637 558 l 1,1,2
 626 625 626 625 586 658.5 c 128,-1,3
 546 692 546 692 483 692 c 0,4,5
 399 692 399 692 349 634 c 128,-1,6
 299 576 299 576 299 440 c 0,7,8
 299 289 299 289 350 226.5 c 128,-1,9
 401 164 401 164 486 164 c 0,10,11
 550 164 550 164 591 200.5 c 128,-1,12
 632 237 632 237 649 326 c 1,13,-1
 870 288 l 1,14,15
 835 136 835 136 737.5 58.5 c 128,-1,16
 640 -19 640 -19 476 -19 c 0,17,18
 290 -19 290 -19 179 98.5 c 128,-1,19
 68 216 68 216 68 424 c 0,20,21
 68 634 68 634 179 751.5 c 128,-1,22
 290 869 290 869 480 869 c 0,23,24
 635 869 635 869 726.5 802 c 128,-1,25
 818 735 818 735 858 598 c 1,0,-1
EndSplineSet
EndChar

StartChar: d
Encoding: 100 100 62
Width: 1001
Flags: W
LayerCount: 2
Fore
SplineSet
897 0 m 1,0,-1
 688 0 l 1,1,-1
 688 125 l 1,2,3
 636 52 636 52 565 16.5 c 128,-1,4
 494 -19 494 -19 422 -19 c 0,5,6
 276 -19 276 -19 171.5 99 c 128,-1,7
 67 217 67 217 67 428 c 0,8,9
 67 644 67 644 168.5 756.5 c 128,-1,10
 270 869 270 869 426 869 c 0,11,12
 568 869 568 869 672 750 c 1,13,-1
 672 1173 l 1,14,-1
 897 1173 l 1,15,-1
 897 0 l 1,0,-1
297 443 m 0,16,17
 297 307 297 307 334 246 c 0,18,19
 389 158 389 158 486 158 c 0,20,21
 564 158 564 158 618.5 224 c 128,-1,22
 673 290 673 290 673 422 c 0,23,24
 673 568 673 568 620 632.5 c 128,-1,25
 567 697 567 697 485 697 c 0,26,27
 405 697 405 697 351 633.5 c 128,-1,28
 297 570 297 570 297 443 c 0,16,17
EndSplineSet
EndChar

StartChar: e
Encoding: 101 101 63
Width: 911
Flags: W
LayerCount: 2
Fore
SplineSet
610 270 m 1,0,-1
 834 233 l 1,1,2
 790 110 790 110 697 45.5 c 128,-1,3
 604 -19 604 -19 464 -19 c 0,4,5
 242 -19 242 -19 136 126 c 0,6,7
 52 242 52 242 52 418 c 0,8,9
 52 630 52 630 162.5 749.5 c 128,-1,10
 273 869 273 869 442 869 c 0,11,12
 631 869 631 869 740.5 743.5 c 128,-1,13
 850 618 850 618 846 360 c 1,14,-1
 282 360 l 1,15,16
 285 260 285 260 337 204.5 c 128,-1,17
 389 149 389 149 466 149 c 0,18,19
 519 149 519 149 555 177.5 c 128,-1,20
 591 206 591 206 610 270 c 1,0,-1
622 498 m 1,21,22
 620 595 620 595 572 646 c 128,-1,23
 524 697 524 697 455 697 c 0,24,25
 382 697 382 697 334 643 c 0,26,27
 286 590 286 590 286 498 c 1,28,-1
 622 498 l 1,21,22
EndSplineSet
EndChar

StartChar: f
Encoding: 102 102 64
Width: 546
Flags: W
LayerCount: 2
Fore
SplineSet
19 850 m 1,0,-1
 144 850 l 1,1,-1
 144 914 l 2,2,3
 144 1021 144 1021 167 1073.5 c 128,-1,4
 190 1126 190 1126 251 1159.5 c 128,-1,5
 312 1193 312 1193 406 1193 c 0,6,7
 502 1193 502 1193 594 1164 c 1,8,-1
 563 1007 l 1,9,10
 510 1020 510 1020 460 1020 c 0,11,12
 411 1020 411 1020 390 997 c 128,-1,13
 369 974 369 974 369 910 c 2,14,-1
 369 850 l 1,15,-1
 537 850 l 1,16,-1
 537 673 l 1,17,-1
 369 673 l 1,18,-1
 369 0 l 1,19,-1
 144 0 l 1,20,-1
 144 673 l 1,21,-1
 19 673 l 1,22,-1
 19 850 l 1,0,-1
EndSplineSet
EndChar

StartChar: g
Encoding: 103 103 65
Width: 1001
Flags: W
LayerCount: 2
Fore
SplineSet
97 -56 m 1,0,-1
 354 -87 l 1,1,2
 360 -132 360 -132 383 -149 c 0,3,4
 415 -173 415 -173 484 -173 c 0,5,6
 572 -173 572 -173 616 -146 c 0,7,8
 646 -129 646 -129 661 -90 c 0,9,10
 671 -62 671 -62 671 14 c 2,11,-1
 671 138 l 1,12,13
 570 0 570 0 417 0 c 0,14,15
 246 0 246 0 146 145 c 0,16,17
 67 259 67 259 67 430 c 0,18,19
 67 643 67 643 170 756 c 128,-1,20
 273 869 273 869 426 869 c 0,21,22
 583 869 583 869 686 730 c 1,23,-1
 686 850 l 1,24,-1
 896 850 l 1,25,-1
 896 87 l 2,26,27
 896 -63 896 -63 871 -137.5 c 128,-1,28
 846 -212 846 -212 801.5 -254.5 c 128,-1,29
 757 -297 757 -297 682 -321 c 128,-1,30
 607 -345 607 -345 493 -345 c 0,31,32
 277 -345 277 -345 186.5 -271 c 128,-1,33
 96 -197 96 -197 96 -83 c 0,34,35
 96 -72 96 -72 97 -56 c 1,0,-1
298 442 m 0,36,37
 298 307 298 307 350 244.5 c 128,-1,38
 402 182 402 182 479 182 c 0,39,40
 562 182 562 182 618.5 246 c 128,-1,41
 675 310 675 310 675 437 c 0,42,43
 675 569 675 569 620.5 633 c 128,-1,44
 566 697 566 697 483 697 c 0,45,46
 402 697 402 697 350 634 c 128,-1,47
 298 571 298 571 298 442 c 0,36,37
EndSplineSet
EndChar

StartChar: h
Encoding: 104 104 66
Width: 1001
Flags: W
LayerCount: 2
Fore
SplineSet
342 1173 m 1,0,-1
 342 742 l 1,1,2
 450 869 450 869 602 869 c 0,3,4
 679 869 679 869 741.5 840 c 128,-1,5
 804 811 804 811 835.5 766.5 c 128,-1,6
 867 722 867 722 878.5 667.5 c 128,-1,7
 890 613 890 613 890 498 c 2,8,-1
 890 0 l 1,9,-1
 666 0 l 1,10,-1
 666 449 l 2,11,12
 666 582 666 582 653 618 c 128,-1,13
 640 654 640 654 607.5 675.5 c 128,-1,14
 575 697 575 697 526 697 c 0,15,16
 470 697 470 697 426 669.5 c 128,-1,17
 382 642 382 642 362 587.5 c 128,-1,18
 342 533 342 533 342 426 c 2,19,-1
 342 0 l 1,20,-1
 117 0 l 1,21,-1
 117 1173 l 1,22,-1
 342 1173 l 1,0,-1
EndSplineSet
EndChar

StartChar: i
Encoding: 105 105 67
Width: 455
Flags: W
LayerCount: 2
Fore
SplineSet
118 965 m 1,0,-1
 118 1173 l 1,1,-1
 342 1173 l 1,2,-1
 342 965 l 1,3,-1
 118 965 l 1,0,-1
118 0 m 1,4,-1
 118 850 l 1,5,-1
 342 850 l 1,6,-1
 342 0 l 1,7,-1
 118 0 l 1,4,-1
EndSplineSet
EndChar

StartChar: j
Encoding: 106 106 68
Width: 455
Flags: W
LayerCount: 2
Fore
SplineSet
113 965 m 1,0,-1
 113 1173 l 1,1,-1
 338 1173 l 1,2,-1
 338 965 l 1,3,-1
 113 965 l 1,0,-1
338 850 m 1,4,-1
 338 26 l 2,5,6
 338 -136 338 -136 316.5 -203 c 128,-1,7
 295 -270 295 -270 234.5 -307.5 c 128,-1,8
 174 -345 174 -345 81 -345 c 0,9,10
 47 -345 47 -345 8.5 -339 c 128,-1,11
 -30 -333 -30 -333 -75 -321 c 1,12,-1
 -36 -129 l 1,13,14
 -20 -132 -20 -132 -6 -134 c 128,-1,15
 8 -136 8 -136 20 -136 c 0,16,17
 54 -136 54 -136 76 -121 c 128,-1,18
 98 -106 98 -106 105.5 -85.5 c 128,-1,19
 113 -65 113 -65 113 39 c 2,20,-1
 113 850 l 1,21,-1
 338 850 l 1,4,-1
EndSplineSet
EndChar

StartChar: k
Encoding: 107 107 69
Width: 911
Flags: W
LayerCount: 2
Fore
SplineSet
110 0 m 1,0,-1
 110 1173 l 1,1,-1
 334 1173 l 1,2,-1
 334 550 l 1,3,-1
 598 850 l 1,4,-1
 874 850 l 1,5,-1
 584 539 l 1,6,-1
 895 0 l 1,7,-1
 653 0 l 1,8,-1
 439 382 l 1,9,-1
 334 272 l 1,10,-1
 334 0 l 1,11,-1
 110 0 l 1,0,-1
EndSplineSet
EndChar

StartChar: l
Encoding: 108 108 70
Width: 455
Flags: W
LayerCount: 2
Fore
SplineSet
118 0 m 1,0,-1
 118 1173 l 1,1,-1
 342 1173 l 1,2,-1
 342 0 l 1,3,-1
 118 0 l 1,0,-1
EndSplineSet
EndChar

StartChar: m
Encoding: 109 109 71
Width: 1457
Flags: W
LayerCount: 2
Fore
SplineSet
101 850 m 1,0,-1
 308 850 l 1,1,-1
 308 734 l 1,2,3
 419 869 419 869 573 869 c 0,4,5
 654 869 654 869 714 835.5 c 128,-1,6
 774 802 774 802 813 734 c 1,7,8
 869 802 869 802 933.5 835.5 c 128,-1,9
 998 869 998 869 1072 869 c 0,10,11
 1166 869 1166 869 1230.5 831 c 128,-1,12
 1295 793 1295 793 1327 719 c 0,13,14
 1350 665 1350 665 1350 543 c 2,15,-1
 1350 0 l 1,16,-1
 1126 0 l 1,17,-1
 1126 486 l 2,18,19
 1126 612 1126 612 1102 649 c 0,20,21
 1071 697 1071 697 1006 697 c 0,22,23
 959 697 959 697 917.5 668 c 128,-1,24
 876 639 876 639 857.5 583.5 c 128,-1,25
 839 528 839 528 839 408 c 2,26,-1
 839 0 l 1,27,-1
 614 0 l 1,28,-1
 614 466 l 2,29,30
 614 590 614 590 602 626 c 128,-1,31
 590 662 590 662 565 679.5 c 128,-1,32
 540 697 540 697 497 697 c 0,33,34
 445 697 445 697 403.5 669 c 128,-1,35
 362 641 362 641 344 588 c 128,-1,36
 326 535 326 535 326 413 c 2,37,-1
 326 0 l 1,38,-1
 101 0 l 1,39,-1
 101 850 l 1,0,-1
EndSplineSet
EndChar

StartChar: n
Encoding: 110 110 72
Width: 1001
Flags: W
LayerCount: 2
Fore
SplineSet
890 0 m 1,0,-1
 666 0 l 1,1,-1
 666 434 l 2,2,3
 666 571 666 571 651.5 611.5 c 128,-1,4
 637 652 637 652 604.5 674.5 c 128,-1,5
 572 697 572 697 526 697 c 0,6,7
 468 697 468 697 421.5 665 c 128,-1,8
 375 633 375 633 358 580 c 128,-1,9
 341 527 341 527 341 385 c 2,10,-1
 341 0 l 1,11,-1
 116 0 l 1,12,-1
 116 850 l 1,13,-1
 325 850 l 1,14,-1
 325 725 l 1,15,16
 436 869 436 869 605 869 c 0,17,18
 679 869 679 869 740.5 842 c 128,-1,19
 802 815 802 815 834 773.5 c 128,-1,20
 866 732 866 732 878 679 c 128,-1,21
 890 626 890 626 890 528 c 2,22,-1
 890 0 l 1,0,-1
EndSplineSet
EndChar

StartChar: o
Encoding: 111 111 73
Width: 1001
Flags: W
LayerCount: 2
Fore
SplineSet
66 437 m 0,0,1
 66 549 66 549 121 653.5 c 128,-1,2
 176 758 176 758 277 813.5 c 128,-1,3
 378 869 378 869 503 869 c 0,4,5
 696 869 696 869 819 743.5 c 128,-1,6
 942 618 942 618 942 427 c 0,7,8
 942 234 942 234 818 107.5 c 128,-1,9
 694 -19 694 -19 505 -19 c 0,10,11
 388 -19 388 -19 282 33.5 c 128,-1,12
 176 86 176 86 121 188 c 128,-1,13
 66 290 66 290 66 437 c 0,0,1
296 425 m 0,14,15
 296 298 296 298 356 231 c 128,-1,16
 416 164 416 164 504 164 c 256,17,18
 592 164 592 164 651.5 231 c 128,-1,19
 711 298 711 298 711 426 c 0,20,21
 711 551 711 551 651.5 618.5 c 128,-1,22
 592 686 592 686 504 686 c 256,23,24
 416 686 416 686 356 618.5 c 128,-1,25
 296 551 296 551 296 425 c 0,14,15
EndSplineSet
EndChar

StartChar: p
Encoding: 112 112 74
Width: 1001
Flags: W
LayerCount: 2
Fore
SplineSet
111 850 m 1,0,-1
 321 850 l 1,1,-1
 321 725 l 1,2,3
 362 789 362 789 431.5 829 c 128,-1,4
 501 869 501 869 586 869 c 0,5,6
 734 869 734 869 837 753 c 128,-1,7
 940 637 940 637 940 430 c 0,8,9
 940 217 940 217 836 99 c 128,-1,10
 732 -19 732 -19 584 -19 c 0,11,12
 514 -19 514 -19 456.5 9 c 128,-1,13
 399 37 399 37 336 105 c 1,14,-1
 336 -323 l 1,15,-1
 111 -323 l 1,16,-1
 111 850 l 1,0,-1
334 439 m 0,17,18
 334 296 334 296 390.5 227.5 c 128,-1,19
 447 159 447 159 529 159 c 0,20,21
 607 159 607 159 659 222 c 128,-1,22
 711 285 711 285 711 428 c 0,23,24
 711 562 711 562 657.5 626.5 c 128,-1,25
 604 691 604 691 525 691 c 0,26,27
 442 691 442 691 388 627.5 c 128,-1,28
 334 564 334 564 334 439 c 0,17,18
EndSplineSet
EndChar

StartChar: q
Encoding: 113 113 75
Width: 1001
Flags: W
LayerCount: 2
Fore
SplineSet
673 -323 m 1,0,-1
 673 104 l 1,1,2
 629 47 629 47 563.5 14 c 128,-1,3
 498 -19 498 -19 422 -19 c 0,4,5
 277 -19 277 -19 183 90 c 0,6,7
 73 217 73 217 73 434 c 0,8,9
 73 639 73 639 176.5 754 c 128,-1,10
 280 869 280 869 434 869 c 0,11,12
 518 869 518 869 580 833 c 128,-1,13
 642 797 642 797 690 724 c 1,14,-1
 690 850 l 1,15,-1
 898 850 l 1,16,-1
 898 -323 l 1,17,-1
 673 -323 l 1,0,-1
680 435 m 0,18,19
 680 566 680 566 627 629.5 c 128,-1,20
 574 693 574 693 494 693 c 0,21,22
 412 693 412 693 357 628 c 128,-1,23
 302 563 302 563 302 422 c 0,24,25
 302 282 302 282 355 220 c 128,-1,26
 408 158 408 158 486 158 c 0,27,28
 563 158 563 158 621.5 228 c 128,-1,29
 680 298 680 298 680 435 c 0,18,19
EndSplineSet
EndChar

StartChar: r
Encoding: 114 114 76
Width: 638
Flags: W
LayerCount: 2
Fore
SplineSet
333 0 m 1,0,-1
 108 0 l 1,1,-1
 108 850 l 1,2,-1
 317 850 l 1,3,-1
 317 729 l 1,4,5
 370 814 370 814 413 841.5 c 128,-1,6
 456 869 456 869 510 869 c 0,7,8
 587 869 587 869 658 826 c 1,9,-1
 589 630 l 1,10,11
 532 667 532 667 483 667 c 0,12,13
 436 667 436 667 403 641 c 128,-1,14
 370 615 370 615 351.5 547 c 128,-1,15
 333 479 333 479 333 262 c 2,16,-1
 333 0 l 1,0,-1
EndSplineSet
EndChar

StartChar: s
Encoding: 115 115 77
Width: 911
Flags: W
LayerCount: 2
Fore
SplineSet
38 242 m 1,0,-1
 264 277 l 1,1,2
 278 211 278 211 322 177 c 128,-1,3
 366 143 366 143 446 143 c 0,4,5
 533 143 533 143 577 175 c 0,6,7
 606 198 606 198 606 235 c 0,8,9
 606 261 606 261 590 278 c 0,10,11
 574 294 574 294 515 307 c 0,12,13
 243 367 243 367 170 417 c 0,14,15
 70 486 70 486 70 608 c 0,16,17
 70 718 70 718 157 793.5 c 128,-1,18
 244 869 244 869 427 869 c 0,19,20
 602 869 602 869 686.5 812 c 128,-1,21
 771 755 771 755 803 644 c 1,22,-1
 591 605 l 1,23,24
 578 654 578 654 540 680.5 c 128,-1,25
 502 707 502 707 431 707 c 0,26,27
 342 707 342 707 304 682 c 0,28,29
 278 665 278 665 278 637 c 0,30,31
 278 613 278 613 301 596 c 0,32,33
 331 574 331 574 510.5 533 c 128,-1,34
 690 492 690 492 762 433 c 0,35,36
 832 373 832 373 832 266 c 0,37,38
 832 149 832 149 734.5 65 c 128,-1,39
 637 -19 637 -19 446 -19 c 0,40,41
 272 -19 272 -19 171 51.5 c 128,-1,42
 70 122 70 122 38 242 c 1,0,-1
EndSplineSet
EndChar

StartChar: t
Encoding: 116 116 78
Width: 546
Flags: W
LayerCount: 2
Fore
SplineSet
507 850 m 1,0,-1
 507 670 l 1,1,-1
 354 670 l 1,2,-1
 354 328 l 2,3,4
 354 224 354 224 358 207 c 128,-1,5
 362 190 362 190 378 178.5 c 128,-1,6
 394 167 394 167 416 167 c 0,7,8
 447 167 447 167 506 189 c 1,9,-1
 526 14 l 1,10,11
 447 -19 447 -19 348 -19 c 0,12,13
 287 -19 287 -19 238.5 1.5 c 128,-1,14
 190 22 190 22 167 54 c 128,-1,15
 144 86 144 86 135 142 c 0,16,17
 128 181 128 181 128 300 c 2,18,-1
 128 670 l 1,19,-1
 25 670 l 1,20,-1
 25 850 l 1,21,-1
 128 850 l 1,22,-1
 128 1018 l 1,23,-1
 354 1150 l 1,24,-1
 354 850 l 1,25,-1
 507 850 l 1,0,-1
EndSplineSet
EndChar

StartChar: u
Encoding: 117 117 79
Width: 1001
Flags: W
LayerCount: 2
Fore
SplineSet
677 0 m 1,0,-1
 677 127 l 1,1,2
 630 59 630 59 554.5 20 c 128,-1,3
 479 -19 479 -19 395 -19 c 0,4,5
 310 -19 310 -19 242 18.5 c 128,-1,6
 174 56 174 56 143.5 124 c 128,-1,7
 113 192 113 192 113 312 c 2,8,-1
 113 850 l 1,9,-1
 338 850 l 1,10,-1
 338 459 l 2,11,12
 338 280 338 280 350 239.5 c 128,-1,13
 362 199 362 199 395 175.5 c 128,-1,14
 428 152 428 152 478 152 c 0,15,16
 536 152 536 152 581.5 183.5 c 128,-1,17
 627 215 627 215 644 262 c 128,-1,18
 661 309 661 309 661 491 c 2,19,-1
 661 850 l 1,20,-1
 886 850 l 1,21,-1
 886 0 l 1,22,-1
 677 0 l 1,0,-1
EndSplineSet
EndChar

StartChar: v
Encoding: 118 118 80
Width: 911
Flags: W
LayerCount: 2
Fore
SplineSet
351 0 m 1,0,-1
 9 850 l 1,1,-1
 245 850 l 1,2,-1
 405 416 l 1,3,-1
 451 271 l 1,4,5
 470 326 470 326 474 344 c 0,6,7
 486 380 486 380 498 416 c 2,8,-1
 660 850 l 1,9,-1
 891 850 l 1,10,-1
 554 0 l 1,11,-1
 351 0 l 1,0,-1
EndSplineSet
EndChar

StartChar: w
Encoding: 119 119 81
Width: 1274
Flags: W
LayerCount: 2
Fore
SplineSet
276 0 m 1,0,-1
 7 850 l 1,1,-1
 226 850 l 1,2,-1
 385 293 l 1,3,-1
 531 850 l 1,4,-1
 748 850 l 1,5,-1
 890 293 l 1,6,-1
 1052 850 l 1,7,-1
 1274 850 l 1,8,-1
 1001 0 l 1,9,-1
 785 0 l 1,10,-1
 638 546 l 1,11,-1
 494 0 l 1,12,-1
 276 0 l 1,0,-1
EndSplineSet
EndChar

StartChar: x
Encoding: 120 120 82
Width: 911
Flags: W
LayerCount: 2
Fore
SplineSet
10 0 m 1,0,-1
 316 438 l 1,1,-1
 22 850 l 1,2,-1
 297 850 l 1,3,-1
 447 616 l 1,4,-1
 606 850 l 1,5,-1
 870 850 l 1,6,-1
 582 447 l 1,7,-1
 896 0 l 1,8,-1
 620 0 l 1,9,-1
 447 263 l 1,10,-1
 273 0 l 1,11,-1
 10 0 l 1,0,-1
EndSplineSet
EndChar

StartChar: y
Encoding: 121 121 83
Width: 911
Flags: W
LayerCount: 2
Fore
SplineSet
11 850 m 1,0,-1
 250 850 l 1,1,-1
 454 246 l 1,2,-1
 652 850 l 1,3,-1
 885 850 l 1,4,-1
 585 32 l 1,5,-1
 531 -116 l 2,6,7
 502 -190 502 -190 475 -229.5 c 128,-1,8
 448 -269 448 -269 413 -293.5 c 128,-1,9
 378 -318 378 -318 327.5 -331.5 c 128,-1,10
 277 -345 277 -345 213 -345 c 0,11,12
 148 -345 148 -345 86 -331 c 1,13,-1
 66 -155 l 1,14,15
 118 -166 118 -166 161 -166 c 0,16,17
 239 -166 239 -166 276.5 -120 c 128,-1,18
 314 -74 314 -74 334 -2 c 1,19,-1
 11 850 l 1,0,-1
EndSplineSet
EndChar

StartChar: z
Encoding: 122 122 84
Width: 819
Flags: W
LayerCount: 2
Fore
SplineSet
27 0 m 1,0,-1
 27 175 l 1,1,-1
 346 541 l 2,2,3
 424 630 424 630 462 668 c 1,4,5
 422 666 422 666 358 665 c 2,6,-1
 58 663 l 1,7,-1
 58 850 l 1,8,-1
 761 850 l 1,9,-1
 761 690 l 1,10,-1
 436 316 l 1,11,-1
 322 192 l 1,12,13
 415 198 415 198 438 198 c 2,14,-1
 786 198 l 1,15,-1
 786 0 l 1,16,-1
 27 0 l 1,0,-1
EndSplineSet
EndChar

StartChar: braceleft
Encoding: 123 123 85
Width: 638
Flags: W
LayerCount: 2
Fore
SplineSet
48 328 m 1,0,-1
 48 520 l 1,1,2
 106 523 106 523 136 537.5 c 128,-1,3
 166 552 166 552 187.5 586 c 128,-1,4
 209 620 209 620 217 671 c 0,5,6
 223 710 223 710 223 805 c 0,7,8
 223 960 223 960 237.5 1021 c 128,-1,9
 252 1082 252 1082 289.5 1119.5 c 128,-1,10
 327 1157 327 1157 399 1178 c 0,11,12
 448 1193 448 1193 553 1193 c 2,13,-1
 595 1193 l 1,14,-1
 595 1002 l 1,15,16
 506 1002 506 1002 481 992 c 128,-1,17
 456 982 456 982 444 961.5 c 128,-1,18
 432 941 432 941 432 891 c 256,19,20
 432 841 432 841 425 700 c 0,21,22
 421 621 421 621 404 571.5 c 128,-1,23
 387 522 387 522 361 490 c 128,-1,24
 335 458 335 458 282 424 c 1,25,26
 329 397 329 397 359 360.5 c 128,-1,27
 389 324 389 324 405 272 c 128,-1,28
 421 220 421 220 426 133 c 0,29,30
 431 0 431 0 431 -37 c 0,31,32
 431 -90 431 -90 444 -110.5 c 128,-1,33
 457 -131 457 -131 483 -142 c 128,-1,34
 509 -153 509 -153 595 -153 c 1,35,-1
 595 -345 l 1,36,-1
 553 -345 l 2,37,38
 445 -345 445 -345 387.5 -327.5 c 128,-1,39
 330 -310 330 -310 290 -270 c 128,-1,40
 250 -230 250 -230 236.5 -171.5 c 128,-1,41
 223 -113 223 -113 223 14 c 0,42,43
 223 161 223 161 210 205 c 0,44,45
 193 269 193 269 157.5 296.5 c 128,-1,46
 122 324 122 324 48 328 c 1,0,-1
EndSplineSet
EndChar

StartChar: bar
Encoding: 124 124 86
Width: 458
Flags: W
LayerCount: 2
Fore
SplineSet
141 -345 m 1,0,-1
 141 1193 l 1,1,-1
 319 1193 l 1,2,-1
 319 -345 l 1,3,-1
 141 -345 l 1,0,-1
EndSplineSet
EndChar

StartChar: asciitilde
Encoding: 126 126 87
Width: 957
Flags: W
LayerCount: 2
Fore
SplineSet
54 415 m 1,0,-1
 54 622 l 1,1,2
 155 733 155 733 290 733 c 0,3,4
 341 733 341 733 383.5 723 c 128,-1,5
 426 713 426 713 536 668.5 c 128,-1,6
 646 624 646 624 685 624 c 0,7,8
 730 624 730 624 788.5 651.5 c 128,-1,9
 847 679 847 679 903 739 c 1,10,-1
 903 523 l 1,11,12
 866 485 866 485 800 451.5 c 128,-1,13
 734 418 734 418 664 418 c 0,14,15
 624 418 624 418 586 427.5 c 128,-1,16
 548 437 548 437 466 473 c 0,17,18
 342 526 342 526 272 526 c 0,19,20
 160 526 160 526 54 415 c 1,0,-1
EndSplineSet
EndChar

StartChar: ccedilla
Encoding: 231 231 90
Width: 805
Flags: W
LayerCount: 2
Fore
SplineSet
775 198 m 1,0,-1
 764 142 l 1,1,2
 616 37 616 37 445 -9 c 1,3,-1
 408 -65 l 1,4,5
 481 -86 481 -86 481 -146 c 0,6,7
 481 -197 481 -197 424.5 -240.5 c 128,-1,8
 368 -284 368 -284 301 -284 c 0,9,10
 272 -284 272 -284 232 -277 c 1,11,-1
 287 -201 l 1,12,13
 322 -223 322 -223 348 -223 c 0,14,15
 412 -223 412 -223 412 -172 c 0,16,17
 412 -117 412 -117 311 -111 c 1,18,-1
 376 -19 l 1,19,20
 145 5 145 5 145 228 c 0,21,22
 145 445 145 445 302 622 c 128,-1,23
 459 799 459 799 652 799 c 0,24,25
 736 799 736 799 819 762 c 1,26,-1
 770 578 l 1,27,-1
 725 578 l 1,28,-1
 728 589 l 2,29,30
 735 622 735 622 735 638 c 0,31,32
 735 737 735 737 599 737 c 0,33,34
 475 737 475 737 382.5 595 c 128,-1,35
 290 453 290 453 290 263 c 0,36,37
 290 62 290 62 446 62 c 0,38,39
 563 62 563 62 775 198 c 1,0,-1
EndSplineSet
EndChar

StartChar: icircumflex
Encoding: 238 238 95
Width: 468
Flags: W
LayerCount: 2
Fore
SplineSet
328 0 m 1,0,-1
 140 0 l 1,1,-1
 140 1117 l 1,2,-1
 328 1117 l 1,3,-1
 328 0 l 1,0,-1
521 1297 m 1,4,-1
 370 1297 l 1,5,-1
 231 1560 l 1,6,-1
 93 1297 l 1,7,-1
 -54 1297 l 1,8,-1
 120 1676 l 1,9,-1
 347 1676 l 1,10,-1
 521 1297 l 1,4,-1
EndSplineSet
EndChar

StartChar: idieresis
Encoding: 239 239 96
Width: 468
Flags: W
LayerCount: 2
Fore
SplineSet
328 0 m 1,0,-1
 140 0 l 1,1,-1
 140 1117 l 1,2,-1
 328 1117 l 1,3,-1
 328 0 l 1,0,-1
506 1304 m 1,4,-1
 317 1304 l 1,5,-1
 317 1499 l 1,6,-1
 506 1499 l 1,7,-1
 506 1304 l 1,4,-1
151 1304 m 1,8,-1
 -38 1304 l 1,9,-1
 -38 1499 l 1,10,-1
 151 1499 l 1,11,-1
 151 1304 l 1,8,-1
EndSplineSet
EndChar

StartChar: dagger
Encoding: 8224 8224 101
Width: 932
Flags: W
LayerCount: 2
Fore
SplineSet
347 -231 m 1,0,-1
 567 622 l 1,1,-1
 248 592 l 1,2,-1
 297 700 l 1,3,-1
 576 668 l 1,4,-1
 607 1066 l 1,5,-1
 755 1093 l 1,6,-1
 621 668 l 1,7,-1
 941 700 l 1,8,-1
 895 592 l 1,9,-1
 612 622 l 1,10,-1
 496 -213 l 1,11,-1
 347 -231 l 1,0,-1
EndSplineSet
EndChar

StartChar: degree
Encoding: 176 176 102
Width: 409
Flags: W
LayerCount: 2
Fore
SplineSet
395 844 m 0,0,1
 344 844 344 844 307.5 880 c 128,-1,2
 271 916 271 916 271 968 c 0,3,4
 271 1021 271 1021 307.5 1057 c 128,-1,5
 344 1093 344 1093 395 1093 c 0,6,7
 447 1093 447 1093 483 1057 c 128,-1,8
 519 1021 519 1021 519 968 c 0,9,10
 519 916 519 916 483 880 c 128,-1,11
 447 844 447 844 395 844 c 0,0,1
395 888 m 256,12,13
 427 888 427 888 450.5 912 c 128,-1,14
 474 936 474 936 474 968 c 256,15,16
 474 1000 474 1000 450.5 1024 c 128,-1,17
 427 1048 427 1048 395 1048 c 256,18,19
 363 1048 363 1048 339 1024 c 128,-1,20
 315 1000 315 1000 315 968 c 256,21,22
 315 936 315 936 339 912 c 128,-1,23
 363 888 363 888 395 888 c 256,12,13
EndSplineSet
EndChar

StartChar: cent
Encoding: 162 162 103
Width: 693
Flags: W
LayerCount: 2
Fore
SplineSet
365 -18 m 1,0,-1
 404 176 l 1,1,2
 142 195 142 195 142 355 c 0,3,4
 142 459 142 459 242 534.5 c 128,-1,5
 342 610 342 610 492 622 c 1,6,-1
 527 799 l 1,7,-1
 572 799 l 1,8,-1
 537 622 l 1,9,10
 637 617 637 617 715 601 c 1,11,-1
 689 471 l 1,12,-1
 644 471 l 1,13,14
 644 477 644 477 645 488 c 0,15,16
 648 509 648 509 648 517 c 0,17,18
 648 572 648 572 528 578 c 1,19,-1
 459 229 l 1,20,21
 567 229 567 229 661 280 c 1,22,-1
 650 229 l 1,23,24
 544 176 544 176 448 176 c 1,25,-1
 409 -18 l 1,26,-1
 365 -18 l 1,0,-1
415 232 m 1,27,-1
 484 578 l 1,28,29
 272 547 272 547 272 383 c 0,30,31
 272 255 272 255 415 232 c 1,27,-1
EndSplineSet
EndChar

StartChar: sterling
Encoding: 163 163 104
Width: 874
Flags: W
LayerCount: 2
Fore
SplineSet
17 0 m 1,0,-1
 109 88 l 1,1,-1
 122 88 l 2,2,3
 229 88 229 88 272.5 136.5 c 128,-1,4
 316 185 316 185 347 343 c 2,5,-1
 356 391 l 1,6,-1
 196 391 l 1,7,-1
 205 436 l 1,8,-1
 365 436 l 1,9,-1
 378 499 l 2,10,11
 407 642 407 642 496.5 721 c 128,-1,12
 586 800 586 800 718 800 c 0,13,14
 797 800 797 800 892 765 c 1,15,-1
 858 586 l 1,16,-1
 808 586 l 1,17,-1
 810 598 l 2,18,19
 812 608 812 608 812 620 c 0,20,21
 812 746 812 746 679 746 c 0,22,23
 614 746 614 746 584.5 710 c 128,-1,24
 555 674 555 674 535 569 c 2,25,-1
 508 436 l 1,26,-1
 748 436 l 1,27,-1
 739 391 l 1,28,-1
 499 391 l 1,29,-1
 492 359 l 2,30,31
 473 265 473 265 427.5 208 c 128,-1,32
 382 151 382 151 275 88 c 1,33,-1
 480 88 l 2,34,35
 617 88 617 88 679 102.5 c 128,-1,36
 741 117 741 117 819 167 c 1,37,-1
 808 113 l 1,38,39
 735 35 735 35 665.5 7.5 c 128,-1,40
 596 -20 596 -20 470 -20 c 1,41,-1
 442 -19 l 1,42,-1
 17 0 l 1,0,-1
EndSplineSet
EndChar

StartChar: section
Encoding: 167 167 105
Width: 932
Flags: W
LayerCount: 2
Fore
SplineSet
107 -153 m 1,0,-1
 232 -80 l 1,1,2
 348 -178 348 -178 481 -178 c 0,3,4
 564 -178 564 -178 621.5 -127.5 c 128,-1,5
 679 -77 679 -77 679 -5 c 0,6,7
 679 48 679 48 645.5 80.5 c 128,-1,8
 612 113 612 113 513 160 c 2,9,-1
 440 193 l 2,10,11
 247 283 247 283 247 409 c 0,12,13
 247 528 247 528 409 652 c 1,14,15
 328 717 328 717 328 815 c 0,16,17
 328 938 328 938 440 1015.5 c 128,-1,18
 552 1093 552 1093 727 1093 c 0,19,20
 814 1093 814 1093 933 1060 c 1,21,-1
 897 879 l 1,22,-1
 853 879 l 1,23,24
 857 904 857 904 857 916 c 0,25,26
 857 1039 857 1039 652 1039 c 0,27,28
 560 1039 560 1039 500.5 987 c 128,-1,29
 441 935 441 935 441 853 c 0,30,31
 441 798 441 798 466 774.5 c 128,-1,32
 491 751 491 751 613 686 c 2,33,-1
 674 652 l 2,34,35
 854 553 854 553 854 444 c 0,36,37
 854 319 854 319 703 200 c 1,38,39
 801 136 801 136 801 40 c 0,40,41
 801 -75 801 -75 684.5 -153 c 128,-1,42
 568 -231 568 -231 397 -231 c 0,43,44
 244 -231 244 -231 107 -153 c 1,0,-1
667 229 m 1,45,46
 747 319 747 319 747 394 c 0,47,48
 747 470 747 470 628 527 c 2,49,-1
 558 562 l 2,50,51
 495 593 495 593 445 625 c 1,52,53
 355 545 355 545 355 456 c 0,54,55
 355 382 355 382 474 326 c 2,56,-1
 571 279 l 2,57,58
 607 263 607 263 667 229 c 1,45,46
EndSplineSet
EndChar

StartChar: bullet
Encoding: 8226 8226 106
Width: 931
Flags: W
LayerCount: 2
Fore
SplineSet
817 662 m 256,0,1
 817 517 817 517 713.5 414 c 128,-1,2
 610 311 610 311 465 311 c 256,3,4
 320 311 320 311 217 414 c 128,-1,5
 114 517 114 517 114 662 c 256,6,7
 114 807 114 807 217 910 c 128,-1,8
 320 1013 320 1013 465 1013 c 256,9,10
 610 1013 610 1013 713.5 910 c 128,-1,11
 817 807 817 807 817 662 c 256,0,1
EndSplineSet
EndChar

StartChar: paragraph
Encoding: 182 182 107
Width: 932
Flags: W
LayerCount: 2
Fore
SplineSet
365 -239 m 1,0,-1
 511 496 l 1,1,2
 241 542 241 542 241 747 c 0,3,4
 241 876 241 876 346.5 968 c 128,-1,5
 452 1060 452 1060 628 1085 c 1,6,-1
 660 1244 l 1,7,-1
 704 1244 l 1,8,-1
 673 1085 l 1,9,-1
 703 1086 l 2,10,11
 744 1086 744 1086 796 1080 c 1,12,-1
 828 1244 l 1,13,-1
 873 1244 l 1,14,-1
 839 1071 l 1,15,16
 891 1057 891 1057 948 1036 c 1,17,-1
 938 988 l 1,18,19
 898 1005 898 1005 830 1024 c 1,20,-1
 742 586 l 1,21,22
 794 603 794 603 869 643 c 1,23,-1
 859 586 l 1,24,25
 794 549 794 549 732 530 c 1,26,-1
 578 -239 l 1,27,-1
 534 -239 l 1,28,-1
 684 514 l 1,29,30
 597 496 597 496 556 496 c 1,31,-1
 409 -239 l 1,32,-1
 365 -239 l 1,0,-1
695 568 m 1,33,-1
 787 1031 l 1,34,35
 738 1040 738 1040 704 1040 c 0,36,37
 691 1040 691 1040 664 1039 c 1,38,-1
 567 553 l 1,39,40
 625 553 625 553 695 568 c 1,33,-1
EndSplineSet
EndChar

StartChar: registered
Encoding: 174 174 108
Width: 897
Flags: W
LayerCount: 2
Fore
SplineSet
580 445 m 0,0,1
 448 445 448 445 354.5 538.5 c 128,-1,2
 261 632 261 632 261 764 c 256,3,4
 261 896 261 896 354.5 990 c 128,-1,5
 448 1084 448 1084 580 1084 c 0,6,7
 714 1084 714 1084 807 990 c 128,-1,8
 900 896 900 896 900 764 c 256,9,10
 900 632 900 632 806.5 538.5 c 128,-1,11
 713 445 713 445 580 445 c 0,0,1
580 484 m 0,12,13
 695 484 695 484 777.5 567 c 128,-1,14
 860 650 860 650 860 764 c 256,15,16
 860 878 860 878 777.5 961 c 128,-1,17
 695 1044 695 1044 580 1044 c 0,18,19
 466 1044 466 1044 383.5 961 c 128,-1,20
 301 878 301 878 301 764 c 256,21,22
 301 650 301 650 383.5 567 c 128,-1,23
 466 484 466 484 580 484 c 0,12,13
529 737 m 1,24,-1
 501 596 l 1,25,-1
 394 596 l 1,26,-1
 403 639 l 1,27,-1
 456 639 l 1,28,-1
 511 915 l 1,29,-1
 458 915 l 1,30,-1
 466 959 l 1,31,-1
 598 959 l 2,32,33
 751 959 751 959 751 875 c 0,34,35
 751 800 751 800 650 750 c 1,36,-1
 685 639 l 1,37,-1
 747 639 l 1,38,-1
 738 596 l 1,39,-1
 641 596 l 1,40,-1
 591 737 l 1,41,-1
 529 737 l 1,24,-1
538 782 m 1,42,-1
 574 782 l 2,43,44
 697 782 697 782 697 866 c 0,45,46
 697 915 697 915 607 915 c 2,47,-1
 564 915 l 1,48,-1
 538 782 l 1,42,-1
EndSplineSet
EndChar

StartChar: copyright
Encoding: 169 169 109
Width: 1244
Flags: W
LayerCount: 2
Fore
SplineSet
725 -27 m 0,0,1
 495 -27 495 -27 330.5 137 c 128,-1,2
 166 301 166 301 166 533 c 256,3,4
 166 765 166 765 330.5 929 c 128,-1,5
 495 1093 495 1093 725 1093 c 0,6,7
 958 1093 958 1093 1122 929 c 128,-1,8
 1286 765 1286 765 1286 533 c 256,9,10
 1286 301 1286 301 1122 137 c 128,-1,11
 958 -27 958 -27 725 -27 c 0,0,1
725 18 m 0,12,13
 939 18 939 18 1090 169 c 128,-1,14
 1241 320 1241 320 1241 533 c 256,15,16
 1241 746 1241 746 1090 897 c 128,-1,17
 939 1048 939 1048 725 1048 c 0,18,19
 513 1048 513 1048 362 897 c 128,-1,20
 211 746 211 746 211 533 c 256,21,22
 211 320 211 320 362 169 c 128,-1,23
 513 18 513 18 725 18 c 0,12,13
890 246 m 1,24,25
 785 213 785 213 704 213 c 0,26,27
 580 213 580 213 508 279.5 c 128,-1,28
 436 346 436 346 436 462 c 0,29,30
 436 625 436 625 541 734.5 c 128,-1,31
 646 844 646 844 805 844 c 0,32,33
 896 844 896 844 1003 814 c 1,34,-1
 967 675 l 1,35,-1
 915 684 l 1,36,-1
 923 766 l 1,37,38
 854 798 854 798 792 798 c 0,39,40
 688 798 688 798 616 700 c 128,-1,41
 544 602 544 602 544 462 c 0,42,43
 544 271 544 271 722 271 c 0,44,45
 823 271 823 271 902 307 c 1,46,-1
 890 246 l 1,24,25
EndSplineSet
EndChar

StartChar: trademark
Encoding: 8482 8482 110
Width: 1333
Flags: W
LayerCount: 2
Fore
SplineSet
440 1021 m 1,0,-1
 307 1021 l 1,1,-1
 288 923 l 1,2,-1
 225 923 l 1,3,-1
 254 1066 l 1,4,-1
 751 1066 l 1,5,-1
 723 923 l 1,6,-1
 661 923 l 1,7,-1
 679 1021 l 1,8,-1
 546 1021 l 1,9,-1
 456 569 l 1,10,-1
 554 569 l 1,11,-1
 545 524 l 1,12,-1
 243 524 l 1,13,-1
 253 569 l 1,14,-1
 350 569 l 1,15,-1
 440 1021 l 1,0,-1
1011 569 m 1,16,-1
 942 956 l 1,17,-1
 857 524 l 1,18,-1
 688 524 l 1,19,-1
 697 569 l 1,20,-1
 794 569 l 1,21,-1
 884 1021 l 1,22,-1
 787 1021 l 1,23,-1
 796 1066 l 1,24,-1
 1036 1066 l 1,25,-1
 1092 747 l 1,26,-1
 1265 1066 l 1,27,-1
 1481 1066 l 1,28,-1
 1473 1021 l 1,29,-1
 1375 1021 l 1,30,-1
 1285 569 l 1,31,-1
 1383 569 l 1,32,-1
 1373 524 l 1,33,-1
 1178 524 l 1,34,-1
 1270 985 l 1,35,-1
 1041 569 l 1,36,-1
 1011 569 l 1,16,-1
EndSplineSet
EndChar

StartChar: acute
Encoding: 180 180 111
Width: 256
Flags: W
LayerCount: 2
Fore
SplineSet
118 999 m 1,0,1
 195 1083 195 1083 192 1046 c 1,2,3
 183 1014 183 1014 135.5 924 c 128,-1,4
 88 834 88 834 66 802 c 1,5,6
 55 796 55 796 62 848 c 1,7,8
 83 919 83 919 118 999 c 1,0,1
EndSplineSet
EndChar

StartChar: dieresis
Encoding: 168 168 112
Width: 862
Flags: W
LayerCount: 2
Fore
SplineSet
495 923 m 1,0,-1
 408 1033 l 1,1,-1
 520 1119 l 1,2,-1
 607 1003 l 1,3,-1
 495 923 l 1,0,-1
841 923 m 1,4,-1
 752 1035 l 1,5,-1
 866 1119 l 1,6,-1
 951 1004 l 1,7,-1
 841 923 l 1,4,-1
EndSplineSet
EndChar

StartChar: plusminus
Encoding: 177 177 113
Width: 932
Flags: W
LayerCount: 2
Fore
SplineSet
76 0 m 1,0,-1
 92 80 l 1,1,-1
 873 80 l 1,2,-1
 858 0 l 1,3,-1
 76 0 l 1,0,-1
469 213 m 1,4,-1
 525 493 l 1,5,-1
 174 493 l 1,6,-1
 189 573 l 1,7,-1
 541 573 l 1,8,-1
 596 852 l 1,9,-1
 676 852 l 1,10,-1
 621 573 l 1,11,-1
 971 573 l 1,12,-1
 956 493 l 1,13,-1
 605 493 l 1,14,-1
 549 213 l 1,15,-1
 469 213 l 1,4,-1
EndSplineSet
EndChar

StartChar: yen
Encoding: 165 165 114
Width: 965
Flags: W
LayerCount: 2
Fore
SplineSet
156 0 m 1,0,-1
 247 99 l 1,1,2
 269 97 269 97 279 97 c 0,3,4
 415 97 415 97 477 257 c 1,5,-1
 272 257 l 1,6,-1
 280 301 l 1,7,-1
 489 301 l 1,8,9
 495 346 495 346 499 409 c 1,10,-1
 301 409 l 1,11,-1
 310 453 l 1,12,-1
 499 453 l 1,13,14
 499 465 499 465 499 470 c 0,15,16
 499 567 499 567 463.5 631 c 128,-1,17
 428 695 428 695 375 695 c 256,18,19
 322 695 322 695 250 638 c 128,-1,20
 178 581 178 581 139 509 c 1,21,-1
 106 534 l 1,22,23
 172 650 172 650 268.5 724.5 c 128,-1,24
 365 799 365 799 452 799 c 0,25,26
 612 799 612 799 612 518 c 1,27,-1
 611 472 l 1,28,29
 736 799 736 799 971 799 c 0,30,31
 1045 799 1045 799 1100 765 c 1,32,-1
 1016 653 l 1,33,34
 967 684 967 684 915 684 c 0,35,36
 742 684 742 684 651 453 c 1,37,-1
 835 453 l 1,38,-1
 826 409 l 1,39,-1
 643 409 l 1,40,-1
 634 369 l 2,41,42
 627 335 627 335 609 301 c 1,43,-1
 805 301 l 1,44,-1
 796 257 l 1,45,-1
 585 257 l 1,46,47
 519 138 519 138 389 91 c 1,48,-1
 624 77 l 1,49,-1
 534 -18 l 1,50,-1
 156 0 l 1,0,-1
EndSplineSet
EndChar

StartChar: mu1
Encoding: 181 181 115
Width: 992
Flags: W
LayerCount: 2
Fore
SplineSet
100 -302 m 1,0,-1
 155 -76 l 1,1,-1
 270 500 l 2,2,3
 282 560 282 560 282 611 c 0,4,5
 282 693 282 693 206 782 c 1,6,-1
 368 790 l 1,7,8
 427 740 427 740 427 623 c 0,9,10
 427 576 427 576 409 481 c 2,11,-1
 355 213 l 2,12,13
 347 176 347 176 347 161 c 0,14,15
 347 106 347 106 391 106 c 0,16,17
 446 106 446 106 553.5 229 c 128,-1,18
 661 352 661 352 753 519 c 1,19,-1
 805 782 l 1,20,-1
 958 790 l 1,21,-1
 905 569 l 1,22,-1
 834 213 l 2,23,24
 818 132 818 132 818 106 c 0,25,26
 818 53 818 53 861 53 c 0,27,28
 931 53 931 53 1075 218 c 1,29,-1
 1062 151 l 1,30,31
 905 -18 905 -18 779 -18 c 0,32,33
 675 -18 675 -18 675 91 c 0,34,35
 675 128 675 128 692 213 c 2,36,-1
 727 391 l 1,37,-1
 717 391 l 1,38,39
 517 0 517 0 312 0 c 1,40,-1
 255 -284 l 1,41,-1
 100 -302 l 1,0,-1
EndSplineSet
EndChar

StartChar: logicalnot
Encoding: 172 172 116
Width: 932
Flags: W
LayerCount: 2
Fore
SplineSet
177 510 m 1,0,-1
 193 590 l 1,1,-1
 975 590 l 1,2,-1
 906 248 l 1,3,-1
 814 248 l 1,4,-1
 866 510 l 1,5,-1
 177 510 l 1,0,-1
EndSplineSet
EndChar

StartChar: florin
Encoding: 402 402 117
Width: 679
Flags: W
LayerCount: 2
Fore
SplineSet
158 -231 m 1,0,-1
 210 -18 l 1,1,-1
 286 364 l 1,2,-1
 108 364 l 1,3,-1
 117 409 l 1,4,-1
 294 409 l 1,5,-1
 298 427 l 2,6,7
 330 586 330 586 463 692.5 c 128,-1,8
 596 799 596 799 761 799 c 0,9,10
 818 799 818 799 860 784 c 1,11,-1
 764 678 l 1,12,13
 712 729 712 729 643 729 c 0,14,15
 500 729 500 729 457 512 c 2,16,-1
 436 409 l 1,17,-1
 623 409 l 1,18,-1
 614 364 l 1,19,-1
 427 364 l 1,20,-1
 313 -213 l 1,21,-1
 158 -231 l 1,0,-1
EndSplineSet
EndChar

StartChar: ellipsis
Encoding: 8230 8230 118
Width: 1474
Flags: W
LayerCount: 2
Fore
SplineSet
178 0 m 1,0,-1
 206 142 l 1,1,-1
 348 142 l 1,2,-1
 319 0 l 1,3,-1
 178 0 l 1,0,-1
667 0 m 1,4,-1
 695 142 l 1,5,-1
 837 142 l 1,6,-1
 808 0 l 1,7,-1
 667 0 l 1,4,-1
1155 0 m 1,8,-1
 1183 142 l 1,9,-1
 1326 142 l 1,10,-1
 1297 0 l 1,11,-1
 1155 0 l 1,8,-1
EndSplineSet
EndChar

StartChar: OE
Encoding: 338 338 119
Width: 1477
Flags: W
LayerCount: 2
Fore
SplineSet
816 0 m 1,0,-1
 831 70 l 1,1,2
 711 -27 711 -27 549 -27 c 0,3,4
 371 -27 371 -27 269 81 c 128,-1,5
 167 189 167 189 167 378 c 0,6,7
 167 661 167 661 358 877 c 128,-1,8
 549 1093 549 1093 799 1093 c 0,9,10
 931 1093 931 1093 1017 1007 c 1,11,-1
 1029 1066 l 1,12,-1
 1593 1066 l 1,13,-1
 1529 862 l 1,14,-1
 1484 862 l 1,15,16
 1490 891 1490 891 1490 913 c 0,17,18
 1490 969 1490 969 1424.5 990.5 c 128,-1,19
 1359 1012 1359 1012 1187 1012 c 2,20,-1
 1165 1012 l 1,21,-1
 1082 586 l 1,22,-1
 1402 586 l 1,23,-1
 1329 512 l 1,24,25
 1165 533 1165 533 1107 533 c 2,26,-1
 1071 533 l 1,27,-1
 1012 218 l 2,28,29
 1002 167 1002 167 1002 156 c 0,30,31
 1002 80 1002 80 1228 80 c 0,32,33
 1348 80 1348 80 1453 160 c 1,34,-1
 1442 103 l 1,35,36
 1318 -23 1318 -23 1203 -23 c 0,37,38
 1183 -23 1183 -23 1161 -21 c 2,39,-1
 816 0 l 1,0,-1
888 361 m 2,40,-1
 961 723 l 2,41,42
 974 786 974 786 974 841 c 0,43,44
 974 933 974 933 916.5 990.5 c 128,-1,45
 859 1048 859 1048 769 1048 c 0,46,47
 604 1048 604 1048 466.5 844 c 128,-1,48
 329 640 329 640 329 395 c 0,49,50
 329 218 329 218 396.5 117.5 c 128,-1,51
 464 17 464 17 585 17 c 0,52,53
 818 17 818 17 888 361 c 2,40,-1
EndSplineSet
EndChar

StartChar: oe
Encoding: 339 339 120
Width: 1350
Flags: W
LayerCount: 2
Fore
SplineSet
706 145 m 1,0,1
 535 -18 535 -18 370 -18 c 0,2,3
 273 -18 273 -18 209 55 c 128,-1,4
 145 128 145 128 145 237 c 0,5,6
 145 448 145 448 302.5 623.5 c 128,-1,7
 460 799 460 799 650 799 c 0,8,9
 794 799 794 799 859 630 c 1,10,11
 1025 799 1025 799 1183 799 c 0,12,13
 1246 799 1246 799 1286.5 758 c 128,-1,14
 1327 717 1327 717 1327 651 c 0,15,16
 1327 508 1327 508 1192.5 414 c 128,-1,17
 1058 320 1058 320 841 311 c 1,18,-1
 840 278 l 1,19,20
 840 66 840 66 998 66 c 0,21,22
 1113 66 1113 66 1327 200 c 1,23,-1
 1316 146 l 1,24,25
 1083 -18 1083 -18 917 -18 c 0,26,27
 758 -18 758 -18 706 145 c 1,0,1
431 35 m 0,28,29
 544 35 544 35 636 178.5 c 128,-1,30
 728 322 728 322 728 499 c 0,31,32
 728 607 728 607 689 672 c 128,-1,33
 650 737 650 737 584 737 c 0,34,35
 472 737 472 737 382 594 c 128,-1,36
 292 451 292 451 292 272 c 0,37,38
 292 35 292 35 431 35 c 0,28,29
844 355 m 1,39,40
 1004 368 1004 368 1097.5 438.5 c 128,-1,41
 1191 509 1191 509 1191 620 c 0,42,43
 1191 733 1191 733 1110 733 c 0,44,45
 1024 733 1024 733 941.5 616 c 128,-1,46
 859 499 859 499 844 355 c 1,39,40
EndSplineSet
EndChar

StartChar: endash
Encoding: 8211 8211 121
Width: 434
Flags: W
LayerCount: 2
Fore
SplineSet
434 154 m 1,0,-1
 0 154 l 1,1,-1
 0 234 l 1,2,-1
 434 234 l 1,3,-1
 434 154 l 1,0,-1
EndSplineSet
EndChar

StartChar: emdash
Encoding: 8212 8212 122
Width: 1862
Flags: W
LayerCount: 2
Fore
SplineSet
1866 572 m 1,0,-1
 -4 572 l 1,1,-1
 -4 732 l 1,2,-1
 1866 732 l 1,3,-1
 1866 572 l 1,0,-1
EndSplineSet
EndChar

StartChar: quotedblleft
Encoding: 8220 8220 123
Width: 662
Flags: W
LayerCount: 2
Fore
SplineSet
587 1174 m 1,0,1
 508 1159 508 1159 482 1095 c 0,2,3
 469 1062 469 1062 469 987 c 1,4,-1
 578 987 l 1,5,-1
 578 799 l 1,6,-1
 384 799 l 1,7,-1
 384 961 l 2,8,9
 384 1190 384 1190 587 1207 c 1,10,-1
 587 1174 l 1,0,1
323 1174 m 1,11,12
 244 1159 244 1159 218 1095 c 0,13,14
 205 1062 205 1062 205 987 c 1,15,-1
 314 987 l 1,16,-1
 314 799 l 1,17,-1
 120 799 l 1,18,-1
 120 961 l 2,19,20
 120 1190 120 1190 323 1207 c 1,21,-1
 323 1174 l 1,11,12
EndSplineSet
EndChar

StartChar: quotedblright
Encoding: 8221 8221 124
Width: 697
Flags: W
LayerCount: 2
Fore
SplineSet
120 832 m 1,0,1
 199 847 199 847 225 911 c 0,2,3
 238 944 238 944 238 1019 c 1,4,-1
 129 1019 l 1,5,-1
 129 1207 l 1,6,-1
 323 1207 l 1,7,-1
 323 1045 l 2,8,9
 323 816 323 816 120 799 c 1,10,-1
 120 832 l 1,0,1
384 832 m 1,11,12
 463 847 463 847 489 911 c 0,13,14
 502 944 502 944 502 1019 c 1,15,-1
 393 1019 l 1,16,-1
 393 1207 l 1,17,-1
 587 1207 l 1,18,-1
 587 1045 l 2,19,20
 587 816 587 816 384 799 c 1,21,-1
 384 832 l 1,11,12
EndSplineSet
EndChar

StartChar: divide
Encoding: 247 247 125
Width: 1093
Flags: W
LayerCount: 2
Fore
SplineSet
654 674 m 1,0,-1
 466 674 l 1,1,-1
 466 855 l 1,2,-1
 654 855 l 1,3,-1
 654 674 l 1,0,-1
933 383 m 1,4,-1
 157 383 l 1,5,-1
 157 519 l 1,6,-1
 933 519 l 1,7,-1
 933 383 l 1,4,-1
654 22 m 1,8,-1
 466 22 l 1,9,-1
 466 203 l 1,10,-1
 654 203 l 1,11,-1
 654 22 l 1,8,-1
EndSplineSet
EndChar

StartChar: lozenge
Encoding: 9674 9674 126
Width: 1118
Flags: W
LayerCount: 2
Fore
SplineSet
1003 699 m 1,0,-1
 560 197 l 1,1,-1
 117 699 l 1,2,-1
 560 1202 l 1,3,-1
 1003 699 l 1,0,-1
848 699 m 1,4,-1
 560 1036 l 1,5,-1
 271 699 l 1,6,-1
 560 364 l 1,7,-1
 848 699 l 1,4,-1
EndSplineSet
EndChar

StartChar: Euro
Encoding: 8364 8364 128
Width: 812
Flags: W
LayerCount: 2
Fore
SplineSet
210 464 m 1,0,1
 252 596 252 596 371.5 697.5 c 128,-1,2
 491 799 491 799 674 799 c 0,3,4
 773 799 773 799 885 769 c 1,5,-1
 845 624 l 1,6,-1
 795 624 l 1,7,8
 801 653 801 653 801 665 c 0,9,10
 801 701 801 701 757 726 c 128,-1,11
 713 751 713 751 649 751 c 0,12,13
 445 751 445 751 349 464 c 1,14,-1
 686 464 l 1,15,-1
 677 420 l 1,16,-1
 337 420 l 2,17,18
 335 418 335 418 332 404 c 2,19,-1
 325 365 l 1,20,-1
 325 360 l 1,21,-1
 665 360 l 1,22,-1
 656 315 l 1,23,-1
 319 315 l 1,24,-1
 319 289 l 2,25,26
 319 178 319 178 370 115.5 c 128,-1,27
 421 53 421 53 512 53 c 0,28,29
 636 53 636 53 765 135 c 1,30,-1
 755 72 l 1,31,32
 604 -18 604 -18 459 -18 c 0,33,34
 324 -18 324 -18 249.5 59 c 128,-1,35
 175 136 175 136 175 274 c 0,36,37
 175 300 175 300 175 315 c 1,38,-1
 111 315 l 1,39,-1
 120 360 l 1,40,-1
 182 360 l 1,41,-1
 182 364 l 1,42,43
 189 401 189 401 194 420 c 1,44,-1
 118 420 l 1,45,-1
 127 464 l 1,46,-1
 210 464 l 1,0,1
EndSplineSet
EndChar

StartChar: guilsinglleft
Encoding: 8249 8249 129
Width: 560
Flags: W
LayerCount: 2
Fore
SplineSet
375 71 m 1,0,1
 304 237 304 237 167 391 c 1,2,3
 358 507 358 507 437 653 c 1,4,-1
 587 711 l 1,5,6
 536 589 536 589 315 441 c 1,7,8
 423 310 423 310 499 138 c 1,9,-1
 375 71 l 1,0,1
EndSplineSet
EndChar

StartChar: guilsinglright
Encoding: 8250 8250 130
Width: 560
Flags: W
LayerCount: 2
Fore
SplineSet
339 711 m 1,0,1
 410 545 410 545 546 391 c 1,2,3
 356 275 356 275 276 128 c 1,4,-1
 128 71 l 1,5,6
 178 193 178 193 400 341 c 1,7,8
 293 470 293 470 215 643 c 1,9,-1
 339 711 l 1,0,1
EndSplineSet
EndChar

StartChar: daggerdbl
Encoding: 8225 8225 133
Width: 932
Flags: W
LayerCount: 2
Fore
SplineSet
349 -231 m 1,0,-1
 481 185 l 1,1,-1
 161 154 l 1,2,-1
 211 261 l 1,3,-1
 490 229 l 1,4,-1
 567 616 l 1,5,-1
 247 586 l 1,6,-1
 297 693 l 1,7,-1
 575 661 l 1,8,-1
 608 1066 l 1,9,-1
 758 1093 l 1,10,-1
 620 661 l 1,11,-1
 940 693 l 1,12,-1
 889 586 l 1,13,-1
 611 616 l 1,14,-1
 535 229 l 1,15,-1
 855 261 l 1,16,-1
 804 154 l 1,17,-1
 525 185 l 1,18,-1
 499 -213 l 1,19,-1
 349 -231 l 1,0,-1
EndSplineSet
EndChar

StartChar: middot.001
Encoding: 8729 8729 134
Width: 620
Flags: W
LayerCount: 2
Fore
SplineSet
429 516 m 1,0,-1
 190 516 l 1,1,-1
 190 789 l 1,2,-1
 429 789 l 1,3,-1
 429 516 l 1,0,-1
EndSplineSet
EndChar

StartChar: quotesinglbase
Encoding: 8218 8218 135
Width: 418
Flags: W
LayerCount: 2
Fore
SplineSet
103 128 m 1,0,-1
 247 231 l 1,1,-1
 353 90 l 1,2,3
 345 -56 345 -56 262.5 -134.5 c 128,-1,4
 180 -213 180 -213 36 -213 c 1,5,-1
 76 -168 l 1,6,7
 189 -158 189 -158 211 -18 c 1,8,-1
 103 128 l 1,0,-1
EndSplineSet
EndChar

StartChar: quotedblbase
Encoding: 8222 8222 136
Width: 684
Flags: W
LayerCount: 2
Fore
SplineSet
91 92 m 1,0,-1
 204 178 l 1,1,-1
 292 64 l 1,2,3
 270 -213 270 -213 31 -213 c 1,4,-1
 60 -168 l 1,5,6
 166 -148 166 -148 179 -16 c 1,7,-1
 91 92 l 1,0,-1
401 92 m 1,8,-1
 516 178 l 1,9,-1
 602 64 l 1,10,11
 581 -213 581 -213 341 -213 c 1,12,-1
 372 -168 l 1,13,14
 476 -148 476 -148 490 -16 c 1,15,-1
 401 92 l 1,8,-1
EndSplineSet
EndChar

StartChar: perthousand
Encoding: 8240 8240 137
Width: 1571
Flags: W
LayerCount: 2
Fore
SplineSet
385 533 m 0,0,1
 304 533 304 533 254.5 584.5 c 128,-1,2
 205 636 205 636 205 722 c 0,3,4
 205 865 205 865 286.5 965.5 c 128,-1,5
 368 1066 368 1066 483 1066 c 0,6,7
 567 1066 567 1066 617.5 1014.5 c 128,-1,8
 668 963 668 963 668 877 c 0,9,10
 668 733 668 733 585.5 633 c 128,-1,11
 503 533 503 533 385 533 c 0,0,1
311 715 m 0,12,13
 311 578 311 578 398 578 c 0,14,15
 463 578 463 578 517 671.5 c 128,-1,16
 571 765 571 765 571 881 c 0,17,18
 571 1022 571 1022 483 1022 c 0,19,20
 416 1022 416 1022 363.5 928 c 128,-1,21
 311 834 311 834 311 715 c 0,12,13
850 0 m 0,22,23
 769 0 769 0 719.5 51.5 c 128,-1,24
 670 103 670 103 670 189 c 0,25,26
 670 331 670 331 751 432 c 128,-1,27
 832 533 832 533 947 533 c 0,28,29
 1031 533 1031 533 1081.5 481.5 c 128,-1,30
 1132 430 1132 430 1132 344 c 0,31,32
 1132 200 1132 200 1049.5 100 c 128,-1,33
 967 0 967 0 850 0 c 0,22,23
776 182 m 0,34,35
 776 44 776 44 862 44 c 0,36,37
 929 44 929 44 982 138 c 128,-1,38
 1035 232 1035 232 1035 348 c 0,39,40
 1035 490 1035 490 948 490 c 0,41,42
 880 490 880 490 828 395.5 c 128,-1,43
 776 301 776 301 776 182 c 0,34,35
131 -27 m 1,44,-1
 1111 1093 l 1,45,-1
 1206 1093 l 1,46,-1
 225 -27 l 1,47,-1
 131 -27 l 1,44,-1
1376 0 m 0,48,49
 1294 0 1294 0 1244.5 51.5 c 128,-1,50
 1195 103 1195 103 1195 189 c 0,51,52
 1195 331 1195 331 1276.5 432 c 128,-1,53
 1358 533 1358 533 1473 533 c 0,54,55
 1557 533 1557 533 1607.5 481.5 c 128,-1,56
 1658 430 1658 430 1658 344 c 0,57,58
 1658 200 1658 200 1575.5 100 c 128,-1,59
 1493 0 1493 0 1376 0 c 0,48,49
1301 183 m 0,60,61
 1301 44 1301 44 1389 44 c 0,62,63
 1453 44 1453 44 1507 138 c 128,-1,64
 1561 232 1561 232 1561 347 c 0,65,66
 1561 490 1561 490 1473 490 c 0,67,68
 1406 490 1406 490 1353.5 395.5 c 128,-1,69
 1301 301 1301 301 1301 183 c 0,60,61
EndSplineSet
EndChar

StartChar: circumflex
Encoding: 710 710 139
Width: 862
Flags: W
LayerCount: 2
Fore
SplineSet
870 976 m 1,0,-1
 783 923 l 1,1,2
 729 984 729 984 693 1082 c 1,3,4
 652 1032 652 1032 574 953 c 0,5,6
 571 949 571 949 553 931 c 1,7,-1
 452 923 l 1,8,9
 607 1037 607 1037 674 1120 c 1,10,-1
 772 1182 l 1,11,12
 805 1069 805 1069 870 976 c 1,0,-1
EndSplineSet
EndChar

StartChar: cedilla
Encoding: 184 184 140
Width: 862
Flags: W
LayerCount: 2
Fore
SplineSet
456 0 m 1,0,-1
 414 -64 l 1,1,2
 485 -86 485 -86 485 -147 c 0,3,4
 485 -198 485 -198 428.5 -241 c 128,-1,5
 372 -284 372 -284 303 -284 c 0,6,7
 272 -284 272 -284 237 -277 c 1,8,-1
 292 -201 l 1,9,10
 326 -223 326 -223 352 -223 c 0,11,12
 416 -223 416 -223 416 -171 c 0,13,14
 416 -112 416 -112 318 -112 c 1,15,-1
 394 0 l 1,16,-1
 456 0 l 1,0,-1
EndSplineSet
EndChar

StartChar: brokenbar
Encoding: 166 166 141
Width: 355
Flags: W
LayerCount: 2
Fore
SplineSet
86 -213 m 1,0,-1
 203 373 l 1,1,-1
 301 373 l 1,2,-1
 184 -213 l 1,3,-1
 86 -213 l 1,0,-1
238 551 m 1,4,-1
 355 1137 l 1,5,-1
 453 1137 l 1,6,-1
 337 551 l 1,7,-1
 238 551 l 1,4,-1
EndSplineSet
EndChar

StartChar: minus
Encoding: 8722 8722 142
Width: 1490
Flags: W
LayerCount: 2
Fore
SplineSet
1308 572 m 1,0,-1
 182 572 l 1,1,-1
 182 732 l 1,2,-1
 1308 732 l 1,3,-1
 1308 572 l 1,0,-1
EndSplineSet
EndChar

StartChar: multiply
Encoding: 215 215 143
Width: 1016
Flags: W
LayerCount: 2
Fore
SplineSet
300 205 m 1,0,-1
 177 327 l 1,1,-1
 403 553 l 1,2,-1
 178 776 l 1,3,-1
 300 899 l 1,4,-1
 525 674 l 1,5,-1
 749 899 l 1,6,-1
 871 776 l 1,7,-1
 646 553 l 1,8,-1
 872 327 l 1,9,-1
 749 205 l 1,10,-1
 525 431 l 1,11,-1
 300 205 l 1,0,-1
EndSplineSet
EndChar

StartChar: onesuperior
Encoding: 185 185 144
Width: 596
Flags: W
LayerCount: 2
Fore
SplineSet
573 1093 m 1,0,-1
 487 657 l 2,1,2
 476 607 476 607 476 589 c 0,3,4
 476 570 476 570 532 563 c 1,5,-1
 591 560 l 1,6,-1
 582 516 l 1,7,-1
 210 516 l 1,8,-1
 218 560 l 1,9,-1
 279 563 l 2,10,11
 328 567 328 567 337.5 578 c 128,-1,12
 347 589 347 589 362 657 c 2,13,-1
 418 938 l 2,14,15
 423 960 423 960 423 978 c 0,16,17
 423 1004 423 1004 355 1013 c 2,18,-1
 310 1021 l 1,19,-1
 319 1066 l 1,20,-1
 573 1093 l 1,0,-1
EndSplineSet
EndChar

StartChar: twosuperior
Encoding: 178 178 145
Width: 596
Flags: W
LayerCount: 2
Fore
SplineSet
187 516 m 1,0,-1
 207 617 l 1,1,2
 362 712 362 712 454.5 803.5 c 128,-1,3
 547 895 547 895 547 952 c 0,4,5
 547 1046 547 1046 463 1046 c 0,6,7
 352 1046 352 1046 331 928 c 1,8,-1
 278 928 l 1,9,-1
 304 1059 l 1,10,11
 400 1093 400 1093 484 1093 c 0,12,13
 674 1093 674 1093 674 959 c 0,14,15
 674 887 674 887 624.5 842 c 128,-1,16
 575 797 575 797 297 617 c 1,17,-1
 607 617 l 1,18,-1
 587 516 l 1,19,-1
 187 516 l 1,0,-1
EndSplineSet
EndChar

StartChar: threesuperior
Encoding: 179 179 146
Width: 596
Flags: W
LayerCount: 2
Fore
SplineSet
185 545 m 1,0,-1
 257 620 l 1,1,2
 337 556 337 556 418 556 c 0,3,4
 460 556 460 556 490.5 587 c 128,-1,5
 521 618 521 618 521 661 c 0,6,7
 521 776 521 776 345 776 c 0,8,9
 323 776 323 776 301 773 c 1,10,-1
 331 859 l 1,11,12
 350 860 350 860 365 860 c 0,13,14
 412 860 412 860 466 849 c 1,15,16
 547 886 547 886 547 961 c 0,17,18
 547 1046 547 1046 454 1046 c 0,19,20
 365 1046 365 1046 342 941 c 1,21,-1
 289 941 l 1,22,-1
 311 1057 l 1,23,24
 398 1093 398 1093 484 1093 c 0,25,26
 662 1093 662 1093 662 984 c 0,27,28
 662 893 662 893 520 829 c 1,29,30
 625 790 625 790 625 693 c 0,31,32
 625 616 625 616 554.5 563 c 128,-1,33
 484 510 484 510 378 510 c 0,34,35
 289 510 289 510 185 545 c 1,0,-1
EndSplineSet
EndChar

StartChar: onehalf
Encoding: 189 189 147
Width: 1262
Flags: W
LayerCount: 2
Fore
SplineSet
528 1093 m 1,0,-1
 442 657 l 2,1,2
 432 606 432 606 432 589 c 0,3,4
 432 570 432 570 488 563 c 1,5,-1
 547 560 l 1,6,-1
 538 516 l 1,7,-1
 165 516 l 1,8,-1
 174 560 l 1,9,-1
 235 563 l 2,10,11
 283 567 283 567 293 578 c 128,-1,12
 303 589 303 589 318 657 c 2,13,-1
 373 938 l 2,14,15
 378 960 378 960 378 978 c 0,16,17
 378 1004 378 1004 310 1013 c 2,18,-1
 265 1021 l 1,19,-1
 274 1066 l 1,20,-1
 528 1093 l 1,0,-1
160 -27 m 1,21,-1
 1180 1093 l 1,22,-1
 1280 1093 l 1,23,-1
 257 -27 l 1,24,-1
 160 -27 l 1,21,-1
778 0 m 1,25,-1
 797 103 l 1,26,27
 952 197 952 197 1045 288 c 128,-1,28
 1138 379 1138 379 1138 436 c 0,29,30
 1138 530 1138 530 1053 530 c 0,31,32
 942 530 942 530 922 413 c 1,33,-1
 868 413 l 1,34,-1
 895 544 l 1,35,36
 989 578 989 578 1075 578 c 0,37,38
 1264 578 1264 578 1264 445 c 0,39,40
 1264 373 1264 373 1214.5 328 c 128,-1,41
 1165 283 1165 283 887 103 c 1,42,-1
 1197 103 l 1,43,-1
 1177 0 l 1,44,-1
 778 0 l 1,25,-1
EndSplineSet
EndChar

StartChar: onequarter
Encoding: 188 188 148
Width: 1262
Flags: W
LayerCount: 2
Fore
SplineSet
546 1093 m 1,0,-1
 460 657 l 2,1,2
 450 606 450 606 450 589 c 0,3,4
 450 570 450 570 506 563 c 1,5,-1
 565 560 l 1,6,-1
 556 516 l 1,7,-1
 183 516 l 1,8,-1
 192 560 l 1,9,-1
 253 563 l 2,10,11
 301 567 301 567 311 578 c 128,-1,12
 321 589 321 589 336 657 c 2,13,-1
 391 938 l 2,14,15
 396 960 396 960 396 978 c 0,16,17
 396 1004 396 1004 328 1013 c 2,18,-1
 283 1021 l 1,19,-1
 292 1066 l 1,20,-1
 546 1093 l 1,0,-1
178 -27 m 1,21,-1
 1198 1093 l 1,22,-1
 1298 1093 l 1,23,-1
 275 -27 l 1,24,-1
 178 -27 l 1,21,-1
981 164 m 1,25,-1
 732 182 l 1,26,-1
 747 261 l 1,27,-1
 1102 578 l 1,28,-1
 1170 578 l 1,29,-1
 1102 236 l 1,30,-1
 1212 229 l 1,31,-1
 1168 149 l 1,32,-1
 1086 157 l 1,33,34
 1076 102 1076 102 1076 74 c 0,35,36
 1076 52 1076 52 1129 49 c 2,37,-1
 1189 45 l 1,38,-1
 1180 0 l 1,39,-1
 820 0 l 1,40,-1
 829 45 l 1,41,-1
 886 49 l 2,42,43
 937 52 937 52 952 64 c 128,-1,44
 967 76 967 76 973 117 c 0,45,46
 976 134 976 134 981 164 c 1,25,-1
997 244 m 1,47,-1
 1038 446 l 1,48,-1
 823 255 l 1,49,-1
 997 244 l 1,47,-1
EndSplineSet
EndChar

StartChar: threequarters
Encoding: 190 190 149
Width: 1262
Flags: W
LayerCount: 2
Fore
SplineSet
174 545 m 1,0,-1
 247 620 l 1,1,2
 326 556 326 556 407 556 c 0,3,4
 448 556 448 556 478.5 587 c 128,-1,5
 509 618 509 618 509 661 c 0,6,7
 509 776 509 776 333 776 c 0,8,9
 311 776 311 776 289 773 c 1,10,-1
 319 859 l 1,11,12
 338 860 338 860 355 860 c 0,13,14
 401 860 401 860 455 849 c 1,15,16
 535 886 535 886 535 961 c 0,17,18
 535 1046 535 1046 442 1046 c 0,19,20
 354 1046 354 1046 330 941 c 1,21,-1
 277 941 l 1,22,-1
 301 1057 l 1,23,24
 387 1093 387 1093 472 1093 c 0,25,26
 651 1093 651 1093 651 984 c 0,27,28
 651 893 651 893 508 829 c 1,29,30
 614 790 614 790 614 693 c 0,31,32
 614 616 614 616 543 563 c 128,-1,33
 472 510 472 510 366 510 c 0,34,35
 277 510 277 510 174 545 c 1,0,-1
178 -27 m 1,36,-1
 1198 1093 l 1,37,-1
 1298 1093 l 1,38,-1
 275 -27 l 1,39,-1
 178 -27 l 1,36,-1
981 164 m 1,40,-1
 732 182 l 1,41,-1
 747 261 l 1,42,-1
 1102 578 l 1,43,-1
 1170 578 l 1,44,-1
 1102 236 l 1,45,-1
 1212 229 l 1,46,-1
 1168 149 l 1,47,-1
 1086 157 l 1,48,49
 1076 102 1076 102 1076 74 c 0,50,51
 1076 52 1076 52 1129 49 c 2,52,-1
 1189 45 l 1,53,-1
 1180 0 l 1,54,-1
 820 0 l 1,55,-1
 829 45 l 1,56,-1
 886 49 l 2,57,58
 938 52 938 52 952.5 64 c 128,-1,59
 967 76 967 76 973 117 c 0,60,61
 976 134 976 134 981 164 c 1,40,-1
997 244 m 1,62,-1
 1038 446 l 1,63,-1
 823 255 l 1,64,-1
 997 244 l 1,62,-1
EndSplineSet
EndChar

StartChar: macron
Encoding: 175 175 150
Width: 1118
Flags: W
LayerCount: 2
Fore
SplineSet
1134 1659 m 1,0,-1
 -16 1659 l 1,1,-1
 -16 1789 l 1,2,-1
 1134 1789 l 1,3,-1
 1134 1659 l 1,0,-1
EndSplineSet
EndChar

StartChar: periodcentered
Encoding: 183 183 151
Width: 724
Flags: W
LayerCount: 2
Fore
SplineSet
482 832 m 1,0,-1
 243 832 l 1,1,-1
 243 1117 l 1,2,-1
 482 1117 l 1,3,-1
 482 832 l 1,0,-1
EndSplineSet
EndChar

StartChar: H22073
Encoding: 9633 9633 152
Width: 1237
Flags: W
LayerCount: 2
Fore
SplineSet
146 944 m 1,0,-1
 1090 944 l 1,1,-1
 1090 0 l 1,2,-1
 146 0 l 1,3,-1
 146 944 l 1,0,-1
222 868 m 1,4,-1
 222 76 l 1,5,-1
 1014 76 l 1,6,-1
 1014 868 l 1,7,-1
 222 868 l 1,4,-1
EndSplineSet
EndChar

StartChar: H18543
Encoding: 9642 9642 153
Width: 1089
Flags: W
LayerCount: 2
Fore
SplineSet
886 994 m 1,0,-1
 886 300 l 1,1,-1
 192 300 l 1,2,-1
 192 994 l 1,3,-1
 886 994 l 1,0,-1
EndSplineSet
EndChar

StartChar: H18551
Encoding: 9643 9643 154
Width: 1089
Flags: W
LayerCount: 2
Fore
SplineSet
888 996 m 1,0,-1
 888 301 l 1,1,-1
 193 301 l 1,2,-1
 193 996 l 1,3,-1
 888 996 l 1,0,-1
774 882 m 1,4,-1
 307 882 l 1,5,-1
 307 415 l 1,6,-1
 774 415 l 1,7,-1
 774 882 l 1,4,-1
EndSplineSet
EndChar

StartChar: H18533
Encoding: 9679 9679 155
Width: 1339
Flags: W
LayerCount: 2
Fore
SplineSet
204 719 m 0,0,1
 204 920 204 920 345 1061 c 128,-1,2
 486 1202 486 1202 685 1202 c 0,3,4
 885 1202 885 1202 1026 1061 c 128,-1,5
 1167 920 1167 920 1167 719 c 0,6,7
 1167 521 1167 521 1026 380 c 128,-1,8
 885 239 885 239 685 239 c 0,9,10
 486 239 486 239 345 380 c 128,-1,11
 204 521 204 521 204 719 c 0,0,1
EndSplineSet
EndChar

StartChar: openbullet
Encoding: 9702 9702 156
Width: 1089
Flags: W
LayerCount: 2
Fore
SplineSet
544 1171 m 0,0,1
 700 1171 700 1171 810.5 1060.5 c 128,-1,2
 921 950 921 950 921 794 c 256,3,4
 921 638 921 638 810.5 528 c 128,-1,5
 700 418 700 418 544 418 c 256,6,7
 388 418 388 418 278 528 c 128,-1,8
 168 638 168 638 168 794 c 256,9,10
 168 950 168 950 277.5 1060.5 c 128,-1,11
 387 1171 387 1171 544 1171 c 0,0,1
544 1057 m 0,12,13
 435 1057 435 1057 358.5 979.5 c 128,-1,14
 282 902 282 902 282 794 c 0,15,16
 282 685 282 685 359 608.5 c 128,-1,17
 436 532 436 532 544 532 c 256,18,19
 652 532 652 532 729.5 608.5 c 128,-1,20
 807 685 807 685 807 794 c 0,21,22
 807 902 807 902 730.5 979.5 c 128,-1,23
 654 1057 654 1057 544 1057 c 0,12,13
EndSplineSet
EndChar

StartChar: currency
Encoding: 164 164 157
Width: 932
Flags: W
LayerCount: 2
Fore
SplineSet
769 322 m 1,0,-1
 879 184 l 1,1,-1
 841 153 l 1,2,-1
 732 292 l 1,3,4
 616 214 616 214 504 214 c 0,5,6
 394 214 394 214 310 292 c 1,7,-1
 145 153 l 1,8,-1
 120 184 l 1,9,-1
 286 322 l 1,10,11
 243 397 243 397 243 470 c 0,12,13
 243 613 243 613 369 743 c 1,14,-1
 259 882 l 1,15,-1
 297 913 l 1,16,-1
 407 775 l 1,17,18
 521 852 521 852 634 852 c 0,19,20
 744 852 744 852 828 775 c 1,21,-1
 994 913 l 1,22,-1
 1019 882 l 1,23,-1
 852 743 l 1,24,25
 895 668 895 668 895 596 c 0,26,27
 895 455 895 455 769 322 c 1,0,-1
818 579 m 0,28,29
 818 666 818 666 762 721.5 c 128,-1,30
 706 777 706 777 620 777 c 0,31,32
 502 777 502 777 411 688 c 128,-1,33
 320 599 320 599 320 485 c 0,34,35
 320 400 320 400 376.5 344.5 c 128,-1,36
 433 289 433 289 519 289 c 0,37,38
 635 289 635 289 726.5 377.5 c 128,-1,39
 818 466 818 466 818 579 c 0,28,29
EndSplineSet
EndChar

StartChar: uniFFFC
Encoding: 65532 65532 158
Width: 2048
Flags: W
LayerCount: 2
Fore
SplineSet
2048 1150 m 1,0,-1
 1948 1150 l 1,1,-1
 1948 1373 l 1,2,-1
 1725 1373 l 1,3,-1
 1725 1473 l 1,4,-1
 2048 1473 l 1,5,-1
 2048 1150 l 1,0,-1
1473 1373 m 1,6,-1
 1150 1373 l 1,7,-1
 1150 1473 l 1,8,-1
 1473 1473 l 1,9,-1
 1473 1373 l 1,6,-1
2048 575 m 1,10,-1
 1948 575 l 1,11,-1
 1948 898 l 1,12,-1
 2048 898 l 1,13,-1
 2048 575 l 1,10,-1
1782 611 m 2,14,15
 1782 370 1782 370 1571 370 c 0,16,17
 1485 370 1485 370 1433 415 c 1,18,-1
 1506 494 l 1,19,20
 1531 468 1531 468 1571 468 c 0,21,22
 1666 468 1666 468 1666 606 c 2,23,-1
 1666 1090 l 1,24,-1
 1782 1090 l 1,25,-1
 1782 611 l 2,14,15
898 1373 m 1,26,-1
 575 1373 l 1,27,-1
 575 1473 l 1,28,-1
 898 1473 l 1,29,-1
 898 1373 l 1,26,-1
2048 0 m 1,30,-1
 1725 0 l 1,31,-1
 1725 100 l 1,32,-1
 1948 100 l 1,33,-1
 1948 323 l 1,34,-1
 2048 323 l 1,35,-1
 2048 0 l 1,30,-1
1423 591 m 0,36,37
 1423 382 1423 382 1149 382 c 2,38,-1
 909 382 l 1,39,-1
 909 1090 l 1,40,-1
 1144 1090 l 2,41,42
 1393 1090 1393 1090 1393 904 c 0,43,44
 1393 813 1393 813 1304 759 c 1,45,46
 1423 713 1423 713 1423 591 c 0,36,37
323 1373 m 1,47,-1
 100 1373 l 1,48,-1
 100 1150 l 1,49,-1
 0 1150 l 1,50,-1
 0 1473 l 1,51,-1
 323 1473 l 1,52,-1
 323 1373 l 1,47,-1
1473 0 m 1,53,-1
 1150 0 l 1,54,-1
 1150 100 l 1,55,-1
 1473 100 l 1,56,-1
 1473 0 l 1,53,-1
854 735 m 0,57,58
 854 562 854 562 772 466 c 128,-1,59
 690 370 690 370 537 370 c 256,60,61
 384 370 384 370 303.5 466 c 128,-1,62
 223 562 223 562 223 735 c 0,63,64
 223 910 223 910 303.5 1006 c 128,-1,65
 384 1102 384 1102 537 1102 c 256,66,67
 690 1102 690 1102 772 1006 c 128,-1,68
 854 910 854 910 854 735 c 0,57,58
100 575 m 1,69,-1
 0 575 l 1,70,-1
 0 898 l 1,71,-1
 100 898 l 1,72,-1
 100 575 l 1,69,-1
898 0 m 1,73,-1
 575 0 l 1,74,-1
 575 100 l 1,75,-1
 898 100 l 1,76,-1
 898 0 l 1,73,-1
323 0 m 1,77,-1
 0 0 l 1,78,-1
 0 323 l 1,79,-1
 100 323 l 1,80,-1
 100 100 l 1,81,-1
 323 100 l 1,82,-1
 323 0 l 1,77,-1
1277 893 m 0,83,84
 1277 992 1277 992 1114 992 c 2,85,-1
 1025 992 l 1,86,-1
 1025 798 l 1,87,-1
 1126 798 l 2,88,89
 1277 798 1277 798 1277 893 c 0,83,84
1307 591 m 0,90,91
 1307 700 1307 700 1136 700 c 2,92,-1
 1025 700 l 1,93,-1
 1025 480 l 1,94,-1
 1149 480 l 2,95,96
 1307 480 1307 480 1307 591 c 0,90,91
738 735 m 0,97,98
 738 1004 738 1004 537 1004 c 0,99,100
 339 1004 339 1004 339 735 c 0,101,102
 339 468 339 468 537 468 c 0,103,104
 738 468 738 468 738 735 c 0,97,98
EndSplineSet
EndChar

StartChar: dotbelowcomb
Encoding: 65538 -1 160
Width: 0
Flags: W
LayerCount: 2
Fore
SplineSet
666 -382 m 1,0,-1
 452 -382 l 1,1,-1
 452 -187 l 1,2,-1
 666 -187 l 1,3,-1
 666 -382 l 1,0,-1
EndSplineSet
EndChar

StartChar: zerowidthnonjoiner
Encoding: 8204 8204 175
Width: 0
GlyphClass: 2
Flags: W
LayerCount: 2
Fore
SplineSet
36 1289 m 1,0,-1
 36 -275 l 1,1,-1
 -36 -275 l 1,2,-1
 -36 1289 l 1,3,-1
 36 1289 l 1,0,-1
EndSplineSet
EndChar

StartChar: zerowidthjoiner
Encoding: 8205 8205 176
Width: 0
GlyphClass: 2
Flags: W
LayerCount: 2
Fore
SplineSet
36 -275 m 1,0,-1
 -36 -275 l 1,1,-1
 -36 1114 l 1,2,-1
 -170 978 l 1,3,-1
 -219 1027 l 1,4,-1
 -48 1196 l 1,5,-1
 -219 1364 l 1,6,-1
 -170 1413 l 1,7,-1
 0 1242 l 1,8,-1
 170 1413 l 1,9,-1
 219 1364 l 1,10,-1
 48 1196 l 1,11,-1
 219 1027 l 1,12,-1
 170 978 l 1,13,-1
 36 1114 l 1,14,-1
 36 -275 l 1,0,-1
EndSplineSet
EndChar

StartChar: lefttorightmark
Encoding: 8206 8206 177
Width: 0
GlyphClass: 2
Flags: W
LayerCount: 2
Fore
SplineSet
430 1198 m 1,0,-1
 213 984 l 1,1,-1
 164 1033 l 1,2,-1
 301 1163 l 1,3,-1
 35 1163 l 1,4,-1
 35 -275 l 1,5,-1
 -36 -275 l 1,6,-1
 -36 1234 l 1,7,-1
 301 1234 l 1,8,-1
 164 1364 l 1,9,-1
 213 1413 l 1,10,-1
 430 1198 l 1,0,-1
EndSplineSet
EndChar

StartChar: righttoleftmark
Encoding: 8207 8207 178
Width: 0
GlyphClass: 2
Flags: W
LayerCount: 2
Fore
SplineSet
35 -275 m 1,0,-1
 -36 -275 l 1,1,-1
 -36 1163 l 1,2,-1
 -302 1163 l 1,3,-1
 -165 1033 l 1,4,-1
 -214 984 l 1,5,-1
 -431 1198 l 1,6,-1
 -214 1413 l 1,7,-1
 -165 1364 l 1,8,-1
 -302 1234 l 1,9,-1
 35 1234 l 1,10,-1
 35 -275 l 1,0,-1
EndSplineSet
EndChar

StartChar: afii57388.001
Encoding: 1644 1644 179
Width: 353
GlyphClass: 2
Flags: W
LayerCount: 2
Fore
SplineSet
210 654 m 0,0,1
 200 627 200 627 185 603 c 0,2,3
 180 597 180 597 173.5 593.5 c 128,-1,4
 167 590 167 590 162 590 c 128,-1,5
 157 590 157 590 154.5 593 c 128,-1,6
 152 596 152 596 155 603 c 0,7,8
 187 660 187 660 202.5 713.5 c 128,-1,9
 218 767 218 767 218 800 c 1,10,11
 194 806 194 806 179 816 c 128,-1,12
 164 826 164 826 155 837.5 c 128,-1,13
 146 849 146 849 143 859 c 128,-1,14
 140 869 140 869 140 874 c 0,15,16
 140 890 140 890 145.5 907 c 128,-1,17
 151 924 151 924 160.5 937.5 c 128,-1,18
 170 951 170 951 183.5 959.5 c 128,-1,19
 197 968 197 968 213 968 c 0,20,21
 272 968 272 968 272 874 c 0,22,23
 272 859 272 859 268 835 c 128,-1,24
 264 811 264 811 256 781.5 c 128,-1,25
 248 752 248 752 236.5 719.5 c 128,-1,26
 225 687 225 687 210 654 c 0,0,1
EndSplineSet
EndChar

StartChar: afii57409
Encoding: 1569 1569 180
Width: 1042
GlyphClass: 2
Flags: W
AnchorPoint: "Anchor-3" 660 -480 basechar 0
AnchorPoint: "Anchor-2" 555 705 basechar 0
LayerCount: 2
Fore
SplineSet
1038 34 m 1,0,-1
 208 -178 l 1,1,-1
 163 -15 l 1,2,-1
 452 54 l 1,3,4
 369 137 369 137 369 266 c 0,5,6
 369 382 369 382 447 450 c 0,7,8
 522 516 522 516 639 516 c 0,9,10
 677 516 677 516 844 482 c 1,11,12
 837 438 837 438 827 332 c 1,13,-1
 681 353 l 1,14,15
 634 353 634 353 591 325 c 0,16,17
 542 294 542 294 542 249 c 0,18,19
 542 195 542 195 589 158 c 0,20,21
 632 124 632 124 688 124 c 0,22,23
 730 124 730 124 1008 197 c 1,24,-1
 1038 34 l 1,0,-1
EndSplineSet
EndChar

StartChar: afii57440
Encoding: 1600 1600 181
Width: 909
GlyphClass: 2
Flags: W
LayerCount: 2
Fore
SplineSet
935 0 m 1,0,-1
 -29 0 l 1,1,-1
 -29 268 l 1,2,-1
 935 268 l 1,3,-1
 935 0 l 1,0,-1
EndSplineSet
EndChar

StartChar: afii57453
Encoding: 1613 1613 182
Width: 0
GlyphClass: 4
Flags: W
AnchorPoint: "Anchor-3" 0 0 mark 0
AnchorPoint: "Anchor-1" 0 0 mark 0
LayerCount: 2
Fore
SplineSet
322 148 m 1,0,-1
 -238 9 l 1,1,-1
 -269 124 l 1,2,-1
 294 266 l 1,3,-1
 322 148 l 1,0,-1
328 -63 m 1,4,-1
 -231 -202 l 1,5,-1
 -262 -87 l 1,6,-1
 300 56 l 1,7,-1
 328 -63 l 1,4,-1
EndSplineSet
EndChar

StartChar: afii57455.001
Encoding: 65539 -1 183
Width: 741
GlyphClass: 4
Flags: W
LayerCount: 2
Fore
SplineSet
585 1496 m 0,0,1
 585 1558 585 1558 494 1558 c 0,2,3
 463 1558 463 1558 435 1537 c 128,-1,4
 407 1516 407 1516 407 1486 c 0,5,6
 407 1453 407 1453 435.5 1429.5 c 128,-1,7
 464 1406 464 1406 498 1409 c 0,8,9
 585 1416 585 1416 585 1496 c 0,0,1
328 1381 m 1,10,11
 296 1433 296 1433 296 1489 c 0,12,13
 296 1568 296 1568 366 1626 c 0,14,15
 427 1677 427 1677 488 1677 c 0,16,17
 566 1677 566 1677 629 1626 c 0,18,19
 696 1572 696 1572 696 1496 c 0,20,21
 696 1337 696 1337 502 1291 c 2,22,-1
 102 1197 l 1,23,-1
 74 1305 l 1,24,25
 171 1333 171 1333 328 1381 c 1,10,11
EndSplineSet
EndChar

StartChar: afii57458.001
Encoding: 65540 -1 184
Width: 542
GlyphClass: 4
Flags: W
LayerCount: 2
Fore
SplineSet
466 1112 m 0,0,1
 466 1033 466 1033 410.5 977 c 128,-1,2
 355 921 355 921 275 921 c 0,3,4
 197 921 197 921 140.5 978 c 128,-1,5
 84 1035 84 1035 84 1112 c 0,6,7
 84 1187 84 1187 142 1245 c 128,-1,8
 200 1303 200 1303 275 1303 c 0,9,10
 349 1303 349 1303 407.5 1245 c 128,-1,11
 466 1187 466 1187 466 1112 c 0,0,1
356 1114 m 0,12,13
 356 1148 356 1148 331 1170.5 c 128,-1,14
 306 1193 306 1193 271 1193 c 0,15,16
 242 1193 242 1193 217.5 1167.5 c 128,-1,17
 193 1142 193 1142 193 1112 c 0,18,19
 193 1076 193 1076 215.5 1053 c 128,-1,20
 238 1030 238 1030 275 1030 c 0,21,22
 356 1030 356 1030 356 1114 c 0,12,13
EndSplineSet
EndChar

StartChar: afii57381
Encoding: 1642 1642 185
Width: 1024
GlyphClass: 2
Flags: W
LayerCount: 2
Fore
SplineSet
220 -132 m 1,0,-1
 781 1335 l 1,1,-1
 867 1301 l 1,2,-1
 307 -166 l 1,3,-1
 220 -132 l 1,0,-1
939 52 m 0,4,5
 939 11 939 11 909.5 -18.5 c 128,-1,6
 880 -48 880 -48 839 -48 c 0,7,8
 797 -48 797 -48 767.5 -18.5 c 128,-1,9
 738 11 738 11 738 53 c 0,10,11
 738 94 738 94 767.5 123.5 c 128,-1,12
 797 153 797 153 838 153 c 0,13,14
 881 153 881 153 910 123.5 c 128,-1,15
 939 94 939 94 939 52 c 0,4,5
321 1135 m 0,16,17
 321 1095 321 1095 291.5 1065.5 c 128,-1,18
 262 1036 262 1036 221 1036 c 0,19,20
 179 1036 179 1036 149.5 1065.5 c 128,-1,21
 120 1095 120 1095 120 1137 c 0,22,23
 120 1178 120 1178 149.5 1207.5 c 128,-1,24
 179 1237 179 1237 220 1237 c 0,25,26
 263 1237 263 1237 292 1207.5 c 128,-1,27
 321 1178 321 1178 321 1135 c 0,16,17
EndSplineSet
EndChar

StartChar: afii57461
Encoding: 1643 1643 186
Width: 985
GlyphClass: 2
Flags: W
LayerCount: 2
Fore
SplineSet
118 -521 m 1,0,-1
 771 502 l 1,1,-1
 885 502 l 1,2,-1
 232 -521 l 1,3,-1
 118 -521 l 1,0,-1
EndSplineSet
EndChar

StartChar: afii63167
Encoding: 1645 1645 187
Width: 1118
GlyphClass: 2
Flags: W
LayerCount: 2
Fore
SplineSet
694 729 m 1,0,-1
 1057 733 l 1,1,-1
 1057 610 l 1,2,-1
 702 612 l 1,3,-1
 971 352 l 1,4,-1
 883 264 l 1,5,-1
 616 539 l 1,6,-1
 623 168 l 1,7,-1
 498 168 l 1,8,-1
 502 539 l 1,9,-1
 236 264 l 1,10,-1
 147 352 l 1,11,-1
 422 614 l 1,12,-1
 63 610 l 1,13,-1
 63 733 l 1,14,-1
 420 729 l 1,15,-1
 170 975 l 1,16,-1
 258 1065 l 1,17,-1
 502 817 l 1,18,-1
 498 1176 l 1,19,-1
 623 1176 l 1,20,-1
 616 813 l 1,21,-1
 860 1065 l 1,22,-1
 948 975 l 1,23,-1
 694 729 l 1,0,-1
EndSplineSet
EndChar

StartChar: afii57459
Encoding: 65541 -1 188
Width: 822
GlyphClass: 2
Flags: W
LayerCount: 2
Fore
SplineSet
580 591 m 1,0,1
 570 649 570 649 534 692 c 0,2,3
 493 740 493 740 438 740 c 0,4,5
 341 740 341 740 341 664 c 0,6,7
 341 567 341 567 476 567 c 0,8,9
 557 567 557 567 580 591 c 1,0,1
-70 0 m 1,10,-1
 -70 267 l 1,11,-1
 434 267 l 2,12,13
 473 267 473 267 509 282 c 0,14,15
 585 313 585 313 587 393 c 1,16,17
 535 369 535 369 438 369 c 0,18,19
 311 369 311 369 235.5 444.5 c 128,-1,20
 160 520 160 520 156 647 c 0,21,22
 153 764 153 764 217 863 c 0,23,24
 289 973 289 973 403 973 c 0,25,26
 608 973 608 973 724 775 c 0,27,28
 820 609 820 609 820 389 c 0,29,30
 820 218 820 218 739 114 c 0,31,32
 649 0 649 0 483 0 c 2,33,-1
 -70 0 l 1,10,-1
EndSplineSet
EndChar

StartChar: afii57543
Encoding: 65542 -1 189
Width: 622
Flags: W
LayerCount: 2
Fore
SplineSet
622 1 m 1,0,-1
 595 1 l 2,1,2
 519 1 519 1 449.5 45 c 128,-1,3
 380 89 380 89 347 157 c 1,4,5
 307 71 307 71 249.5 36 c 128,-1,6
 192 1 192 1 97 1 c 2,7,-1
 -70 1 l 1,8,-1
 -70 268 l 1,9,-1
 17 268 l 2,10,11
 160 268 160 268 160 429 c 2,12,-1
 160 692 l 1,13,-1
 396 692 l 1,14,-1
 396 557 l 2,15,16
 396 268 396 268 604 268 c 2,17,-1
 622 268 l 1,18,-1
 622 1 l 1,0,-1
EndSplineSet
EndChar

StartChar: afii57534
Encoding: 1749 1749 190
Width: 1027
GlyphClass: 2
Flags: W
LayerCount: 2
Fore
SplineSet
1025 313 m 0,0,1
 1025 146 1025 146 882 64 c 0,2,3
 770 0 770 0 601 0 c 0,4,5
 396 0 396 0 281.5 110.5 c 128,-1,6
 167 221 167 221 167 424 c 0,7,8
 167 564 167 564 250 674 c 0,9,10
 340 795 340 795 476 795 c 0,11,12
 633 795 633 795 822 645 c 0,13,14
 1025 484 1025 484 1025 313 c 0,0,1
761 334 m 0,15,16
 761 408 761 408 653 481 c 0,17,18
 558 545 558 545 497 545 c 0,19,20
 456 545 456 545 426 500 c 0,21,22
 400 461 400 461 400 417 c 0,23,24
 400 340 400 340 462 295 c 0,25,26
 517 254 517 254 597 254 c 0,27,28
 761 254 761 254 761 334 c 0,15,16
EndSplineSet
EndChar

StartChar: afii64240
Encoding: 65543 -1 191
Width: 382
Flags: W
LayerCount: 2
Fore
SplineSet
314 0 m 1,0,-1
 77 0 l 1,1,-1
 77 237 l 1,2,-1
 314 237 l 1,3,-1
 314 0 l 1,0,-1
EndSplineSet
EndChar

StartChar: afii64241
Encoding: 65544 -1 192
Width: 531
Flags: W
LayerCount: 2
Fore
SplineSet
511 0 m 1,0,-1
 300 0 l 1,1,-1
 300 212 l 1,2,-1
 511 212 l 1,3,-1
 511 0 l 1,0,-1
226 0 m 1,4,-1
 15 0 l 1,5,-1
 15 212 l 1,6,-1
 226 212 l 1,7,-1
 226 0 l 1,4,-1
EndSplineSet
EndChar

StartChar: afii63954
Encoding: 65545 -1 193
Width: 531
Flags: W
LayerCount: 2
Fore
SplineSet
502 0 m 1,0,-1
 291 0 l 1,1,-1
 291 215 l 1,2,-1
 502 215 l 1,3,-1
 502 0 l 1,0,-1
239 0 m 1,4,-1
 30 0 l 1,5,-1
 30 215 l 1,6,-1
 239 215 l 1,7,-1
 239 0 l 1,4,-1
367 253 m 1,8,-1
 152 253 l 1,9,-1
 152 466 l 1,10,-1
 367 466 l 1,11,-1
 367 253 l 1,8,-1
EndSplineSet
EndChar

StartChar: afii57382
Encoding: 65546 -1 194
Width: 524
Flags: W
LayerCount: 2
Fore
SplineSet
495 -216 m 1,0,-1
 284 -216 l 1,1,-1
 284 -1 l 1,2,-1
 495 -1 l 1,3,-1
 495 -216 l 1,0,-1
232 -216 m 1,4,-1
 23 -216 l 1,5,-1
 23 -1 l 1,6,-1
 232 -1 l 1,7,-1
 232 -216 l 1,4,-1
360 -467 m 1,8,-1
 145 -467 l 1,9,-1
 145 -255 l 1,10,-1
 360 -255 l 1,11,-1
 360 -467 l 1,8,-1
EndSplineSet
EndChar

StartChar: afii64242
Encoding: 65547 -1 195
Width: 489
Flags: W
LayerCount: 2
Fore
SplineSet
150 268 m 2,0,1
 235 268 235 268 235 332 c 0,2,3
 235 357 235 357 219 386 c 2,4,-1
 104 592 l 1,5,-1
 317 733 l 1,6,7
 486 452 486 452 486 327 c 0,8,9
 486 1 486 1 202 1 c 2,10,-1
 -70 1 l 1,11,-1
 -70 268 l 1,12,-1
 150 268 l 2,0,1
EndSplineSet
EndChar

StartChar: afii62881
Encoding: 59416 59416 196
Width: 0
GlyphClass: 4
Flags: W
AnchorPoint: "Anchor-2" 0 0 mark 0
AnchorPoint: "Anchor-0" 0 0 mark 0
LayerCount: 2
Fore
SplineSet
302 231 m 0,0,1
 302 164 302 164 265 117 c 0,2,3
 226 67 226 67 160 67 c 0,4,5
 53 67 53 67 -3 148 c 1,6,7
 -65 2 -65 2 -194 2 c 0,8,9
 -337 2 -337 2 -337 165 c 0,10,11
 -337 236 -337 236 -274 370 c 1,12,-1
 -185 325 l 1,13,14
 -222 228 -222 228 -222 210 c 0,15,16
 -222 141 -222 141 -174 141 c 0,17,18
 -104 141 -104 141 -82 214 c 0,19,20
 -70 255 -70 255 -73 345 c 1,21,22
 -38 365 -38 365 41 405 c 1,23,24
 41 206 41 206 132 206 c 0,25,26
 181 206 181 206 177 266 c 0,27,28
 175 298 175 298 158 329 c 0,29,30
 141 354 141 354 125 380 c 1,31,-1
 215 447 l 1,32,33
 252 398 252 398 279 325 c 0,34,35
 302 262 302 262 302 231 c 0,0,1
265 803 m 1,36,-1
 -295 664 l 1,37,-1
 -326 779 l 1,38,-1
 237 921 l 1,39,-1
 265 803 l 1,36,-1
271 592 m 1,40,-1
 -288 453 l 1,41,-1
 -319 568 l 1,42,-1
 243 711 l 1,43,-1
 271 592 l 1,40,-1
EndSplineSet
Ligature2: "'ccmp' Glyph Composition/Decomposition in Arabic lookup 4 subtable" afii57457 afii57451
EndChar

StartChar: afii57373
Encoding: 65548 -1 200
Width: 596
Flags: W
LayerCount: 2
Fore
SplineSet
579 991 m 1,0,-1
 65 865 l 1,1,-1
 34 976 l 1,2,-1
 214 1022 l 1,3,4
 156 1090 156 1090 156 1157 c 0,5,6
 156 1233 156 1233 224 1279 c 0,7,8
 283 1320 283 1320 363 1320 c 0,9,10
 420 1320 420 1320 464 1296 c 1,11,-1
 464 1199 l 1,12,13
 420 1210 420 1210 376 1210 c 0,14,15
 260 1210 260 1210 260 1143 c 0,16,17
 260 1108 260 1108 290 1085 c 0,18,19
 317 1063 317 1063 353 1063 c 0,20,21
 383 1063 383 1063 548 1109 c 1,22,-1
 579 991 l 1,0,-1
EndSplineSet
EndChar

StartChar: afii57374
Encoding: 65549 -1 201
Width: 872
GlyphClass: 2
Flags: W
LayerCount: 2
Fore
SplineSet
556 498 m 0,0,1
 556 540 556 540 518 566 c 0,2,3
 485 588 485 588 441 588 c 0,4,5
 326 588 326 588 326 498 c 0,6,7
 326 450 326 450 370 405 c 0,8,9
 405 369 405 369 441 355 c 1,10,11
 476 366 476 366 512 403 c 0,12,13
 556 448 556 448 556 498 c 0,0,1
-70 1 m 1,14,-1
 -70 268 l 1,15,-1
 233 268 l 1,16,17
 118 374 118 374 118 505 c 0,18,19
 118 649 118 649 207 728 c 0,20,21
 292 804 292 804 438 804 c 0,22,23
 764 804 764 804 764 505 c 0,24,25
 764 427 764 427 718 350 c 0,26,27
 679 284 679 284 643 268 c 1,28,-1
 872 268 l 1,29,-1
 872 1 l 1,30,-1
 740 1 l 2,31,32
 670 1 670 1 565 47 c 0,33,34
 473 87 473 87 441 119 c 1,35,36
 393 80 393 80 313 46 c 0,37,38
 209 1 209 1 125 1 c 2,39,-1
 -70 1 l 1,14,-1
EndSplineSet
EndChar

StartChar: afii57375
Encoding: 1619 1619 202
Width: 988
GlyphClass: 2
Flags: W
LayerCount: 2
Fore
SplineSet
896 1328 m 1,0,1
 703 1216 703 1216 490 1229 c 0,2,3
 416 1232 416 1232 321 1260 c 128,-1,4
 226 1288 226 1288 213 1285 c 0,5,6
 196 1285 196 1285 156 1224 c 1,7,8
 120 1243 120 1243 17 1300 c 1,9,-1
 70 1424 l 1,10,11
 109 1495 109 1495 153 1495 c 0,12,13
 174 1495 174 1495 214 1476 c 0,14,15
 353 1412 353 1412 497 1412 c 0,16,17
 700 1411 700 1411 896 1493 c 1,18,-1
 896 1328 l 1,0,1
EndSplineSet
EndChar

StartChar: afii57471
Encoding: 65550 -1 203
Width: 2293
Flags: W
LayerCount: 2
Fore
SplineSet
1699 1 m 2,0,-1
 514 1 l 2,1,2
 167 1 167 1 167 362 c 2,3,-1
 167 512 l 1,4,-1
 403 512 l 1,5,-1
 403 401 l 2,6,7
 403 324 403 324 444 294 c 0,8,9
 479 268 479 268 560 268 c 2,10,-1
 1664 268 l 2,11,12
 1746 268 1746 268 1746 323 c 0,13,14
 1746 350 1746 350 1727 386 c 2,15,-1
 1619 592 l 1,16,-1
 1820 727 l 1,17,18
 1833 706 1833 706 1911 557 c 0,19,20
 2063 268 2063 268 2276 268 c 2,21,-1
 2293 268 l 1,22,-1
 2293 1 l 1,23,-1
 2272 1 l 2,24,25
 2075 1 2075 1 1942 188 c 1,26,27
 1908 1 1908 1 1699 1 c 2,0,-1
EndSplineSet
EndChar

StartChar: afii52258
Encoding: 65551 -1 204
Width: 2150
GlyphClass: 2
Flags: W
LayerCount: 2
Fore
SplineSet
1835 498 m 0,0,1
 1835 540 1835 540 1797 566 c 0,2,3
 1764 588 1764 588 1720 588 c 0,4,5
 1605 588 1605 588 1605 498 c 0,6,7
 1605 450 1605 450 1648 405 c 0,8,9
 1683 369 1683 369 1720 355 c 1,10,11
 1754 366 1754 366 1790 403 c 0,12,13
 1835 449 1835 449 1835 498 c 0,0,1
504 1 m 2,14,15
 341 1 341 1 251 113 c 0,16,17
 167 216 167 216 167 383 c 2,18,-1
 167 512 l 1,19,-1
 403 512 l 1,20,-1
 403 411 l 2,21,22
 403 268 403 268 569 268 c 2,23,-1
 1511 268 l 1,24,25
 1397 364 1397 364 1397 505 c 0,26,27
 1397 649 1397 649 1486 728 c 0,28,29
 1571 804 1571 804 1716 804 c 0,30,31
 2043 804 2043 804 2043 505 c 0,32,33
 2043 428 2043 428 1996 350 c 0,34,35
 1956 285 1956 285 1922 268 c 1,36,-1
 2150 268 l 1,37,-1
 2150 1 l 1,38,-1
 2019 1 l 2,39,40
 1948 1 1948 1 1843 47 c 0,41,42
 1752 87 1752 87 1720 119 c 1,43,44
 1569 1 1569 1 1403 1 c 2,45,-1
 504 1 l 2,14,15
EndSplineSet
EndChar

StartChar: afii62889
Encoding: 65552 -1 210
Width: 1634
Flags: W
LayerCount: 2
Fore
SplineSet
1634 1 m 1,0,-1
 1501 1 l 1,1,2
 1463 -272 1463 -272 1263 -424 c 0,3,4
 1074 -568 1074 -568 792 -568 c 0,5,6
 605 -568 605 -568 463 -502 c 0,7,8
 298 -425 298 -425 229 -272 c 0,9,10
 167 -133 167 -133 167 53 c 0,11,12
 167 145 167 145 208 283 c 1,13,-1
 428 227 l 1,14,15
 403 132 403 132 403 49 c 0,16,17
 403 -298 403 -298 786 -298 c 0,18,19
 1192 -298 1192 -298 1247 1 c 1,20,-1
 1129 1 l 2,21,22
 968 1 968 1 878.5 89 c 128,-1,23
 789 177 789 177 789 338 c 0,24,25
 789 465 789 465 866 557 c 0,26,27
 948 654 948 654 1073 654 c 0,28,29
 1262 654 1262 654 1385 478 c 0,30,31
 1447 389 1447 389 1483 268 c 1,32,-1
 1634 268 l 1,33,-1
 1634 1 l 1,0,-1
1255 244 m 1,34,35
 1240 328 1240 328 1183 379 c 0,36,37
 1135 422 1135 422 1088 422 c 0,38,39
 1050 422 1050 422 1022 400.5 c 128,-1,40
 994 379 994 379 994 342 c 0,41,42
 994 244 994 244 1129 244 c 2,43,-1
 1255 244 l 1,34,35
EndSplineSet
EndChar

StartChar: afii62887
Encoding: 65553 -1 211
Width: 2000
Flags: W
LayerCount: 2
Fore
SplineSet
514 1 m 2,0,1
 167 1 167 1 167 362 c 2,2,-1
 167 512 l 1,3,-1
 403 512 l 1,4,-1
 403 401 l 2,5,6
 403 324 403 324 444 294 c 0,7,8
 479 268 479 268 560 268 c 2,9,-1
 1664 268 l 2,10,11
 1746 268 1746 268 1746 323 c 0,12,13
 1746 350 1746 350 1727 386 c 2,14,-1
 1619 592 l 1,15,-1
 1824 733 l 1,16,17
 1998 448 1998 448 1998 327 c 0,18,19
 1998 181 1998 181 1928 95 c 0,20,21
 1852 1 1852 1 1709 1 c 2,22,-1
 514 1 l 2,0,1
EndSplineSet
EndChar

StartChar: afii62888
Encoding: 1697 1697 212
Width: 2013
GlyphClass: 2
Flags: W
LayerCount: 2
Fore
SplineSet
1765 592 m 1,0,1
 1755 651 1755 651 1719 693 c 0,2,3
 1678 741 1678 741 1622 741 c 0,4,5
 1525 741 1525 741 1525 665 c 0,6,7
 1525 567 1525 567 1661 567 c 0,8,9
 1741 567 1741 567 1765 592 c 1,0,1
167 512 m 1,10,-1
 403 512 l 1,11,-1
 403 411 l 2,12,13
 403 268 403 268 569 268 c 2,14,-1
 1619 268 l 2,15,16
 1658 268 1658 268 1694 283 c 0,17,18
 1770 314 1770 314 1772 394 c 1,19,20
 1719 370 1719 370 1622 370 c 0,21,22
 1496 370 1496 370 1420.5 446 c 128,-1,23
 1345 522 1345 522 1342 648 c 0,24,25
 1339 768 1339 768 1402 864 c 0,26,27
 1474 974 1474 974 1588 974 c 0,28,29
 1793 974 1793 974 1910 776 c 0,30,31
 2008 609 2008 609 2008 390 c 0,32,33
 2008 189 2008 189 1913 95 c 128,-1,34
 1818 1 1818 1 1616 1 c 2,35,-1
 504 1 l 2,36,37
 167 1 167 1 167 383 c 2,38,-1
 167 512 l 1,10,-1
EndSplineSet
Substitution2: "'fina' Terminal Forms in Arabic lookup 3 subtable" afii52258
Substitution2: "'medi' Medial Forms in Arabic lookup 2 subtable" afii57374
Substitution2: "'init' Initial Forms in Arabic lookup 0 subtable" afii57459
EndChar

StartChar: afii57567
Encoding: 1705 1705 219
Width: 2210
GlyphClass: 2
Flags: W
AnchorPoint: "Anchor-3" 825 -585 basechar 0
AnchorPoint: "Anchor-2" 825 1245 basechar 0
LayerCount: 2
Fore
SplineSet
167 383 m 2,0,-1
 167 512 l 1,1,-1
 403 512 l 1,2,-1
 403 401 l 2,3,4
 403 268 403 268 556 268 c 2,5,-1
 1511 268 l 2,6,7
 1638 268 1638 268 1638 336 c 0,8,9
 1638 371 1638 371 1612 422 c 2,10,-1
 1431 779 l 2,11,12
 1394 852 1394 852 1394 917 c 0,13,14
 1394 1041 1394 1041 1533 1082 c 2,15,-1
 2185 1276 l 1,16,-1
 2280 1074 l 1,17,-1
 1702 926 l 2,18,19
 1649 912 1649 912 1649 880 c 0,20,21
 1649 863 1649 863 1664 835 c 2,22,-1
 1845 494 l 2,23,24
 1887 415 1887 415 1887 320 c 0,25,26
 1887 168 1887 168 1772 80 c 0,27,28
 1667 1 1667 1 1511 1 c 2,29,-1
 500 1 l 2,30,31
 167 1 167 1 167 383 c 2,0,-1
EndSplineSet
Substitution2: "'fina' Terminal Forms in Arabic lookup 3 subtable" afii62964
Substitution2: "'medi' Medial Forms in Arabic lookup 2 subtable" afii52306
Substitution2: "'init' Initial Forms in Arabic lookup 0 subtable" afii52305
EndChar

StartChar: afii62964
Encoding: 64399 64399 220
Width: 2228
GlyphClass: 2
Flags: W
AnchorPoint: "Anchor-3" 930 -570 basechar 0
AnchorPoint: "Anchor-2" 840 1215 basechar 0
LayerCount: 2
Fore
SplineSet
1855 175 m 1,0,1
 1764 1 1764 1 1511 1 c 2,2,-1
 500 1 l 2,3,4
 167 1 167 1 167 383 c 2,5,-1
 167 512 l 1,6,-1
 403 512 l 1,7,-1
 403 401 l 2,8,9
 403 268 403 268 556 268 c 2,10,-1
 1511 268 l 2,11,12
 1551 268 1551 268 1586 282 c 0,13,14
 1633 301 1633 301 1633 335 c 0,15,16
 1633 381 1633 381 1612 422 c 2,17,-1
 1430 779 l 2,18,19
 1397 844 1397 844 1397 905 c 0,20,21
 1397 1039 1397 1039 1533 1082 c 2,22,-1
 2144 1276 l 1,23,-1
 2237 1071 l 1,24,-1
 1702 918 l 2,25,26
 1650 903 1650 903 1650 872 c 0,27,28
 1650 854 1650 854 1664 828 c 2,29,-1
 1841 494 l 2,30,31
 1961 268 1961 268 2220 268 c 2,32,-1
 2228 268 l 1,33,-1
 2228 1 l 1,34,-1
 2198 1 l 2,35,36
 2099 1 2099 1 2005 47 c 0,37,38
 1907 95 1907 95 1855 175 c 1,0,1
EndSplineSet
EndChar

StartChar: afii52305
Encoding: 64400 64400 221
Width: 898
GlyphClass: 2
Flags: W
AnchorPoint: "Anchor-3" 210 -525 basechar 0
AnchorPoint: "Anchor-2" 345 1305 basechar 0
LayerCount: 2
Fore
SplineSet
-70 0 m 1,0,-1
 -70 267 l 1,1,-1
 195 267 l 2,2,3
 319 267 319 267 319 333 c 0,4,5
 319 364 319 364 291 421 c 2,6,-1
 115 778 l 2,7,8
 77 855 77 855 77 917 c 0,9,10
 77 1040 77 1040 215 1081 c 2,11,-1
 869 1275 l 1,12,-1
 962 1073 l 1,13,-1
 386 925 l 2,14,15
 333 911 333 911 333 879 c 0,16,17
 333 861 333 861 347 834 c 2,18,-1
 525 493 l 2,19,20
 569 409 569 409 569 319 c 0,21,22
 569 167 569 167 455 80 c 0,23,24
 351 0 351 0 195 0 c 2,25,-1
 -70 0 l 1,0,-1
EndSplineSet
EndChar

StartChar: afii52306
Encoding: 64401 64401 222
Width: 903
GlyphClass: 2
Flags: W
AnchorPoint: "Anchor-3" 420 -585 basechar 0
AnchorPoint: "Anchor-2" 315 1290 basechar 0
LayerCount: 2
Fore
SplineSet
-70 1 m 1,0,-1
 -70 268 l 1,1,-1
 187 268 l 2,2,3
 306 268 306 268 306 346 c 0,4,5
 306 380 306 380 285 422 c 2,6,-1
 108 779 l 2,7,8
 69 858 69 858 69 917 c 0,9,10
 69 1038 69 1038 208 1082 c 2,11,-1
 820 1276 l 1,12,-1
 914 1074 l 1,13,-1
 378 922 l 2,14,15
 327 908 327 908 327 875 c 0,16,17
 327 858 327 858 341 831 c 2,18,-1
 514 494 l 2,19,20
 560 404 560 404 647 343 c 0,21,22
 754 268 754 268 889 268 c 2,23,-1
 903 268 l 1,24,-1
 903 1 l 1,25,-1
 872 1 l 2,26,27
 638 1 638 1 528 175 c 1,28,29
 441 1 441 1 187 1 c 2,30,-1
 -70 1 l 1,0,-1
EndSplineSet
EndChar

StartChar: afii57509
Encoding: 1711 1711 223
Width: 2210
GlyphClass: 2
Flags: W
AnchorPoint: "Anchor-3" 840 -600 basechar 0
AnchorPoint: "Anchor-2" 810 1230 basechar 0
LayerCount: 2
Fore
SplineSet
1426 1251 m 1,0,-1
 2097 1438 l 1,1,-1
 2152 1313 l 1,2,-1
 1489 1125 l 1,3,-1
 1426 1251 l 1,0,-1
167 383 m 2,4,-1
 167 512 l 1,5,-1
 403 512 l 1,6,-1
 403 401 l 2,7,8
 403 268 403 268 556 268 c 2,9,-1
 1511 268 l 2,10,11
 1638 268 1638 268 1638 338 c 0,12,13
 1638 371 1638 371 1612 422 c 2,14,-1
 1431 779 l 2,15,16
 1392 856 1392 856 1392 916 c 0,17,18
 1392 1032 1392 1032 1533 1072 c 2,19,-1
 2185 1257 l 1,20,-1
 2280 1074 l 1,21,-1
 1702 926 l 2,22,23
 1649 912 1649 912 1649 880 c 0,24,25
 1649 863 1649 863 1664 835 c 2,26,-1
 1845 494 l 2,27,28
 1887 415 1887 415 1887 320 c 0,29,30
 1887 168 1887 168 1772 80 c 0,31,32
 1667 1 1667 1 1511 1 c 2,33,-1
 500 1 l 2,34,35
 167 1 167 1 167 383 c 2,4,-1
EndSplineSet
Substitution2: "'fina' Terminal Forms in Arabic lookup 3 subtable" afii62967
Substitution2: "'medi' Medial Forms in Arabic lookup 2 subtable" afii62966
Substitution2: "'init' Initial Forms in Arabic lookup 0 subtable" afii62965
EndChar

StartChar: afii62967
Encoding: 64403 64403 224
Width: 2228
GlyphClass: 2
Flags: W
AnchorPoint: "Anchor-3" 915 -570 basechar 0
AnchorPoint: "Anchor-2" 795 1230 basechar 0
LayerCount: 2
Fore
SplineSet
1855 175 m 1,0,1
 1764 1 1764 1 1511 1 c 2,2,-1
 500 1 l 2,3,4
 167 1 167 1 167 383 c 2,5,-1
 167 512 l 1,6,-1
 403 512 l 1,7,-1
 403 401 l 2,8,9
 403 268 403 268 556 268 c 2,10,-1
 1511 268 l 2,11,12
 1551 268 1551 268 1586 282 c 0,13,14
 1633 301 1633 301 1633 335 c 0,15,16
 1633 381 1633 381 1612 422 c 2,17,-1
 1430 779 l 2,18,19
 1393 852 1393 852 1393 912 c 0,20,21
 1393 1032 1393 1032 1533 1072 c 2,22,-1
 2146 1247 l 1,23,-1
 2237 1066 l 1,24,-1
 1702 925 l 2,25,26
 1649 911 1649 911 1649 874 c 0,27,28
 1649 856 1649 856 1664 828 c 2,29,-1
 1841 494 l 2,30,31
 1961 268 1961 268 2220 268 c 2,32,-1
 2228 268 l 1,33,-1
 2228 1 l 1,34,-1
 2221 1 l 2,35,36
 2097 1 2097 1 1984 60 c 0,37,38
 1883 113 1883 113 1855 175 c 1,0,1
1398 1241 m 1,39,-1
 2068 1428 l 1,40,-1
 2123 1303 l 1,41,-1
 1460 1116 l 1,42,-1
 1398 1241 l 1,39,-1
EndSplineSet
EndChar

StartChar: afii62965
Encoding: 64404 64404 225
Width: 907
GlyphClass: 2
Flags: W
AnchorPoint: "Anchor-3" 300 -480 basechar 0
AnchorPoint: "Anchor-2" 285 1470 basechar 0
LayerCount: 2
Fore
SplineSet
-70 1 m 1,0,-1
 -70 268 l 1,1,-1
 199 268 l 2,2,3
 325 268 325 268 325 338 c 0,4,5
 325 370 325 370 299 422 c 2,6,-1
 119 779 l 2,7,8
 80 856 80 856 80 916 c 0,9,10
 80 1032 80 1032 220 1072 c 2,11,-1
 872 1257 l 1,12,-1
 967 1074 l 1,13,-1
 390 926 l 2,14,15
 337 912 337 912 337 880 c 0,16,17
 337 861 337 861 351 835 c 2,18,-1
 533 494 l 2,19,20
 574 417 574 417 574 320 c 0,21,22
 574 168 574 168 460 80 c 0,23,24
 356 1 356 1 199 1 c 2,25,-1
 -70 1 l 1,0,-1
114 1251 m 1,26,-1
 785 1438 l 1,27,-1
 840 1313 l 1,28,-1
 177 1125 l 1,29,-1
 114 1251 l 1,26,-1
EndSplineSet
EndChar

StartChar: afii62966
Encoding: 64405 64405 226
Width: 915
GlyphClass: 2
Flags: W
AnchorPoint: "Anchor-3" 405 -615 basechar 0
AnchorPoint: "Anchor-2" 360 1470 basechar 0
LayerCount: 2
Fore
SplineSet
189 268 m 2,0,1
 229 268 229 268 264 282 c 0,2,3
 311 301 311 301 311 335 c 0,4,5
 311 381 311 381 290 422 c 2,6,-1
 108 779 l 2,7,8
 71 852 71 852 71 912 c 0,9,10
 71 1032 71 1032 210 1072 c 2,11,-1
 824 1247 l 1,12,-1
 915 1066 l 1,13,-1
 380 925 l 2,14,15
 327 911 327 911 327 874 c 0,16,17
 327 856 327 856 342 828 c 2,18,-1
 519 494 l 2,19,20
 639 268 639 268 888 268 c 2,21,-1
 915 268 l 1,22,-1
 915 1 l 1,23,-1
 887 1 l 2,24,25
 782 1 782 1 685 43 c 0,26,27
 572 91 572 91 533 175 c 1,28,29
 442 1 442 1 189 1 c 2,30,-1
 -70 1 l 1,31,-1
 -70 268 l 1,32,-1
 189 268 l 2,0,1
75 1241 m 1,33,-1
 746 1428 l 1,34,-1
 801 1303 l 1,35,-1
 138 1116 l 1,36,-1
 75 1241 l 1,33,-1
EndSplineSet
EndChar

StartChar: afii57555
Encoding: 1740 1740 227
Width: 1515
GlyphClass: 2
Flags: W
AnchorPoint: "Anchor-3" 630 -855 basechar 0
AnchorPoint: "Anchor-2" 615 930 basechar 0
LayerCount: 2
Fore
SplineSet
1508 730 m 1,0,-1
 1403 542 l 1,1,2
 1270 601 1270 601 1244 601 c 0,3,4
 1089 601 1089 601 977 441 c 0,5,6
 971 432 971 432 970 418 c 0,7,8
 969 403 969 403 977 400 c 0,9,10
 1024 380 1024 380 1112 374 c 2,11,-1
 1289 361 l 2,12,13
 1390 354 1390 354 1451 298 c 0,14,15
 1515 238 1515 238 1515 139 c 0,16,17
 1515 -47 1515 -47 1309 -208 c 0,18,19
 1073 -393 1073 -393 712 -393 c 0,20,21
 419 -393 419 -393 279 -210 c 0,22,23
 167 -63 167 -63 167 174 c 0,24,25
 167 303 167 303 226 480 c 1,26,-1
 438 417 l 1,27,28
 430 383 430 383 415 314 c 0,29,30
 403 259 403 259 403 195 c 0,31,32
 403 -6 403 -6 515 -80 c 0,33,34
 588 -128 588 -128 736 -128 c 0,35,36
 880 -128 880 -128 1030 -81 c 0,37,38
 1242 -15 1242 -15 1279 108 c 1,39,40
 941 119 941 119 853 154 c 0,41,42
 740 199 740 199 740 361 c 0,43,44
 740 539 740 539 918 691 c 0,45,46
 1080 830 1080 830 1227 830 c 0,47,48
 1370 830 1370 830 1508 730 c 1,0,-1
EndSplineSet
Substitution2: "'fina' Terminal Forms in Arabic lookup 3 subtable" afii52364
Substitution2: "'medi' Medial Forms in Arabic lookup 2 subtable" afii62832
Substitution2: "'init' Initial Forms in Arabic lookup 0 subtable" uniFBFE
EndChar

StartChar: afii52364
Encoding: 64509 64509 228
Width: 1553
GlyphClass: 2
Flags: W
AnchorPoint: "Anchor-3" 705 -1065 basechar 0
AnchorPoint: "Anchor-2" 765 750 basechar 0
LayerCount: 2
Fore
SplineSet
1553 1 m 1,0,-1
 1515 1 l 1,1,2
 1515 -99 1515 -99 1482 -169 c 0,3,4
 1395 -353 1395 -353 1148 -456 c 0,5,6
 939 -544 939 -544 708 -544 c 0,7,8
 167 -544 167 -544 167 32 c 0,9,10
 167 163 167 163 230 338 c 1,11,-1
 438 272 l 1,12,13
 403 155 403 155 403 49 c 0,14,15
 403 -284 403 -284 743 -284 c 0,16,17
 1113 -284 1113 -284 1251 -122 c 0,18,19
 1263 -108 1263 -108 1263 -92 c 0,20,21
 1263 -71 1263 -71 1237 -62 c 0,22,23
 1154 -32 1154 -32 810 49 c 1,24,-1
 872 268 l 1,25,-1
 1553 268 l 1,26,-1
 1553 1 l 1,0,-1
EndSplineSet
EndChar

StartChar: afii62882
Encoding: 64606 64606 229
Width: 0
GlyphClass: 4
Flags: W
AnchorPoint: "Anchor-2" 0 0 mark 0
AnchorPoint: "Anchor-0" 0 0 mark 0
LayerCount: 2
Fore
SplineSet
310 237 m 0,0,1
 310 170 310 170 273 123 c 0,2,3
 234 73 234 73 168 73 c 0,4,5
 61 73 61 73 5 153 c 1,6,7
 -57 7 -57 7 -186 7 c 0,8,9
 -329 7 -329 7 -329 170 c 0,10,11
 -329 242 -329 242 -266 376 c 1,12,-1
 -177 330 l 1,13,14
 -214 234 -214 234 -214 216 c 0,15,16
 -214 146 -214 146 -166 146 c 0,17,18
 -95 146 -95 146 -74 219 c 0,19,20
 -62 260 -62 260 -65 351 c 1,21,22
 -30 370 -30 370 49 411 c 1,23,24
 49 212 49 212 140 212 c 0,25,26
 189 212 189 212 185 272 c 0,27,28
 183 306 183 306 166 334 c 0,29,30
 155 351 155 351 133 385 c 1,31,-1
 223 452 l 1,32,33
 260 403 260 403 287 330 c 0,34,35
 310 268 310 268 310 237 c 0,0,1
326 747 m 0,36,37
 326 588 326 588 132 542 c 2,38,-1
 -278 445 l 1,39,-1
 -317 550 l 1,40,-1
 -278 567 l 2,41,42
 -216 594 -216 594 -216 653 c 0,43,44
 -216 687 -216 687 -241 687 c 0,45,46
 -263 687 -263 687 -299 661 c 1,47,-1
 -344 726 l 1,48,49
 -290 802 -290 802 -226 800 c 0,50,51
 -121 798 -121 798 -121 694 c 0,52,53
 -121 636 -121 636 -152 587 c 1,54,-1
 -42 629 l 1,55,56
 -73 680 -73 680 -73 744 c 0,57,58
 -73 823 -73 823 -4 879 c 0,59,60
 56 928 56 928 118 928 c 0,61,62
 196 928 196 928 259 877 c 0,63,64
 326 823 326 823 326 747 c 0,36,37
215 747 m 0,65,66
 215 810 215 810 125 810 c 0,67,68
 95 810 95 810 68 790 c 128,-1,69
 41 770 41 770 41 741 c 0,70,71
 41 707 41 707 67.5 682.5 c 128,-1,72
 94 658 94 658 128 661 c 0,73,74
 215 668 215 668 215 747 c 0,65,66
EndSplineSet
Ligature2: "'ccmp' Glyph Composition/Decomposition in Arabic lookup 4 subtable" afii57457 afii57452
EndChar

StartChar: afii62883
Encoding: 64607 64607 230
Width: 0
GlyphClass: 4
Flags: W
AnchorPoint: "Anchor-2" 0 0 mark 0
AnchorPoint: "Anchor-0" 0 0 mark 0
LayerCount: 2
Fore
SplineSet
333 692 m 0,0,1
 333 625 333 625 296 578 c 0,2,3
 257 528 257 528 191 528 c 0,4,5
 84 528 84 528 28 609 c 1,6,7
 -34 463 -34 463 -163 463 c 0,8,9
 -306 463 -306 463 -306 626 c 0,10,11
 -306 697 -306 697 -243 831 c 1,12,-1
 -154 786 l 1,13,14
 -191 689 -191 689 -191 671 c 0,15,16
 -191 602 -191 602 -143 602 c 0,17,18
 -73 602 -73 602 -51 675 c 0,19,20
 -39 716 -39 716 -42 806 c 1,21,22
 -7 826 -7 826 72 866 c 1,23,24
 72 667 72 667 163 667 c 0,25,26
 212 667 212 667 208 727 c 0,27,28
 206 759 206 759 189 790 c 0,29,30
 172 815 172 815 156 841 c 1,31,-1
 246 908 l 1,32,33
 283 859 283 859 310 786 c 0,34,35
 333 723 333 723 333 692 c 0,0,1
307 356 m 1,36,-1
 -253 217 l 1,37,-1
 -284 332 l 1,38,-1
 279 474 l 1,39,-1
 307 356 l 1,36,-1
313 145 m 1,40,-1
 -246 6 l 1,41,-1
 -277 121 l 1,42,-1
 285 264 l 1,43,-1
 313 145 l 1,40,-1
EndSplineSet
Ligature2: "'ccmp' Glyph Composition/Decomposition in Arabic lookup 4 subtable" afii57457 afii57453
EndChar

StartChar: afii62884
Encoding: 64608 64608 231
Width: 0
GlyphClass: 4
Flags: W
AnchorPoint: "Anchor-2" 0 0 mark 0
AnchorPoint: "Anchor-0" 0 0 mark 0
LayerCount: 2
Fore
SplineSet
284 583 m 1,0,-1
 -275 444 l 1,1,-1
 -306 559 l 1,2,-1
 256 702 l 1,3,-1
 284 583 l 1,0,-1
329 232 m 0,4,5
 329 165 329 165 292 118 c 0,6,7
 253 68 253 68 187 68 c 0,8,9
 80 68 80 68 24 148 c 1,10,11
 -38 2 -38 2 -167 2 c 0,12,13
 -310 2 -310 2 -310 165 c 0,14,15
 -310 237 -310 237 -247 371 c 1,16,-1
 -158 325 l 1,17,18
 -195 229 -195 229 -195 211 c 0,19,20
 -195 141 -195 141 -147 141 c 0,21,22
 -76 141 -76 141 -55 214 c 0,23,24
 -43 255 -43 255 -46 346 c 1,25,26
 -11 365 -11 365 68 406 c 1,27,28
 68 207 68 207 159 207 c 0,29,30
 208 207 208 207 204 267 c 0,31,32
 202 301 202 301 185 329 c 0,33,34
 174 346 174 346 152 380 c 1,35,-1
 242 447 l 1,36,37
 279 398 279 398 306 325 c 0,38,39
 329 263 329 263 329 232 c 0,4,5
EndSplineSet
Ligature2: "'ccmp' Glyph Composition/Decomposition in Arabic lookup 4 subtable" afii57457 afii57454
EndChar

StartChar: afii62885
Encoding: 64609 64609 232
Width: 0
GlyphClass: 4
Flags: W
AnchorPoint: "Anchor-2" 0 0 mark 0
AnchorPoint: "Anchor-0" 0 0 mark 0
LayerCount: 2
Fore
SplineSet
326 234 m 0,0,1
 326 167 326 167 289 120 c 0,2,3
 250 70 250 70 184 70 c 0,4,5
 77 70 77 70 21 150 c 1,6,7
 -41 4 -41 4 -170 4 c 0,8,9
 -313 4 -313 4 -313 167 c 0,10,11
 -313 239 -313 239 -250 373 c 1,12,-1
 -161 327 l 1,13,14
 -198 231 -198 231 -198 213 c 0,15,16
 -198 143 -198 143 -150 143 c 0,17,18
 -79 143 -79 143 -58 216 c 0,19,20
 -46 257 -46 257 -49 348 c 1,21,22
 -14 367 -14 367 65 408 c 1,23,24
 65 209 65 209 156 209 c 0,25,26
 205 209 205 209 201 269 c 0,27,28
 199 303 199 303 182 331 c 0,29,30
 171 348 171 348 149 382 c 1,31,-1
 239 449 l 1,32,33
 276 400 276 400 303 327 c 0,34,35
 326 265 326 265 326 234 c 0,0,1
209 740 m 0,36,37
 209 801 209 801 118 801 c 0,38,39
 87 801 87 801 59 780 c 128,-1,40
 31 759 31 759 31 729 c 0,41,42
 31 695 31 695 59.5 672.5 c 128,-1,43
 88 650 88 650 122 653 c 0,44,45
 209 660 209 660 209 740 c 0,36,37
-48 625 m 1,46,47
 -80 676 -80 676 -80 732 c 0,48,49
 -80 811 -80 811 -10 869 c 0,50,51
 51 920 51 920 112 920 c 0,52,53
 190 920 190 920 253 870 c 0,54,55
 320 816 320 816 320 740 c 0,56,57
 320 580 320 580 126 534 c 2,58,-1
 -274 440 l 1,59,-1
 -302 548 l 1,60,61
 -205 576 -205 576 -48 625 c 1,46,47
EndSplineSet
Ligature2: "'ccmp' Glyph Composition/Decomposition in Arabic lookup 4 subtable" afii57457 afii57455
EndChar

StartChar: afii62886
Encoding: 64610 64610 233
Width: 0
GlyphClass: 4
Flags: W
AnchorPoint: "Anchor-2" 0 0 mark 0
AnchorPoint: "Anchor-0" 0 0 mark 0
LayerCount: 2
Fore
SplineSet
310 142 m 1,0,-1
 -250 3 l 1,1,-1
 -281 118 l 1,2,-1
 282 261 l 1,3,-1
 310 142 l 1,0,-1
331 473 m 0,4,5
 331 406 331 406 294 359 c 0,6,7
 255 309 255 309 189 309 c 0,8,9
 82 309 82 309 26 389 c 1,10,11
 -36 244 -36 244 -165 244 c 0,12,13
 -308 244 -308 244 -308 407 c 0,14,15
 -308 478 -308 478 -245 612 c 1,16,-1
 -156 567 l 1,17,18
 -193 470 -193 470 -193 452 c 0,19,20
 -193 382 -193 382 -145 382 c 0,21,22
 -75 382 -75 382 -53 456 c 0,23,24
 -41 497 -41 497 -44 587 c 1,25,26
 -9 606 -9 606 70 647 c 1,27,28
 70 448 70 448 161 448 c 0,29,30
 210 448 210 448 206 508 c 0,31,32
 204 542 204 542 187 570 c 0,33,34
 176 587 176 587 154 622 c 1,35,-1
 244 688 l 1,36,37
 281 641 281 641 308 566 c 0,38,39
 331 503 331 503 331 473 c 0,4,5
EndSplineSet
Ligature2: "'ccmp' Glyph Composition/Decomposition in Arabic lookup 4 subtable" afii57457 afii57456
EndChar

StartChar: afii62945
Encoding: 65554 -1 234
Width: 1798
GlyphClass: 3
Flags: W
LayerCount: 2
Fore
SplineSet
1796 403 m 2,0,1
 1796 304 1796 304 1778.5 228.5 c 128,-1,2
 1761 153 1761 153 1723 102 c 128,-1,3
 1685 51 1685 51 1625 25.5 c 128,-1,4
 1565 0 1565 0 1480 0 c 0,5,6
 1437 0 1437 0 1396.5 12 c 128,-1,7
 1356 24 1356 24 1322 45.5 c 128,-1,8
 1288 67 1288 67 1262 97 c 128,-1,9
 1236 127 1236 127 1223 163 c 1,10,11
 1210 122 1210 122 1185 90 c 128,-1,12
 1160 58 1160 58 1125.5 35.5 c 128,-1,13
 1091 13 1091 13 1049.5 1 c 128,-1,14
 1008 -11 1008 -11 962 -11 c 0,15,16
 746 -11 746 -11 674 202 c 1,17,18
 588 184 588 184 524 184 c 0,19,20
 453 184 453 184 391.5 200.5 c 128,-1,21
 330 217 330 217 283 247.5 c 128,-1,22
 236 278 236 278 206.5 322 c 128,-1,23
 177 366 177 366 170 421 c 0,24,25
 166 433 166 433 166 451 c 0,26,27
 166 481 166 481 192.5 515 c 128,-1,28
 219 549 219 549 269 586.5 c 128,-1,29
 319 624 319 624 389.5 664.5 c 128,-1,30
 460 705 460 705 549 747 c 1,31,-1
 528 869 l 1,32,-1
 712 927 l 1,33,-1
 799 434 l 2,34,35
 828 267 828 267 962 267 c 0,36,37
 1077 267 1077 267 1077 458 c 2,38,-1
 1077 1008 l 1,39,-1
 1314 1008 l 1,40,-1
 1314 601 l 2,41,42
 1314 278 1314 278 1442 278 c 0,43,44
 1521 278 1521 278 1547 323 c 0,45,46
 1566 357 1566 357 1566 458 c 2,47,-1
 1566 1008 l 1,48,-1
 1796 1008 l 1,49,-1
 1796 403 l 2,0,1
615 396 m 1,50,-1
 576 587 l 1,51,52
 525 567 525 567 470.5 543 c 128,-1,53
 416 519 416 519 358 490 c 1,54,55
 344 470 344 470 344 456 c 0,56,57
 344 424 344 424 387.5 404.5 c 128,-1,58
 431 385 431 385 530 385 c 0,59,60
 577 385 577 385 615 396 c 1,50,-1
EndSplineSet
EndChar

StartChar: afii64184
Encoding: 65010 65010 235
Width: 1854
GlyphClass: 3
Flags: W
AnchorPoint: "Anchor-1" 1395 -345 baselig 0
AnchorPoint: "Anchor-0" 1725 1140 baselig 0
AnchorPoint: "Anchor-1" 1035 -375 baselig 1
AnchorPoint: "Anchor-0" 1245 1110 baselig 1
AnchorPoint: "Anchor-1" 390 -420 baselig 2
AnchorPoint: "Anchor-0" 300 915 baselig 2
LayerCount: 2
Fore
SplineSet
1796 403 m 2,0,1
 1796 304 1796 304 1778.5 228.5 c 128,-1,2
 1761 153 1761 153 1723 102 c 128,-1,3
 1685 51 1685 51 1625 25.5 c 128,-1,4
 1565 0 1565 0 1480 0 c 0,5,6
 1437 0 1437 0 1396.5 12 c 128,-1,7
 1356 24 1356 24 1322 45.5 c 128,-1,8
 1288 67 1288 67 1262 97 c 128,-1,9
 1236 127 1236 127 1223 163 c 1,10,11
 1210 122 1210 122 1185 90 c 128,-1,12
 1160 58 1160 58 1125.5 35.5 c 128,-1,13
 1091 13 1091 13 1049.5 1 c 128,-1,14
 1008 -11 1008 -11 962 -11 c 0,15,16
 746 -11 746 -11 674 202 c 1,17,18
 588 184 588 184 524 184 c 0,19,20
 453 184 453 184 391.5 200.5 c 128,-1,21
 330 217 330 217 283 247.5 c 128,-1,22
 236 278 236 278 206.5 322 c 128,-1,23
 177 366 177 366 170 421 c 0,24,25
 166 433 166 433 166 451 c 0,26,27
 166 481 166 481 192.5 515 c 128,-1,28
 219 549 219 549 269 586.5 c 128,-1,29
 319 624 319 624 389.5 664.5 c 128,-1,30
 460 705 460 705 549 747 c 1,31,-1
 528 869 l 1,32,-1
 712 927 l 1,33,-1
 799 434 l 2,34,35
 828 267 828 267 962 267 c 0,36,37
 1077 267 1077 267 1077 458 c 2,38,-1
 1077 1008 l 1,39,-1
 1314 1008 l 1,40,-1
 1314 601 l 2,41,42
 1314 278 1314 278 1442 278 c 0,43,44
 1521 278 1521 278 1547 323 c 0,45,46
 1566 357 1566 357 1566 458 c 2,47,-1
 1566 1008 l 1,48,-1
 1796 1008 l 1,49,-1
 1796 403 l 2,0,1
615 396 m 1,50,-1
 576 587 l 1,51,52
 525 567 525 567 470.5 543 c 128,-1,53
 416 519 416 519 358 490 c 1,54,55
 344 470 344 470 344 456 c 0,56,57
 344 424 344 424 387.5 404.5 c 128,-1,58
 431 385 431 385 530 385 c 0,59,60
 577 385 577 385 615 396 c 1,50,-1
1250 1668 m 1,61,-1
 1219 1386 l 1,62,-1
 1178 1386 l 1,63,-1
 1154 1668 l 1,64,-1
 1250 1668 l 1,61,-1
1204 1169 m 1,65,66
 1195 1150 1195 1150 1181 1136 c 128,-1,67
 1167 1122 1167 1122 1150 1113 c 128,-1,68
 1133 1104 1133 1104 1115 1099.5 c 128,-1,69
 1097 1095 1097 1095 1080 1095 c 0,70,71
 1055 1095 1055 1095 1034 1104 c 128,-1,72
 1013 1113 1013 1113 999 1129 c 128,-1,73
 985 1145 985 1145 977 1167 c 128,-1,74
 969 1189 969 1189 969 1215 c 0,75,76
 969 1302 969 1302 1021 1352 c 1,77,-1
 1080 1312 l 1,78,79
 1069 1290 1069 1290 1059.5 1271.5 c 128,-1,80
 1050 1253 1050 1253 1050 1223 c 0,81,82
 1050 1192 1050 1192 1083 1192 c 0,83,84
 1109 1192 1109 1192 1116 1195 c 0,85,86
 1169 1214 1169 1214 1169 1321 c 1,87,-1
 1235 1321 l 1,88,89
 1235 1217 1235 1217 1289 1195 c 0,90,91
 1295 1192 1295 1192 1324 1192 c 256,92,93
 1353 1192 1353 1192 1353 1222 c 0,94,95
 1353 1262 1353 1262 1316 1307 c 1,96,-1
 1384 1352 l 1,97,98
 1418 1302 1418 1302 1423 1293 c 0,99,100
 1438 1263 1438 1263 1438 1215 c 0,101,102
 1438 1095 1438 1095 1324 1095 c 0,103,104
 1295 1095 1295 1095 1260 1113 c 128,-1,105
 1225 1131 1225 1131 1204 1169 c 1,65,66
EndSplineSet
Ligature2: "'rlig' Required Ligatures in Arabic lookup 6 subtable" afii62817 afii62818 uniFC63 afii62828
Ligature2: "'rlig' Required Ligatures in Arabic lookup 6 subtable" afii62817 afii62818 afii57457 uni0670 afii62828
EndChar

StartChar: afii57415.001
Encoding: 1575 1575 249
Width: 404
GlyphClass: 2
Flags: W
AnchorPoint: "Anchor-3" 225 -420 basechar 0
AnchorPoint: "Anchor-2" 270 1365 basechar 0
LayerCount: 2
Fore
SplineSet
403 1 m 1,0,-1
 167 1 l 1,1,-1
 167 1234 l 1,2,-1
 403 1234 l 1,3,-1
 403 1 l 1,0,-1
EndSplineSet
Substitution2: "'fina' Terminal Forms in Arabic lookup 3 subtable" afii62760
EndChar

StartChar: afii62760.001
Encoding: 65555 -1 250
Width: 647
GlyphClass: 2
Flags: W
LayerCount: 2
Fore
SplineSet
647 1 m 1,0,-1
 469 1 l 2,1,2
 311 1 311 1 231 141 c 0,3,4
 167 254 167 254 167 425 c 2,5,-1
 167 1235 l 1,6,-1
 403 1235 l 1,7,-1
 403 509 l 2,8,9
 403 391 403 391 429 340 c 0,10,11
 467 268 467 268 573 268 c 2,12,-1
 647 268 l 1,13,-1
 647 1 l 1,0,-1
EndSplineSet
EndChar

StartChar: afii57421
Encoding: 1581 1581 269
Width: 1428
GlyphClass: 2
Flags: W
AnchorPoint: "Anchor-3" 705 -1215 basechar 0
AnchorPoint: "Anchor-2" 750 1215 basechar 0
LayerCount: 2
Fore
SplineSet
793 349 m 0,0,1
 420 75 420 75 420 -127 c 0,2,3
 420 -200 420 -200 450.5 -263.5 c 128,-1,4
 481 -327 481 -327 535 -374 c 128,-1,5
 589 -421 589 -421 664.5 -448 c 128,-1,6
 740 -475 740 -475 830 -475 c 0,7,8
 984 -475 984 -475 1097 -436 c 0,9,10
 1126 -425 1126 -425 1169.5 -408.5 c 128,-1,11
 1213 -392 1213 -392 1272 -371 c 1,12,-1
 1386 -590 l 1,13,14
 1106 -742 1106 -742 838 -742 c 0,15,16
 678 -742 678 -742 553.5 -702.5 c 128,-1,17
 429 -663 429 -663 343 -587 c 128,-1,18
 257 -511 257 -511 212 -399.5 c 128,-1,19
 167 -288 167 -288 167 -145 c 0,20,21
 167 122 167 122 429 354 c 0,22,23
 601 506 601 506 798 590 c 1,24,25
 797 590 797 590 737 593.5 c 128,-1,26
 677 597 677 597 570 597 c 0,27,28
 484 597 484 597 421.5 578 c 128,-1,29
 359 559 359 559 314 531 c 1,30,-1
 194 727 l 1,31,32
 318 859 318 859 460 859 c 2,33,-1
 469 859 l 1,34,-1
 1428 824 l 1,35,-1
 1403 570 l 1,36,-1
 1314 570 l 2,37,38
 1094 570 1094 570 793 349 c 0,0,1
EndSplineSet
Substitution2: "'fina' Terminal Forms in Arabic lookup 3 subtable" afii62776
Substitution2: "'medi' Medial Forms in Arabic lookup 2 subtable" afii62775
Substitution2: "'init' Initial Forms in Arabic lookup 0 subtable" afii62774
EndChar

StartChar: afii62776
Encoding: 65186 65186 270
Width: 1466
GlyphClass: 2
Flags: W
AnchorPoint: "Anchor-3" 675 -1215 basechar 0
AnchorPoint: "Anchor-2" 840 1125 basechar 0
LayerCount: 2
Fore
SplineSet
424 -131 m 0,0,1
 424 -210 424 -210 454 -273.5 c 128,-1,2
 484 -337 484 -337 537.5 -382 c 128,-1,3
 591 -427 591 -427 665.5 -451 c 128,-1,4
 740 -475 740 -475 830 -475 c 0,5,6
 984 -475 984 -475 1097 -436 c 0,7,8
 1126 -425 1126 -425 1169 -408 c 128,-1,9
 1212 -391 1212 -391 1272 -371 c 1,10,-1
 1386 -590 l 1,11,12
 1105 -742 1105 -742 838 -742 c 0,13,14
 678 -742 678 -742 553.5 -702.5 c 128,-1,15
 429 -663 429 -663 343 -587 c 128,-1,16
 257 -511 257 -511 212 -399.5 c 128,-1,17
 167 -288 167 -288 167 -145 c 0,18,19
 167 124 167 124 437 360 c 0,20,21
 515 427 515 427 604 484.5 c 128,-1,22
 693 542 693 542 799 592 c 1,23,24
 756 594 756 594 714.5 595 c 128,-1,25
 673 596 673 596 631 596 c 0,26,27
 562 596 562 596 495 593 c 0,28,29
 415 590 415 590 315 532 c 1,30,-1
 195 727 l 1,31,32
 216 754 216 754 247 778 c 128,-1,33
 278 802 278 802 314 820 c 128,-1,34
 350 838 350 838 387.5 848.5 c 128,-1,35
 425 859 425 859 459 859 c 2,36,-1
 1428 824 l 1,37,-1
 1403 570 l 1,38,-1
 1314 570 l 2,39,40
 1279 570 1279 570 1237 562 c 128,-1,41
 1195 554 1195 554 1153.5 540.5 c 128,-1,42
 1112 527 1112 527 1074.5 509.5 c 128,-1,43
 1037 492 1037 492 1011 474 c 1,44,45
 1075 380 1075 380 1117 346 c 0,46,47
 1210 268 1210 268 1342 268 c 2,48,-1
 1466 268 l 1,49,-1
 1466 1 l 1,50,-1
 1299 1 l 2,51,52
 1124 1 1124 1 1023 90 c 0,53,54
 946 158 946 158 830 370 c 1,55,56
 688 283 688 283 574 161 c 0,57,58
 424 0 424 0 424 -131 c 0,0,1
EndSplineSet
EndChar

StartChar: afii62774
Encoding: 65187 65187 271
Width: 986
GlyphClass: 2
Flags: W
AnchorPoint: "Anchor-3" 375 -645 basechar 0
AnchorPoint: "Anchor-2" 345 1065 basechar 0
LayerCount: 2
Fore
SplineSet
986 185 m 1,0,-1
 851 1 l 1,1,-1
 -70 1 l 1,2,-1
 -70 268 l 1,3,-1
 577 268 l 1,4,-1
 330 512 l 2,5,6
 277 564 277 564 208 564 c 2,7,-1
 48 564 l 1,8,-1
 48 807 l 1,9,-1
 254 807 l 2,10,11
 365 807 365 807 438 734 c 2,12,-1
 986 185 l 1,0,-1
EndSplineSet
EndChar

StartChar: afii62775
Encoding: 65188 65188 272
Width: 1286
GlyphClass: 2
Flags: W
AnchorPoint: "Anchor-3" 465 -510 basechar 0
AnchorPoint: "Anchor-2" 630 1155 basechar 0
LayerCount: 2
Fore
SplineSet
851 431 m 1,0,1
 885 393 885 393 916 366 c 128,-1,2
 947 339 947 339 975 322 c 0,3,4
 1066 268 1066 268 1192 268 c 2,5,-1
 1286 268 l 1,6,-1
 1286 1 l 1,7,-1
 1088 1 l 2,8,9
 945 1 945 1 855 88 c 0,10,11
 812 128 812 128 702 303 c 1,12,13
 617 230 617 230 556.5 180 c 128,-1,14
 496 130 496 130 454 104 c 0,15,16
 296 1 296 1 160 1 c 2,17,-1
 -70 1 l 1,18,-1
 -70 268 l 1,19,-1
 26 268 l 2,20,21
 184 268 184 268 297 311 c 0,22,23
 344 328 344 328 391.5 355.5 c 128,-1,24
 439 383 439 383 488 421 c 0,25,26
 508 437 508 437 557 474.5 c 128,-1,27
 606 512 606 512 685 575 c 1,28,29
 475 581 475 581 377 581 c 0,30,31
 340 581 340 581 314 579.5 c 128,-1,32
 288 578 288 578 262 572 c 128,-1,33
 236 566 236 566 205 553.5 c 128,-1,34
 174 541 174 541 127 519 c 1,35,-1
 13 714 l 1,36,37
 127 845 127 845 287 845 c 1,38,-1
 1244 811 l 1,39,-1
 1216 556 l 1,40,-1
 1129 556 l 2,41,42
 1048 556 1048 556 975 516 c 0,43,44
 956 505 956 505 926 484 c 128,-1,45
 896 463 896 463 851 431 c 1,0,1
EndSplineSet
EndChar

StartChar: afii57423
Encoding: 1583 1583 277
Width: 1181
GlyphClass: 2
Flags: W
AnchorPoint: "Anchor-3" 645 -540 basechar 0
AnchorPoint: "Anchor-2" 645 1275 basechar 0
LayerCount: 2
Fore
SplineSet
930 338 m 0,0,1
 930 377 930 377 902 411 c 2,2,-1
 520 870 l 1,3,-1
 701 1043 l 1,4,-1
 1087 578 l 2,5,6
 1180 466 1180 466 1180 342 c 0,7,8
 1180 1 1180 1 794 1 c 2,9,-1
 538 1 l 2,10,11
 334 1 334 1 162 220 c 1,12,-1
 325 383 l 1,13,14
 325 372 325 372 385 324 c 0,15,16
 455 268 455 268 510 268 c 2,17,-1
 805 268 l 2,18,19
 930 268 930 268 930 338 c 0,0,1
EndSplineSet
Substitution2: "'fina' Terminal Forms in Arabic lookup 3 subtable" afii62780
PairPos2: "'kern' Horizontal Kerning in Arabic lookup 0 subtable" uni06B4.init dx=0 dy=0 dh=0 dv=0 dx=0 dy=0 dh=-250 dv=0
PairPos2: "'kern' Horizontal Kerning in Arabic lookup 0 subtable" uni06B4 dx=0 dy=0 dh=0 dv=0 dx=0 dy=0 dh=-250 dv=0
PairPos2: "'kern' Horizontal Kerning in Arabic lookup 0 subtable" uniFB98 dx=0 dy=0 dh=0 dv=0 dx=0 dy=0 dh=-250 dv=0
PairPos2: "'kern' Horizontal Kerning in Arabic lookup 0 subtable" uni06B3 dx=0 dy=0 dh=0 dv=0 dx=0 dy=0 dh=-250 dv=0
PairPos2: "'kern' Horizontal Kerning in Arabic lookup 0 subtable" uni06B2.init dx=0 dy=0 dh=0 dv=0 dx=0 dy=0 dh=-250 dv=0
PairPos2: "'kern' Horizontal Kerning in Arabic lookup 0 subtable" uniFB9C dx=0 dy=0 dh=0 dv=0 dx=0 dy=0 dh=-250 dv=0
PairPos2: "'kern' Horizontal Kerning in Arabic lookup 0 subtable" uni06B1 dx=0 dy=0 dh=0 dv=0 dx=0 dy=0 dh=-250 dv=0
PairPos2: "'kern' Horizontal Kerning in Arabic lookup 0 subtable" uni06B0.init dx=0 dy=0 dh=0 dv=0 dx=0 dy=0 dh=-250 dv=0
PairPos2: "'kern' Horizontal Kerning in Arabic lookup 0 subtable" uni06B0 dx=0 dy=0 dh=0 dv=0 dx=0 dy=0 dh=-250 dv=0
PairPos2: "'kern' Horizontal Kerning in Arabic lookup 0 subtable" uni06AE.init dx=0 dy=0 dh=0 dv=0 dx=0 dy=0 dh=-250 dv=0
PairPos2: "'kern' Horizontal Kerning in Arabic lookup 0 subtable" uniFBD5 dx=0 dy=0 dh=0 dv=0 dx=0 dy=0 dh=-250 dv=0
PairPos2: "'kern' Horizontal Kerning in Arabic lookup 0 subtable" uni06AB.init dx=0 dy=0 dh=0 dv=0 dx=0 dy=0 dh=-250 dv=0
PairPos2: "'kern' Horizontal Kerning in Arabic lookup 0 subtable" uni06AB.init dx=0 dy=0 dh=0 dv=0 dx=0 dy=0 dh=-250 dv=0
PairPos2: "'kern' Horizontal Kerning in Arabic lookup 0 subtable" uni06AB.001 dx=0 dy=0 dh=0 dv=0 dx=0 dy=0 dh=-250 dv=0
PairPos2: "'kern' Horizontal Kerning in Arabic lookup 0 subtable" afii57410 dx=0 dy=0 dh=0 dv=0 dx=0 dy=0 dh=-250 dv=0
PairPos2: "'kern' Horizontal Kerning in Arabic lookup 0 subtable" afii62965 dx=0 dy=0 dh=0 dv=0 dx=0 dy=0 dh=-250 dv=0
PairPos2: "'kern' Horizontal Kerning in Arabic lookup 0 subtable" afii57509 dx=0 dy=0 dh=0 dv=0 dx=0 dy=0 dh=-250 dv=0
PairPos2: "'kern' Horizontal Kerning in Arabic lookup 0 subtable" afii52305 dx=0 dy=0 dh=0 dv=0 dx=0 dy=0 dh=-250 dv=0
PairPos2: "'kern' Horizontal Kerning in Arabic lookup 0 subtable" afii57567 dx=0 dy=0 dh=0 dv=0 dx=0 dy=0 dh=-250 dv=0
EndChar

StartChar: afii62780
Encoding: 65194 65194 278
Width: 1524
GlyphClass: 2
Flags: W
AnchorPoint: "Anchor-3" 675 -570 basechar 0
AnchorPoint: "Anchor-2" 690 1230 basechar 0
LayerCount: 2
Fore
SplineSet
855 1 m 2,0,-1
 539 1 l 2,1,2
 351 1 351 1 163 220 c 1,3,-1
 326 383 l 1,4,5
 430 268 430 268 511 268 c 2,6,-1
 827 268 l 2,7,8
 968 268 968 268 968 326 c 0,9,10
 968 350 968 350 949 387 c 2,11,-1
 681 908 l 1,12,-1
 890 1043 l 1,13,-1
 1171 487 l 2,14,15
 1229 372 1229 372 1300 322 c 0,16,17
 1379 268 1379 268 1502 268 c 2,18,-1
 1524 268 l 1,19,-1
 1524 1 l 1,20,-1
 1494 1 l 2,21,22
 1312 1 1312 1 1175 157 c 1,23,24
 1104 67 1104 67 1067 44 c 0,25,26
 997 1 997 1 855 1 c 2,0,-1
EndSplineSet
PairPos2: "'kern' Horizontal Kerning in Arabic lookup 0 subtable" uni06B4.init dx=0 dy=0 dh=0 dv=0 dx=0 dy=0 dh=-200 dv=0
PairPos2: "'kern' Horizontal Kerning in Arabic lookup 0 subtable" uni06B4 dx=0 dy=0 dh=0 dv=0 dx=0 dy=0 dh=-200 dv=0
PairPos2: "'kern' Horizontal Kerning in Arabic lookup 0 subtable" uniFB98 dx=0 dy=0 dh=0 dv=0 dx=0 dy=0 dh=-200 dv=0
PairPos2: "'kern' Horizontal Kerning in Arabic lookup 0 subtable" uni06B3 dx=0 dy=0 dh=0 dv=0 dx=0 dy=0 dh=-200 dv=0
PairPos2: "'kern' Horizontal Kerning in Arabic lookup 0 subtable" uni06B2.init dx=0 dy=0 dh=0 dv=0 dx=0 dy=0 dh=-200 dv=0
PairPos2: "'kern' Horizontal Kerning in Arabic lookup 0 subtable" uniFB9C dx=0 dy=0 dh=0 dv=0 dx=0 dy=0 dh=-200 dv=0
PairPos2: "'kern' Horizontal Kerning in Arabic lookup 0 subtable" uni06B1 dx=0 dy=0 dh=0 dv=0 dx=0 dy=0 dh=-200 dv=0
PairPos2: "'kern' Horizontal Kerning in Arabic lookup 0 subtable" uni06B0.init dx=0 dy=0 dh=0 dv=0 dx=0 dy=0 dh=-200 dv=0
PairPos2: "'kern' Horizontal Kerning in Arabic lookup 0 subtable" uni06B0 dx=0 dy=0 dh=0 dv=0 dx=0 dy=0 dh=-200 dv=0
PairPos2: "'kern' Horizontal Kerning in Arabic lookup 0 subtable" uni06AE.init dx=0 dy=0 dh=0 dv=0 dx=0 dy=0 dh=-200 dv=0
PairPos2: "'kern' Horizontal Kerning in Arabic lookup 0 subtable" uniFBD5 dx=0 dy=0 dh=0 dv=0 dx=0 dy=0 dh=-200 dv=0
PairPos2: "'kern' Horizontal Kerning in Arabic lookup 0 subtable" uni06AB.init dx=0 dy=0 dh=0 dv=0 dx=0 dy=0 dh=-200 dv=0
PairPos2: "'kern' Horizontal Kerning in Arabic lookup 0 subtable" uni06AB.init dx=0 dy=0 dh=0 dv=0 dx=0 dy=0 dh=-200 dv=0
PairPos2: "'kern' Horizontal Kerning in Arabic lookup 0 subtable" uni06AB.001 dx=0 dy=0 dh=0 dv=0 dx=0 dy=0 dh=-200 dv=0
PairPos2: "'kern' Horizontal Kerning in Arabic lookup 0 subtable" afii57410 dx=0 dy=0 dh=0 dv=0 dx=0 dy=0 dh=-200 dv=0
PairPos2: "'kern' Horizontal Kerning in Arabic lookup 0 subtable" afii62965 dx=0 dy=0 dh=0 dv=0 dx=0 dy=0 dh=-200 dv=0
PairPos2: "'kern' Horizontal Kerning in Arabic lookup 0 subtable" afii57509 dx=0 dy=0 dh=0 dv=0 dx=0 dy=0 dh=-200 dv=0
PairPos2: "'kern' Horizontal Kerning in Arabic lookup 0 subtable" afii52305 dx=0 dy=0 dh=0 dv=0 dx=0 dy=0 dh=-200 dv=0
PairPos2: "'kern' Horizontal Kerning in Arabic lookup 0 subtable" afii57567 dx=0 dy=0 dh=0 dv=0 dx=0 dy=0 dh=-200 dv=0
EndChar

StartChar: afii57425
Encoding: 1585 1585 281
Width: 952
GlyphClass: 2
Flags: W
AnchorPoint: "Anchor-3" 285 -885 basechar 0
AnchorPoint: "Anchor-2" 570 1020 basechar 0
LayerCount: 2
Fore
SplineSet
865 -83 m 0,0,1
 754 -272 754 -272 174 -608 c 1,2,-1
 56 -388 l 1,3,4
 205 -309 205 -309 320 -235 c 0,5,6
 598 -56 598 -56 674 70 c 0,7,8
 700 113 700 113 700 175 c 0,9,10
 700 223 700 223 681 261 c 1,11,12
 653 338 653 338 556 519 c 1,13,-1
 775 647 l 1,14,-1
 907 383 l 2,15,16
 953 291 953 291 953 196 c 0,17,18
 953 66 953 66 865 -83 c 0,0,1
EndSplineSet
Substitution2: "'fina' Terminal Forms in Arabic lookup 3 subtable" afii62782
PairPos2: "'kern' Horizontal Kerning in Arabic lookup 1 subtable" afii57415 dx=0 dy=0 dh=0 dv=0 dx=0 dy=0 dh=-100 dv=0
PairPos2: "'kern' Horizontal Kerning in Arabic lookup 1 subtable" afii62840 dx=0 dy=0 dh=0 dv=0 dx=0 dy=0 dh=-100 dv=0
PairPos2: "'kern' Horizontal Kerning in Arabic lookup 1 subtable" afii62838 dx=0 dy=0 dh=0 dv=0 dx=0 dy=0 dh=-100 dv=0
PairPos2: "'kern' Horizontal Kerning in Arabic lookup 1 subtable" afii62836 dx=0 dy=0 dh=0 dv=0 dx=0 dy=0 dh=-100 dv=0
PairPos2: "'kern' Horizontal Kerning in Arabic lookup 1 subtable" afii62834 dx=0 dy=0 dh=0 dv=0 dx=0 dy=0 dh=-100 dv=0
PairPos2: "'kern' Horizontal Kerning in Arabic lookup 1 subtable" afii62829 dx=0 dy=0 dh=0 dv=0 dx=0 dy=0 dh=-100 dv=0
PairPos2: "'kern' Horizontal Kerning in Arabic lookup 1 subtable" afii57448 dx=0 dy=0 dh=0 dv=0 dx=0 dy=0 dh=-100 dv=0
PairPos2: "'kern' Horizontal Kerning in Arabic lookup 1 subtable" afii57470 dx=0 dy=0 dh=0 dv=0 dx=0 dy=0 dh=-100 dv=0
PairPos2: "'kern' Horizontal Kerning in Arabic lookup 1 subtable" afii62783 dx=0 dy=0 dh=0 dv=0 dx=0 dy=0 dh=-100 dv=0
PairPos2: "'kern' Horizontal Kerning in Arabic lookup 1 subtable" afii57426 dx=0 dy=0 dh=0 dv=0 dx=0 dy=0 dh=-100 dv=0
PairPos2: "'kern' Horizontal Kerning in Arabic lookup 1 subtable" afii62782 dx=0 dy=0 dh=0 dv=0 dx=0 dy=0 dh=-100 dv=0
PairPos2: "'kern' Horizontal Kerning in Arabic lookup 1 subtable" afii57425 dx=0 dy=0 dh=0 dv=0 dx=0 dy=0 dh=-100 dv=0
PairPos2: "'kern' Horizontal Kerning in Arabic lookup 1 subtable" afii57415.001 dx=0 dy=0 dh=0 dv=0 dx=0 dy=0 dh=-100 dv=0
PairPos2: "'kern' Horizontal Kerning in Arabic lookup 1 subtable" afii62755 dx=0 dy=0 dh=0 dv=0 dx=0 dy=0 dh=-100 dv=0
PairPos2: "'kern' Horizontal Kerning in Arabic lookup 1 subtable" afii57412 dx=0 dy=0 dh=0 dv=0 dx=0 dy=0 dh=-100 dv=0
PairPos2: "'kern' Horizontal Kerning in Arabic lookup 1 subtable" afii52400 dx=0 dy=0 dh=0 dv=0 dx=0 dy=0 dh=-100 dv=0
PairPos2: "'kern' Horizontal Kerning in Arabic lookup 0 subtable" uniFC5D dx=0 dy=0 dh=0 dv=0 dx=0 dy=0 dh=-50 dv=0
PairPos2: "'kern' Horizontal Kerning in Arabic lookup 0 subtable" uni06FC.init dx=0 dy=0 dh=0 dv=0 dx=0 dy=0 dh=-80 dv=0
PairPos2: "'kern' Horizontal Kerning in Arabic lookup 0 subtable" uni06FB.init dx=0 dy=0 dh=0 dv=0 dx=0 dy=0 dh=-50 dv=0
PairPos2: "'kern' Horizontal Kerning in Arabic lookup 0 subtable" uni06FB dx=0 dy=0 dh=0 dv=0 dx=0 dy=0 dh=-80 dv=0
PairPos2: "'kern' Horizontal Kerning in Arabic lookup 0 subtable" uni06FA.init dx=0 dy=0 dh=0 dv=0 dx=0 dy=0 dh=-50 dv=0
PairPos2: "'kern' Horizontal Kerning in Arabic lookup 0 subtable" uni06FA dx=0 dy=0 dh=0 dv=0 dx=0 dy=0 dh=-80 dv=0
PairPos2: "'kern' Horizontal Kerning in Arabic lookup 0 subtable" uni06D1 dx=0 dy=0 dh=0 dv=0 dx=0 dy=0 dh=-50 dv=0
PairPos2: "'kern' Horizontal Kerning in Arabic lookup 0 subtable" uni06D0 dx=0 dy=0 dh=0 dv=0 dx=0 dy=0 dh=-50 dv=0
PairPos2: "'kern' Horizontal Kerning in Arabic lookup 0 subtable" uni06CE.init dx=0 dy=0 dh=0 dv=0 dx=0 dy=0 dh=50 dv=0
PairPos2: "'kern' Horizontal Kerning in Arabic lookup 0 subtable" uni06CE dx=0 dy=0 dh=0 dv=0 dx=0 dy=0 dh=-50 dv=0
PairPos2: "'kern' Horizontal Kerning in Arabic lookup 0 subtable" uni06CD dx=0 dy=0 dh=0 dv=0 dx=0 dy=0 dh=-50 dv=0
PairPos2: "'kern' Horizontal Kerning in Arabic lookup 0 subtable" uni06BF.init dx=0 dy=0 dh=0 dv=0 dx=0 dy=0 dh=-80 dv=0
PairPos2: "'kern' Horizontal Kerning in Arabic lookup 0 subtable" uni06BC.init dx=0 dy=0 dh=0 dv=0 dx=0 dy=0 dh=50 dv=0
PairPos2: "'kern' Horizontal Kerning in Arabic lookup 0 subtable" uni06B9.init dx=0 dy=0 dh=0 dv=0 dx=0 dy=0 dh=50 dv=0
PairPos2: "'kern' Horizontal Kerning in Arabic lookup 0 subtable" uni06B8.init dx=0 dy=0 dh=0 dv=0 dx=0 dy=0 dh=140 dv=0
PairPos2: "'kern' Horizontal Kerning in Arabic lookup 0 subtable" uni06B7.init dx=0 dy=0 dh=0 dv=0 dx=0 dy=0 dh=-50 dv=0
PairPos2: "'kern' Horizontal Kerning in Arabic lookup 0 subtable" uni06B6.init dx=0 dy=0 dh=0 dv=0 dx=0 dy=0 dh=-50 dv=0
PairPos2: "'kern' Horizontal Kerning in Arabic lookup 0 subtable" uni06B5.init dx=0 dy=0 dh=0 dv=0 dx=0 dy=0 dh=-50 dv=0
PairPos2: "'kern' Horizontal Kerning in Arabic lookup 0 subtable" uni06B4.init dx=0 dy=0 dh=0 dv=0 dx=0 dy=0 dh=-350 dv=0
PairPos2: "'kern' Horizontal Kerning in Arabic lookup 0 subtable" uni06B4 dx=0 dy=0 dh=0 dv=0 dx=0 dy=0 dh=-350 dv=0
PairPos2: "'kern' Horizontal Kerning in Arabic lookup 0 subtable" uniFB98 dx=0 dy=0 dh=0 dv=0 dx=0 dy=0 dh=-350 dv=0
PairPos2: "'kern' Horizontal Kerning in Arabic lookup 0 subtable" uni06B3 dx=0 dy=0 dh=0 dv=0 dx=0 dy=0 dh=-350 dv=0
PairPos2: "'kern' Horizontal Kerning in Arabic lookup 0 subtable" uni06B2.init dx=0 dy=0 dh=0 dv=0 dx=0 dy=0 dh=-350 dv=0
PairPos2: "'kern' Horizontal Kerning in Arabic lookup 0 subtable" uniFB9C dx=0 dy=0 dh=0 dv=0 dx=0 dy=0 dh=-350 dv=0
PairPos2: "'kern' Horizontal Kerning in Arabic lookup 0 subtable" uni06B1 dx=0 dy=0 dh=0 dv=0 dx=0 dy=0 dh=-350 dv=0
PairPos2: "'kern' Horizontal Kerning in Arabic lookup 0 subtable" uni06B0.init dx=0 dy=0 dh=0 dv=0 dx=0 dy=0 dh=-350 dv=0
PairPos2: "'kern' Horizontal Kerning in Arabic lookup 0 subtable" uni06B0 dx=0 dy=0 dh=0 dv=0 dx=0 dy=0 dh=-350 dv=0
PairPos2: "'kern' Horizontal Kerning in Arabic lookup 0 subtable" uni06AE.init dx=0 dy=0 dh=0 dv=0 dx=0 dy=0 dh=-350 dv=0
PairPos2: "'kern' Horizontal Kerning in Arabic lookup 0 subtable" uniFBD5 dx=0 dy=0 dh=0 dv=0 dx=0 dy=0 dh=-350 dv=0
PairPos2: "'kern' Horizontal Kerning in Arabic lookup 0 subtable" uni06AB.init dx=0 dy=0 dh=0 dv=0 dx=0 dy=0 dh=-350 dv=0
PairPos2: "'kern' Horizontal Kerning in Arabic lookup 0 subtable" uni06AB.init dx=0 dy=0 dh=0 dv=0 dx=0 dy=0 dh=-350 dv=0
PairPos2: "'kern' Horizontal Kerning in Arabic lookup 0 subtable" uni06AB.001 dx=0 dy=0 dh=0 dv=0 dx=0 dy=0 dh=-350 dv=0
PairPos2: "'kern' Horizontal Kerning in Arabic lookup 0 subtable" uniFB70 dx=0 dy=0 dh=0 dv=0 dx=0 dy=0 dh=-50 dv=0
PairPos2: "'kern' Horizontal Kerning in Arabic lookup 0 subtable" uni06A6 dx=0 dy=0 dh=0 dv=0 dx=0 dy=0 dh=-50 dv=0
PairPos2: "'kern' Horizontal Kerning in Arabic lookup 0 subtable" uni06A5 dx=0 dy=0 dh=0 dv=0 dx=0 dy=0 dh=-50 dv=0
PairPos2: "'kern' Horizontal Kerning in Arabic lookup 0 subtable" uni06A3 dx=0 dy=0 dh=0 dv=0 dx=0 dy=0 dh=-50 dv=0
PairPos2: "'kern' Horizontal Kerning in Arabic lookup 0 subtable" uni06A2 dx=0 dy=0 dh=0 dv=0 dx=0 dy=0 dh=-50 dv=0
PairPos2: "'kern' Horizontal Kerning in Arabic lookup 0 subtable" uni06A0.init dx=0 dy=0 dh=0 dv=0 dx=0 dy=0 dh=-80 dv=0
PairPos2: "'kern' Horizontal Kerning in Arabic lookup 0 subtable" uni06A0 dx=0 dy=0 dh=0 dv=0 dx=0 dy=0 dh=140 dv=0
PairPos2: "'kern' Horizontal Kerning in Arabic lookup 0 subtable" uni069F dx=0 dy=0 dh=0 dv=0 dx=0 dy=0 dh=-50 dv=0
PairPos2: "'kern' Horizontal Kerning in Arabic lookup 0 subtable" uni069E.init dx=0 dy=0 dh=0 dv=0 dx=0 dy=0 dh=-50 dv=0
PairPos2: "'kern' Horizontal Kerning in Arabic lookup 0 subtable" uni069E dx=0 dy=0 dh=0 dv=0 dx=0 dy=0 dh=-80 dv=0
PairPos2: "'kern' Horizontal Kerning in Arabic lookup 0 subtable" uni069D.init dx=0 dy=0 dh=0 dv=0 dx=0 dy=0 dh=-50 dv=0
PairPos2: "'kern' Horizontal Kerning in Arabic lookup 0 subtable" uni069D dx=0 dy=0 dh=0 dv=0 dx=0 dy=0 dh=-80 dv=0
PairPos2: "'kern' Horizontal Kerning in Arabic lookup 0 subtable" uni069C.init dx=0 dy=0 dh=0 dv=0 dx=0 dy=0 dh=-50 dv=0
PairPos2: "'kern' Horizontal Kerning in Arabic lookup 0 subtable" uni069C dx=0 dy=0 dh=0 dv=0 dx=0 dy=0 dh=-80 dv=0
PairPos2: "'kern' Horizontal Kerning in Arabic lookup 0 subtable" uni069B.init dx=0 dy=0 dh=0 dv=0 dx=0 dy=0 dh=-50 dv=0
PairPos2: "'kern' Horizontal Kerning in Arabic lookup 0 subtable" uni069B dx=0 dy=0 dh=0 dv=0 dx=0 dy=0 dh=-80 dv=0
PairPos2: "'kern' Horizontal Kerning in Arabic lookup 0 subtable" uni069A.init dx=0 dy=0 dh=0 dv=0 dx=0 dy=0 dh=-50 dv=0
PairPos2: "'kern' Horizontal Kerning in Arabic lookup 0 subtable" uni069A dx=0 dy=0 dh=0 dv=0 dx=0 dy=0 dh=-80 dv=0
PairPos2: "'kern' Horizontal Kerning in Arabic lookup 0 subtable" uniFB80 dx=0 dy=0 dh=0 dv=0 dx=0 dy=0 dh=-80 dv=0
PairPos2: "'kern' Horizontal Kerning in Arabic lookup 0 subtable" uni0685.init dx=0 dy=0 dh=0 dv=0 dx=0 dy=0 dh=-80 dv=0
PairPos2: "'kern' Horizontal Kerning in Arabic lookup 0 subtable" uniFB74 dx=0 dy=0 dh=0 dv=0 dx=0 dy=0 dh=-80 dv=0
PairPos2: "'kern' Horizontal Kerning in Arabic lookup 0 subtable" uniFB78 dx=0 dy=0 dh=0 dv=0 dx=0 dy=0 dh=-80 dv=0
PairPos2: "'kern' Horizontal Kerning in Arabic lookup 0 subtable" uni0682.init dx=0 dy=0 dh=0 dv=0 dx=0 dy=0 dh=-80 dv=0
PairPos2: "'kern' Horizontal Kerning in Arabic lookup 0 subtable" uni0681.init dx=0 dy=0 dh=0 dv=0 dx=0 dy=0 dh=-80 dv=0
PairPos2: "'kern' Horizontal Kerning in Arabic lookup 0 subtable" uniFB5C dx=0 dy=0 dh=0 dv=0 dx=0 dy=0 dh=50 dv=0
PairPos2: "'kern' Horizontal Kerning in Arabic lookup 0 subtable" uni0680 dx=0 dy=0 dh=0 dv=0 dx=0 dy=0 dh=-50 dv=0
PairPos2: "'kern' Horizontal Kerning in Arabic lookup 0 subtable" uniFB64 dx=0 dy=0 dh=0 dv=0 dx=0 dy=0 dh=-50 dv=0
PairPos2: "'kern' Horizontal Kerning in Arabic lookup 0 subtable" uni067F dx=0 dy=0 dh=0 dv=0 dx=0 dy=0 dh=-50 dv=0
PairPos2: "'kern' Horizontal Kerning in Arabic lookup 0 subtable" uni067D.init dx=0 dy=0 dh=0 dv=0 dx=0 dy=0 dh=-50 dv=0
PairPos2: "'kern' Horizontal Kerning in Arabic lookup 0 subtable" uni067D dx=0 dy=0 dh=0 dv=0 dx=0 dy=0 dh=-50 dv=0
PairPos2: "'kern' Horizontal Kerning in Arabic lookup 0 subtable" uni067C.init dx=0 dy=0 dh=0 dv=0 dx=0 dy=0 dh=50 dv=0
PairPos2: "'kern' Horizontal Kerning in Arabic lookup 0 subtable" uni067C dx=0 dy=0 dh=0 dv=0 dx=0 dy=0 dh=-50 dv=0
PairPos2: "'kern' Horizontal Kerning in Arabic lookup 0 subtable" uniFB54 dx=0 dy=0 dh=0 dv=0 dx=0 dy=0 dh=50 dv=0
PairPos2: "'kern' Horizontal Kerning in Arabic lookup 0 subtable" uni067B dx=0 dy=0 dh=0 dv=0 dx=0 dy=0 dh=-50 dv=0
PairPos2: "'kern' Horizontal Kerning in Arabic lookup 0 subtable" uniFB60 dx=0 dy=0 dh=0 dv=0 dx=0 dy=0 dh=-50 dv=0
PairPos2: "'kern' Horizontal Kerning in Arabic lookup 0 subtable" uni067A dx=0 dy=0 dh=0 dv=0 dx=0 dy=0 dh=-50 dv=0
PairPos2: "'kern' Horizontal Kerning in Arabic lookup 0 subtable" uni0678 dx=0 dy=0 dh=0 dv=0 dx=0 dy=0 dh=-50 dv=0
PairPos2: "'kern' Horizontal Kerning in Arabic lookup 0 subtable" uni0675 dx=0 dy=0 dh=0 dv=0 dx=0 dy=0 dh=-90 dv=0
PairPos2: "'kern' Horizontal Kerning in Arabic lookup 0 subtable" uni0673 dx=0 dy=0 dh=0 dv=0 dx=0 dy=0 dh=150 dv=0
PairPos2: "'kern' Horizontal Kerning in Arabic lookup 0 subtable" uni0672 dx=0 dy=0 dh=0 dv=0 dx=0 dy=0 dh=-90 dv=0
PairPos2: "'kern' Horizontal Kerning in Arabic lookup 0 subtable" uni06D3 dx=0 dy=0 dh=0 dv=0 dx=0 dy=0 dh=-100 dv=0
PairPos2: "'kern' Horizontal Kerning in Arabic lookup 0 subtable" uni06D2 dx=0 dy=0 dh=0 dv=0 dx=0 dy=0 dh=-100 dv=0
PairPos2: "'kern' Horizontal Kerning in Arabic lookup 0 subtable" uniFBA8 dx=0 dy=0 dh=0 dv=0 dx=0 dy=0 dh=50 dv=0
PairPos2: "'kern' Horizontal Kerning in Arabic lookup 0 subtable" uniFB68 dx=0 dy=0 dh=0 dv=0 dx=0 dy=0 dh=-50 dv=0
PairPos2: "'kern' Horizontal Kerning in Arabic lookup 0 subtable" uni0679 dx=0 dy=0 dh=0 dv=0 dx=0 dy=0 dh=-50 dv=0
PairPos2: "'kern' Horizontal Kerning in Arabic lookup 0 subtable" uniFBFE dx=0 dy=0 dh=0 dv=0 dx=0 dy=0 dh=50 dv=0
PairPos2: "'kern' Horizontal Kerning in Arabic lookup 0 subtable" afii62831 dx=0 dy=0 dh=0 dv=0 dx=0 dy=0 dh=50 dv=0
PairPos2: "'kern' Horizontal Kerning in Arabic lookup 0 subtable" afii57450 dx=0 dy=0 dh=0 dv=0 dx=0 dy=0 dh=-50 dv=0
PairPos2: "'kern' Horizontal Kerning in Arabic lookup 0 subtable" afii57449 dx=0 dy=0 dh=0 dv=0 dx=0 dy=0 dh=-50 dv=0
PairPos2: "'kern' Horizontal Kerning in Arabic lookup 0 subtable" afii62823 dx=0 dy=0 dh=0 dv=0 dx=0 dy=0 dh=-50 dv=0
PairPos2: "'kern' Horizontal Kerning in Arabic lookup 0 subtable" afii62817 dx=0 dy=0 dh=0 dv=0 dx=0 dy=0 dh=-50 dv=0
PairPos2: "'kern' Horizontal Kerning in Arabic lookup 0 subtable" afii57410 dx=0 dy=0 dh=0 dv=0 dx=0 dy=0 dh=-350 dv=0
PairPos2: "'kern' Horizontal Kerning in Arabic lookup 0 subtable" afii62811 dx=0 dy=0 dh=0 dv=0 dx=0 dy=0 dh=-50 dv=0
PairPos2: "'kern' Horizontal Kerning in Arabic lookup 0 subtable" afii62808 dx=0 dy=0 dh=0 dv=0 dx=0 dy=0 dh=-50 dv=0
PairPos2: "'kern' Horizontal Kerning in Arabic lookup 0 subtable" afii57441 dx=0 dy=0 dh=0 dv=0 dx=0 dy=0 dh=-50 dv=0
PairPos2: "'kern' Horizontal Kerning in Arabic lookup 0 subtable" afii62805 dx=0 dy=0 dh=0 dv=0 dx=0 dy=0 dh=-80 dv=0
PairPos2: "'kern' Horizontal Kerning in Arabic lookup 0 subtable" afii57434 dx=0 dy=0 dh=0 dv=0 dx=0 dy=0 dh=140 dv=0
PairPos2: "'kern' Horizontal Kerning in Arabic lookup 0 subtable" afii62802 dx=0 dy=0 dh=0 dv=0 dx=0 dy=0 dh=-80 dv=0
PairPos2: "'kern' Horizontal Kerning in Arabic lookup 0 subtable" afii57433 dx=0 dy=0 dh=0 dv=0 dx=0 dy=0 dh=140 dv=0
PairPos2: "'kern' Horizontal Kerning in Arabic lookup 0 subtable" afii62799 dx=0 dy=0 dh=0 dv=0 dx=0 dy=0 dh=-50 dv=0
PairPos2: "'kern' Horizontal Kerning in Arabic lookup 0 subtable" afii57432 dx=0 dy=0 dh=0 dv=0 dx=0 dy=0 dh=-50 dv=0
PairPos2: "'kern' Horizontal Kerning in Arabic lookup 0 subtable" afii62796 dx=0 dy=0 dh=0 dv=0 dx=0 dy=0 dh=-50 dv=0
PairPos2: "'kern' Horizontal Kerning in Arabic lookup 0 subtable" afii57431 dx=0 dy=0 dh=0 dv=0 dx=0 dy=0 dh=-50 dv=0
PairPos2: "'kern' Horizontal Kerning in Arabic lookup 0 subtable" afii62793 dx=0 dy=0 dh=0 dv=0 dx=0 dy=0 dh=-50 dv=0
PairPos2: "'kern' Horizontal Kerning in Arabic lookup 0 subtable" afii57430 dx=0 dy=0 dh=0 dv=0 dx=0 dy=0 dh=-80 dv=0
PairPos2: "'kern' Horizontal Kerning in Arabic lookup 0 subtable" afii62790 dx=0 dy=0 dh=0 dv=0 dx=0 dy=0 dh=-50 dv=0
PairPos2: "'kern' Horizontal Kerning in Arabic lookup 0 subtable" afii57429 dx=0 dy=0 dh=0 dv=0 dx=0 dy=0 dh=-80 dv=0
PairPos2: "'kern' Horizontal Kerning in Arabic lookup 0 subtable" afii62787 dx=0 dy=0 dh=0 dv=0 dx=0 dy=0 dh=-50 dv=0
PairPos2: "'kern' Horizontal Kerning in Arabic lookup 0 subtable" afii57428 dx=0 dy=0 dh=0 dv=0 dx=0 dy=0 dh=-80 dv=0
PairPos2: "'kern' Horizontal Kerning in Arabic lookup 0 subtable" afii62784 dx=0 dy=0 dh=0 dv=0 dx=0 dy=0 dh=-50 dv=0
PairPos2: "'kern' Horizontal Kerning in Arabic lookup 0 subtable" afii57427 dx=0 dy=0 dh=0 dv=0 dx=0 dy=0 dh=-80 dv=0
PairPos2: "'kern' Horizontal Kerning in Arabic lookup 0 subtable" afii62777 dx=0 dy=0 dh=0 dv=0 dx=0 dy=0 dh=-80 dv=0
PairPos2: "'kern' Horizontal Kerning in Arabic lookup 0 subtable" afii62774 dx=0 dy=0 dh=0 dv=0 dx=0 dy=0 dh=-80 dv=0
PairPos2: "'kern' Horizontal Kerning in Arabic lookup 0 subtable" afii62771 dx=0 dy=0 dh=0 dv=0 dx=0 dy=0 dh=-80 dv=0
PairPos2: "'kern' Horizontal Kerning in Arabic lookup 0 subtable" afii62768 dx=0 dy=0 dh=0 dv=0 dx=0 dy=0 dh=-50 dv=0
PairPos2: "'kern' Horizontal Kerning in Arabic lookup 0 subtable" afii57419 dx=0 dy=0 dh=0 dv=0 dx=0 dy=0 dh=-50 dv=0
PairPos2: "'kern' Horizontal Kerning in Arabic lookup 0 subtable" afii62765 dx=0 dy=0 dh=0 dv=0 dx=0 dy=0 dh=-50 dv=0
PairPos2: "'kern' Horizontal Kerning in Arabic lookup 0 subtable" afii57418 dx=0 dy=0 dh=0 dv=0 dx=0 dy=0 dh=-50 dv=0
PairPos2: "'kern' Horizontal Kerning in Arabic lookup 0 subtable" afii62761 dx=0 dy=0 dh=0 dv=0 dx=0 dy=0 dh=50 dv=0
PairPos2: "'kern' Horizontal Kerning in Arabic lookup 0 subtable" afii57416 dx=0 dy=0 dh=0 dv=0 dx=0 dy=0 dh=-50 dv=0
PairPos2: "'kern' Horizontal Kerning in Arabic lookup 0 subtable" afii62757 dx=0 dy=0 dh=0 dv=0 dx=0 dy=0 dh=-50 dv=0
PairPos2: "'kern' Horizontal Kerning in Arabic lookup 0 subtable" afii57414 dx=0 dy=0 dh=0 dv=0 dx=0 dy=0 dh=-50 dv=0
PairPos2: "'kern' Horizontal Kerning in Arabic lookup 0 subtable" afii57413 dx=0 dy=0 dh=0 dv=0 dx=0 dy=0 dh=150 dv=0
PairPos2: "'kern' Horizontal Kerning in Arabic lookup 0 subtable" afii57411 dx=0 dy=0 dh=0 dv=0 dx=0 dy=0 dh=-90 dv=0
PairPos2: "'kern' Horizontal Kerning in Arabic lookup 0 subtable" afii57555 dx=0 dy=0 dh=0 dv=0 dx=0 dy=0 dh=-50 dv=0
PairPos2: "'kern' Horizontal Kerning in Arabic lookup 0 subtable" afii62965 dx=0 dy=0 dh=0 dv=0 dx=0 dy=0 dh=-350 dv=0
PairPos2: "'kern' Horizontal Kerning in Arabic lookup 0 subtable" afii57509 dx=0 dy=0 dh=0 dv=0 dx=0 dy=0 dh=-350 dv=0
PairPos2: "'kern' Horizontal Kerning in Arabic lookup 0 subtable" afii52305 dx=0 dy=0 dh=0 dv=0 dx=0 dy=0 dh=-350 dv=0
PairPos2: "'kern' Horizontal Kerning in Arabic lookup 0 subtable" afii57567 dx=0 dy=0 dh=0 dv=0 dx=0 dy=0 dh=-350 dv=0
PairPos2: "'kern' Horizontal Kerning in Arabic lookup 0 subtable" afii62959 dx=0 dy=0 dh=0 dv=0 dx=0 dy=0 dh=-80 dv=0
PairPos2: "'kern' Horizontal Kerning in Arabic lookup 0 subtable" afii57505 dx=0 dy=0 dh=0 dv=0 dx=0 dy=0 dh=-50 dv=0
PairPos2: "'kern' Horizontal Kerning in Arabic lookup 0 subtable" afii62956 dx=0 dy=0 dh=0 dv=0 dx=0 dy=0 dh=50 dv=0
PairPos2: "'kern' Horizontal Kerning in Arabic lookup 0 subtable" afii57506 dx=0 dy=0 dh=0 dv=0 dx=0 dy=0 dh=-50 dv=0
PairPos2: "'kern' Horizontal Kerning in Arabic lookup 0 subtable" afii57372 dx=0 dy=0 dh=0 dv=0 dx=0 dy=0 dh=-50 dv=0
EndChar

StartChar: afii62782
Encoding: 65198 65198 282
Width: 1219
GlyphClass: 2
Flags: W
AnchorPoint: "Anchor-3" 315 -945 basechar 0
AnchorPoint: "Anchor-2" 570 885 basechar 0
LayerCount: 2
Fore
SplineSet
925 129 m 1,0,1
 917 96 917 96 862 1 c 0,2,3
 751 -189 751 -189 167 -520 c 1,4,-1
 48 -305 l 1,5,6
 190 -228 190 -228 312 -150 c 0,7,8
 593 30 593 30 667 153 c 0,9,10
 693 196 693 196 693 256 c 0,11,12
 693 305 693 305 674 345 c 1,13,14
 646 421 646 421 549 602 c 1,15,-1
 764 731 l 1,16,-1
 899 466 l 2,17,18
 946 373 946 373 980 340 c 0,19,20
 1053 268 1053 268 1189 268 c 2,21,-1
 1219 268 l 1,22,-1
 1219 1 l 1,23,-1
 1190 1 l 2,24,25
 1024 1 1024 1 925 129 c 1,0,1
EndSplineSet
PairPos2: "'kern' Horizontal Kerning in Arabic lookup 1 subtable" afii57415 dx=0 dy=0 dh=0 dv=0 dx=0 dy=0 dh=-100 dv=0
PairPos2: "'kern' Horizontal Kerning in Arabic lookup 1 subtable" afii62840 dx=0 dy=0 dh=0 dv=0 dx=0 dy=0 dh=-100 dv=0
PairPos2: "'kern' Horizontal Kerning in Arabic lookup 1 subtable" afii62838 dx=0 dy=0 dh=0 dv=0 dx=0 dy=0 dh=-100 dv=0
PairPos2: "'kern' Horizontal Kerning in Arabic lookup 1 subtable" afii62836 dx=0 dy=0 dh=0 dv=0 dx=0 dy=0 dh=-100 dv=0
PairPos2: "'kern' Horizontal Kerning in Arabic lookup 1 subtable" afii62834 dx=0 dy=0 dh=0 dv=0 dx=0 dy=0 dh=-100 dv=0
PairPos2: "'kern' Horizontal Kerning in Arabic lookup 1 subtable" afii62829 dx=0 dy=0 dh=0 dv=0 dx=0 dy=0 dh=-100 dv=0
PairPos2: "'kern' Horizontal Kerning in Arabic lookup 1 subtable" afii57448 dx=0 dy=0 dh=0 dv=0 dx=0 dy=0 dh=-100 dv=0
PairPos2: "'kern' Horizontal Kerning in Arabic lookup 1 subtable" afii57470 dx=0 dy=0 dh=0 dv=0 dx=0 dy=0 dh=-100 dv=0
PairPos2: "'kern' Horizontal Kerning in Arabic lookup 1 subtable" afii62783 dx=0 dy=0 dh=0 dv=0 dx=0 dy=0 dh=-100 dv=0
PairPos2: "'kern' Horizontal Kerning in Arabic lookup 1 subtable" afii57426 dx=0 dy=0 dh=0 dv=0 dx=0 dy=0 dh=-100 dv=0
PairPos2: "'kern' Horizontal Kerning in Arabic lookup 1 subtable" afii62782 dx=0 dy=0 dh=0 dv=0 dx=0 dy=0 dh=-100 dv=0
PairPos2: "'kern' Horizontal Kerning in Arabic lookup 1 subtable" afii57425 dx=0 dy=0 dh=0 dv=0 dx=0 dy=0 dh=-100 dv=0
PairPos2: "'kern' Horizontal Kerning in Arabic lookup 1 subtable" afii57415.001 dx=0 dy=0 dh=0 dv=0 dx=0 dy=0 dh=-100 dv=0
PairPos2: "'kern' Horizontal Kerning in Arabic lookup 1 subtable" afii62755 dx=0 dy=0 dh=0 dv=0 dx=0 dy=0 dh=-100 dv=0
PairPos2: "'kern' Horizontal Kerning in Arabic lookup 1 subtable" afii57412 dx=0 dy=0 dh=0 dv=0 dx=0 dy=0 dh=-100 dv=0
PairPos2: "'kern' Horizontal Kerning in Arabic lookup 1 subtable" afii52400 dx=0 dy=0 dh=0 dv=0 dx=0 dy=0 dh=-100 dv=0
PairPos2: "'kern' Horizontal Kerning in Arabic lookup 0 subtable" afii57415 dx=0 dy=0 dh=0 dv=0 dx=0 dy=0 dh=-50 dv=0
PairPos2: "'kern' Horizontal Kerning in Arabic lookup 0 subtable" uni068A dx=0 dy=0 dh=0 dv=0 dx=0 dy=0 dh=-50 dv=0
PairPos2: "'kern' Horizontal Kerning in Arabic lookup 0 subtable" uni06FC.init dx=0 dy=0 dh=0 dv=0 dx=0 dy=0 dh=-70 dv=0
PairPos2: "'kern' Horizontal Kerning in Arabic lookup 0 subtable" uni06FB.init dx=0 dy=0 dh=0 dv=0 dx=0 dy=0 dh=-50 dv=0
PairPos2: "'kern' Horizontal Kerning in Arabic lookup 0 subtable" uni06FB dx=0 dy=0 dh=0 dv=0 dx=0 dy=0 dh=-70 dv=0
PairPos2: "'kern' Horizontal Kerning in Arabic lookup 0 subtable" uni06FA.init dx=0 dy=0 dh=0 dv=0 dx=0 dy=0 dh=-50 dv=0
PairPos2: "'kern' Horizontal Kerning in Arabic lookup 0 subtable" uni06FA dx=0 dy=0 dh=0 dv=0 dx=0 dy=0 dh=-70 dv=0
PairPos2: "'kern' Horizontal Kerning in Arabic lookup 0 subtable" uni06BF.init dx=0 dy=0 dh=0 dv=0 dx=0 dy=0 dh=-50 dv=0
PairPos2: "'kern' Horizontal Kerning in Arabic lookup 0 subtable" uni06B8.init dx=0 dy=0 dh=0 dv=0 dx=0 dy=0 dh=150 dv=0
PairPos2: "'kern' Horizontal Kerning in Arabic lookup 0 subtable" uni06B7.init dx=0 dy=0 dh=0 dv=0 dx=0 dy=0 dh=-50 dv=0
PairPos2: "'kern' Horizontal Kerning in Arabic lookup 0 subtable" uni06B6.init dx=0 dy=0 dh=0 dv=0 dx=0 dy=0 dh=-50 dv=0
PairPos2: "'kern' Horizontal Kerning in Arabic lookup 0 subtable" uni06B5.init dx=0 dy=0 dh=0 dv=0 dx=0 dy=0 dh=-50 dv=0
PairPos2: "'kern' Horizontal Kerning in Arabic lookup 0 subtable" uni06B4.init dx=0 dy=0 dh=0 dv=0 dx=0 dy=0 dh=-350 dv=0
PairPos2: "'kern' Horizontal Kerning in Arabic lookup 0 subtable" uni06B4 dx=0 dy=0 dh=0 dv=0 dx=0 dy=0 dh=-350 dv=0
PairPos2: "'kern' Horizontal Kerning in Arabic lookup 0 subtable" uniFB98 dx=0 dy=0 dh=0 dv=0 dx=0 dy=0 dh=-350 dv=0
PairPos2: "'kern' Horizontal Kerning in Arabic lookup 0 subtable" uni06B3 dx=0 dy=0 dh=0 dv=0 dx=0 dy=0 dh=-350 dv=0
PairPos2: "'kern' Horizontal Kerning in Arabic lookup 0 subtable" uni06B2.init dx=0 dy=0 dh=0 dv=0 dx=0 dy=0 dh=-350 dv=0
PairPos2: "'kern' Horizontal Kerning in Arabic lookup 0 subtable" uniFB9C dx=0 dy=0 dh=0 dv=0 dx=0 dy=0 dh=-350 dv=0
PairPos2: "'kern' Horizontal Kerning in Arabic lookup 0 subtable" uni06B1 dx=0 dy=0 dh=0 dv=0 dx=0 dy=0 dh=-350 dv=0
PairPos2: "'kern' Horizontal Kerning in Arabic lookup 0 subtable" uni06B0.init dx=0 dy=0 dh=0 dv=0 dx=0 dy=0 dh=-350 dv=0
PairPos2: "'kern' Horizontal Kerning in Arabic lookup 0 subtable" uni06B0 dx=0 dy=0 dh=0 dv=0 dx=0 dy=0 dh=-350 dv=0
PairPos2: "'kern' Horizontal Kerning in Arabic lookup 0 subtable" uni06AE.init dx=0 dy=0 dh=0 dv=0 dx=0 dy=0 dh=-350 dv=0
PairPos2: "'kern' Horizontal Kerning in Arabic lookup 0 subtable" uni06AE dx=0 dy=0 dh=0 dv=0 dx=0 dy=0 dh=-50 dv=0
PairPos2: "'kern' Horizontal Kerning in Arabic lookup 0 subtable" uniFBD5 dx=0 dy=0 dh=0 dv=0 dx=0 dy=0 dh=-350 dv=0
PairPos2: "'kern' Horizontal Kerning in Arabic lookup 0 subtable" uni06AD dx=0 dy=0 dh=0 dv=0 dx=0 dy=0 dh=-50 dv=0
PairPos2: "'kern' Horizontal Kerning in Arabic lookup 0 subtable" uni06AB.init dx=0 dy=0 dh=0 dv=0 dx=0 dy=0 dh=-350 dv=0
PairPos2: "'kern' Horizontal Kerning in Arabic lookup 0 subtable" uni06AB dx=0 dy=0 dh=0 dv=0 dx=0 dy=0 dh=-50 dv=0
PairPos2: "'kern' Horizontal Kerning in Arabic lookup 0 subtable" uni06AB.init dx=0 dy=0 dh=0 dv=0 dx=0 dy=0 dh=-350 dv=0
PairPos2: "'kern' Horizontal Kerning in Arabic lookup 0 subtable" uni06AB.001 dx=0 dy=0 dh=0 dv=0 dx=0 dy=0 dh=-350 dv=0
PairPos2: "'kern' Horizontal Kerning in Arabic lookup 0 subtable" uniFB70 dx=0 dy=0 dh=0 dv=0 dx=0 dy=0 dh=-70 dv=0
PairPos2: "'kern' Horizontal Kerning in Arabic lookup 0 subtable" uni06A6 dx=0 dy=0 dh=0 dv=0 dx=0 dy=0 dh=-50 dv=0
PairPos2: "'kern' Horizontal Kerning in Arabic lookup 0 subtable" uni06A5 dx=0 dy=0 dh=0 dv=0 dx=0 dy=0 dh=-50 dv=0
PairPos2: "'kern' Horizontal Kerning in Arabic lookup 0 subtable" uni06A3 dx=0 dy=0 dh=0 dv=0 dx=0 dy=0 dh=-50 dv=0
PairPos2: "'kern' Horizontal Kerning in Arabic lookup 0 subtable" uni06A2 dx=0 dy=0 dh=0 dv=0 dx=0 dy=0 dh=-50 dv=0
PairPos2: "'kern' Horizontal Kerning in Arabic lookup 0 subtable" uni06A0.init dx=0 dy=0 dh=0 dv=0 dx=0 dy=0 dh=-70 dv=0
PairPos2: "'kern' Horizontal Kerning in Arabic lookup 0 subtable" uni06A0 dx=0 dy=0 dh=0 dv=0 dx=0 dy=0 dh=100 dv=0
PairPos2: "'kern' Horizontal Kerning in Arabic lookup 0 subtable" uni069F dx=0 dy=0 dh=0 dv=0 dx=0 dy=0 dh=-50 dv=0
PairPos2: "'kern' Horizontal Kerning in Arabic lookup 0 subtable" uni069E.init dx=0 dy=0 dh=0 dv=0 dx=0 dy=0 dh=-50 dv=0
PairPos2: "'kern' Horizontal Kerning in Arabic lookup 0 subtable" uni069E dx=0 dy=0 dh=0 dv=0 dx=0 dy=0 dh=-70 dv=0
PairPos2: "'kern' Horizontal Kerning in Arabic lookup 0 subtable" uni069D.init dx=0 dy=0 dh=0 dv=0 dx=0 dy=0 dh=-50 dv=0
PairPos2: "'kern' Horizontal Kerning in Arabic lookup 0 subtable" uni069D dx=0 dy=0 dh=0 dv=0 dx=0 dy=0 dh=-70 dv=0
PairPos2: "'kern' Horizontal Kerning in Arabic lookup 0 subtable" uni069C.init dx=0 dy=0 dh=0 dv=0 dx=0 dy=0 dh=-50 dv=0
PairPos2: "'kern' Horizontal Kerning in Arabic lookup 0 subtable" uni069C dx=0 dy=0 dh=0 dv=0 dx=0 dy=0 dh=-70 dv=0
PairPos2: "'kern' Horizontal Kerning in Arabic lookup 0 subtable" uni069B.init dx=0 dy=0 dh=0 dv=0 dx=0 dy=0 dh=-50 dv=0
PairPos2: "'kern' Horizontal Kerning in Arabic lookup 0 subtable" uni069B dx=0 dy=0 dh=0 dv=0 dx=0 dy=0 dh=-70 dv=0
PairPos2: "'kern' Horizontal Kerning in Arabic lookup 0 subtable" uni069A.init dx=0 dy=0 dh=0 dv=0 dx=0 dy=0 dh=-50 dv=0
PairPos2: "'kern' Horizontal Kerning in Arabic lookup 0 subtable" uni069A dx=0 dy=0 dh=0 dv=0 dx=0 dy=0 dh=-70 dv=0
PairPos2: "'kern' Horizontal Kerning in Arabic lookup 0 subtable" uni068e dx=0 dy=0 dh=0 dv=0 dx=0 dy=0 dh=-50 dv=0
PairPos2: "'kern' Horizontal Kerning in Arabic lookup 0 subtable" uni068d dx=0 dy=0 dh=0 dv=0 dx=0 dy=0 dh=-50 dv=0
PairPos2: "'kern' Horizontal Kerning in Arabic lookup 0 subtable" uni068c dx=0 dy=0 dh=0 dv=0 dx=0 dy=0 dh=-50 dv=0
PairPos2: "'kern' Horizontal Kerning in Arabic lookup 0 subtable" uni068b dx=0 dy=0 dh=0 dv=0 dx=0 dy=0 dh=-50 dv=0
PairPos2: "'kern' Horizontal Kerning in Arabic lookup 0 subtable" uni0689 dx=0 dy=0 dh=0 dv=0 dx=0 dy=0 dh=-50 dv=0
PairPos2: "'kern' Horizontal Kerning in Arabic lookup 0 subtable" uniFB80 dx=0 dy=0 dh=0 dv=0 dx=0 dy=0 dh=-50 dv=0
PairPos2: "'kern' Horizontal Kerning in Arabic lookup 0 subtable" uni0685.init dx=0 dy=0 dh=0 dv=0 dx=0 dy=0 dh=-50 dv=0
PairPos2: "'kern' Horizontal Kerning in Arabic lookup 0 subtable" uniFB74 dx=0 dy=0 dh=0 dv=0 dx=0 dy=0 dh=-50 dv=0
PairPos2: "'kern' Horizontal Kerning in Arabic lookup 0 subtable" uniFB78 dx=0 dy=0 dh=0 dv=0 dx=0 dy=0 dh=-50 dv=0
PairPos2: "'kern' Horizontal Kerning in Arabic lookup 0 subtable" uni0682.init dx=0 dy=0 dh=0 dv=0 dx=0 dy=0 dh=-50 dv=0
PairPos2: "'kern' Horizontal Kerning in Arabic lookup 0 subtable" uni0681.init dx=0 dy=0 dh=0 dv=0 dx=0 dy=0 dh=-50 dv=0
PairPos2: "'kern' Horizontal Kerning in Arabic lookup 0 subtable" uni0680 dx=0 dy=0 dh=0 dv=0 dx=0 dy=0 dh=-50 dv=0
PairPos2: "'kern' Horizontal Kerning in Arabic lookup 0 subtable" uniFB64 dx=0 dy=0 dh=0 dv=0 dx=0 dy=0 dh=-50 dv=0
PairPos2: "'kern' Horizontal Kerning in Arabic lookup 0 subtable" uni067F dx=0 dy=0 dh=0 dv=0 dx=0 dy=0 dh=-50 dv=0
PairPos2: "'kern' Horizontal Kerning in Arabic lookup 0 subtable" uni067D.init dx=0 dy=0 dh=0 dv=0 dx=0 dy=0 dh=-50 dv=0
PairPos2: "'kern' Horizontal Kerning in Arabic lookup 0 subtable" uni067D dx=0 dy=0 dh=0 dv=0 dx=0 dy=0 dh=-50 dv=0
PairPos2: "'kern' Horizontal Kerning in Arabic lookup 0 subtable" uni067C dx=0 dy=0 dh=0 dv=0 dx=0 dy=0 dh=-50 dv=0
PairPos2: "'kern' Horizontal Kerning in Arabic lookup 0 subtable" uni067B dx=0 dy=0 dh=0 dv=0 dx=0 dy=0 dh=-50 dv=0
PairPos2: "'kern' Horizontal Kerning in Arabic lookup 0 subtable" uniFB60 dx=0 dy=0 dh=0 dv=0 dx=0 dy=0 dh=-50 dv=0
PairPos2: "'kern' Horizontal Kerning in Arabic lookup 0 subtable" uni067A dx=0 dy=0 dh=0 dv=0 dx=0 dy=0 dh=-50 dv=0
PairPos2: "'kern' Horizontal Kerning in Arabic lookup 0 subtable" uni0675 dx=0 dy=0 dh=0 dv=0 dx=0 dy=0 dh=-50 dv=0
PairPos2: "'kern' Horizontal Kerning in Arabic lookup 0 subtable" uni0673 dx=0 dy=0 dh=0 dv=0 dx=0 dy=0 dh=100 dv=0
PairPos2: "'kern' Horizontal Kerning in Arabic lookup 0 subtable" uni0672 dx=0 dy=0 dh=0 dv=0 dx=0 dy=0 dh=-50 dv=0
PairPos2: "'kern' Horizontal Kerning in Arabic lookup 0 subtable" uniFBA6 dx=0 dy=0 dh=0 dv=0 dx=0 dy=0 dh=-50 dv=0
PairPos2: "'kern' Horizontal Kerning in Arabic lookup 0 subtable" uni06D3 dx=0 dy=0 dh=0 dv=0 dx=0 dy=0 dh=-100 dv=0
PairPos2: "'kern' Horizontal Kerning in Arabic lookup 0 subtable" uni06D2 dx=0 dy=0 dh=0 dv=0 dx=0 dy=0 dh=-100 dv=0
PairPos2: "'kern' Horizontal Kerning in Arabic lookup 0 subtable" uni0688 dx=0 dy=0 dh=0 dv=0 dx=0 dy=0 dh=-50 dv=0
PairPos2: "'kern' Horizontal Kerning in Arabic lookup 0 subtable" uniFB68 dx=0 dy=0 dh=0 dv=0 dx=0 dy=0 dh=-50 dv=0
PairPos2: "'kern' Horizontal Kerning in Arabic lookup 0 subtable" uni0679 dx=0 dy=0 dh=0 dv=0 dx=0 dy=0 dh=-50 dv=0
PairPos2: "'kern' Horizontal Kerning in Arabic lookup 0 subtable" uniFBA4 dx=0 dy=0 dh=0 dv=0 dx=0 dy=0 dh=-50 dv=0
PairPos2: "'kern' Horizontal Kerning in Arabic lookup 0 subtable" uni06C0 dx=0 dy=0 dh=0 dv=0 dx=0 dy=0 dh=-50 dv=0
PairPos2: "'kern' Horizontal Kerning in Arabic lookup 0 subtable" afii57447 dx=0 dy=0 dh=0 dv=0 dx=0 dy=0 dh=-50 dv=0
PairPos2: "'kern' Horizontal Kerning in Arabic lookup 0 subtable" afii62823 dx=0 dy=0 dh=0 dv=0 dx=0 dy=0 dh=-50 dv=0
PairPos2: "'kern' Horizontal Kerning in Arabic lookup 0 subtable" afii62820 dx=0 dy=0 dh=0 dv=0 dx=0 dy=0 dh=-70 dv=0
PairPos2: "'kern' Horizontal Kerning in Arabic lookup 0 subtable" afii57445 dx=0 dy=0 dh=0 dv=0 dx=0 dy=0 dh=-50 dv=0
PairPos2: "'kern' Horizontal Kerning in Arabic lookup 0 subtable" afii62817 dx=0 dy=0 dh=0 dv=0 dx=0 dy=0 dh=-50 dv=0
PairPos2: "'kern' Horizontal Kerning in Arabic lookup 0 subtable" afii57410 dx=0 dy=0 dh=0 dv=0 dx=0 dy=0 dh=-350 dv=0
PairPos2: "'kern' Horizontal Kerning in Arabic lookup 0 subtable" afii57443 dx=0 dy=0 dh=0 dv=0 dx=0 dy=0 dh=-50 dv=0
PairPos2: "'kern' Horizontal Kerning in Arabic lookup 0 subtable" afii62811 dx=0 dy=0 dh=0 dv=0 dx=0 dy=0 dh=-70 dv=0
PairPos2: "'kern' Horizontal Kerning in Arabic lookup 0 subtable" afii62808 dx=0 dy=0 dh=0 dv=0 dx=0 dy=0 dh=-70 dv=0
PairPos2: "'kern' Horizontal Kerning in Arabic lookup 0 subtable" afii57441 dx=0 dy=0 dh=0 dv=0 dx=0 dy=0 dh=-50 dv=0
PairPos2: "'kern' Horizontal Kerning in Arabic lookup 0 subtable" afii62805 dx=0 dy=0 dh=0 dv=0 dx=0 dy=0 dh=-70 dv=0
PairPos2: "'kern' Horizontal Kerning in Arabic lookup 0 subtable" afii57434 dx=0 dy=0 dh=0 dv=0 dx=0 dy=0 dh=100 dv=0
PairPos2: "'kern' Horizontal Kerning in Arabic lookup 0 subtable" afii62802 dx=0 dy=0 dh=0 dv=0 dx=0 dy=0 dh=-70 dv=0
PairPos2: "'kern' Horizontal Kerning in Arabic lookup 0 subtable" afii57433 dx=0 dy=0 dh=0 dv=0 dx=0 dy=0 dh=100 dv=0
PairPos2: "'kern' Horizontal Kerning in Arabic lookup 0 subtable" afii62799 dx=0 dy=0 dh=0 dv=0 dx=0 dy=0 dh=-50 dv=0
PairPos2: "'kern' Horizontal Kerning in Arabic lookup 0 subtable" afii57432 dx=0 dy=0 dh=0 dv=0 dx=0 dy=0 dh=-50 dv=0
PairPos2: "'kern' Horizontal Kerning in Arabic lookup 0 subtable" afii62796 dx=0 dy=0 dh=0 dv=0 dx=0 dy=0 dh=-50 dv=0
PairPos2: "'kern' Horizontal Kerning in Arabic lookup 0 subtable" afii57431 dx=0 dy=0 dh=0 dv=0 dx=0 dy=0 dh=-50 dv=0
PairPos2: "'kern' Horizontal Kerning in Arabic lookup 0 subtable" afii62793 dx=0 dy=0 dh=0 dv=0 dx=0 dy=0 dh=-50 dv=0
PairPos2: "'kern' Horizontal Kerning in Arabic lookup 0 subtable" afii57430 dx=0 dy=0 dh=0 dv=0 dx=0 dy=0 dh=-70 dv=0
PairPos2: "'kern' Horizontal Kerning in Arabic lookup 0 subtable" afii62790 dx=0 dy=0 dh=0 dv=0 dx=0 dy=0 dh=-50 dv=0
PairPos2: "'kern' Horizontal Kerning in Arabic lookup 0 subtable" afii57429 dx=0 dy=0 dh=0 dv=0 dx=0 dy=0 dh=-70 dv=0
PairPos2: "'kern' Horizontal Kerning in Arabic lookup 0 subtable" afii62787 dx=0 dy=0 dh=0 dv=0 dx=0 dy=0 dh=-50 dv=0
PairPos2: "'kern' Horizontal Kerning in Arabic lookup 0 subtable" afii57428 dx=0 dy=0 dh=0 dv=0 dx=0 dy=0 dh=-70 dv=0
PairPos2: "'kern' Horizontal Kerning in Arabic lookup 0 subtable" afii62784 dx=0 dy=0 dh=0 dv=0 dx=0 dy=0 dh=-50 dv=0
PairPos2: "'kern' Horizontal Kerning in Arabic lookup 0 subtable" afii57427 dx=0 dy=0 dh=0 dv=0 dx=0 dy=0 dh=-70 dv=0
PairPos2: "'kern' Horizontal Kerning in Arabic lookup 0 subtable" afii57424 dx=0 dy=0 dh=0 dv=0 dx=0 dy=0 dh=-50 dv=0
PairPos2: "'kern' Horizontal Kerning in Arabic lookup 0 subtable" afii57423 dx=0 dy=0 dh=0 dv=0 dx=0 dy=0 dh=-50 dv=0
PairPos2: "'kern' Horizontal Kerning in Arabic lookup 0 subtable" afii62777 dx=0 dy=0 dh=0 dv=0 dx=0 dy=0 dh=-50 dv=0
PairPos2: "'kern' Horizontal Kerning in Arabic lookup 0 subtable" afii62774 dx=0 dy=0 dh=0 dv=0 dx=0 dy=0 dh=-50 dv=0
PairPos2: "'kern' Horizontal Kerning in Arabic lookup 0 subtable" afii62771 dx=0 dy=0 dh=0 dv=0 dx=0 dy=0 dh=-50 dv=0
PairPos2: "'kern' Horizontal Kerning in Arabic lookup 0 subtable" afii62768 dx=0 dy=0 dh=0 dv=0 dx=0 dy=0 dh=-50 dv=0
PairPos2: "'kern' Horizontal Kerning in Arabic lookup 0 subtable" afii57419 dx=0 dy=0 dh=0 dv=0 dx=0 dy=0 dh=-50 dv=0
PairPos2: "'kern' Horizontal Kerning in Arabic lookup 0 subtable" afii62765 dx=0 dy=0 dh=0 dv=0 dx=0 dy=0 dh=-50 dv=0
PairPos2: "'kern' Horizontal Kerning in Arabic lookup 0 subtable" afii57418 dx=0 dy=0 dh=0 dv=0 dx=0 dy=0 dh=-50 dv=0
PairPos2: "'kern' Horizontal Kerning in Arabic lookup 0 subtable" afii57417 dx=0 dy=0 dh=0 dv=0 dx=0 dy=0 dh=-50 dv=0
PairPos2: "'kern' Horizontal Kerning in Arabic lookup 0 subtable" afii57416 dx=0 dy=0 dh=0 dv=0 dx=0 dy=0 dh=-50 dv=0
PairPos2: "'kern' Horizontal Kerning in Arabic lookup 0 subtable" afii57415.001 dx=0 dy=0 dh=0 dv=0 dx=0 dy=0 dh=-50 dv=0
PairPos2: "'kern' Horizontal Kerning in Arabic lookup 0 subtable" afii62757 dx=0 dy=0 dh=0 dv=0 dx=0 dy=0 dh=-50 dv=0
PairPos2: "'kern' Horizontal Kerning in Arabic lookup 0 subtable" afii57413 dx=0 dy=0 dh=0 dv=0 dx=0 dy=0 dh=100 dv=0
PairPos2: "'kern' Horizontal Kerning in Arabic lookup 0 subtable" afii57411 dx=0 dy=0 dh=0 dv=0 dx=0 dy=0 dh=-50 dv=0
PairPos2: "'kern' Horizontal Kerning in Arabic lookup 0 subtable" afii52399 dx=0 dy=0 dh=0 dv=0 dx=0 dy=0 dh=-80 dv=0
PairPos2: "'kern' Horizontal Kerning in Arabic lookup 0 subtable" afii62965 dx=0 dy=0 dh=0 dv=0 dx=0 dy=0 dh=-350 dv=0
PairPos2: "'kern' Horizontal Kerning in Arabic lookup 0 subtable" afii57509 dx=0 dy=0 dh=0 dv=0 dx=0 dy=0 dh=-350 dv=0
PairPos2: "'kern' Horizontal Kerning in Arabic lookup 0 subtable" afii52305 dx=0 dy=0 dh=0 dv=0 dx=0 dy=0 dh=-350 dv=0
PairPos2: "'kern' Horizontal Kerning in Arabic lookup 0 subtable" afii57567 dx=0 dy=0 dh=0 dv=0 dx=0 dy=0 dh=-350 dv=0
PairPos2: "'kern' Horizontal Kerning in Arabic lookup 0 subtable" afii62959 dx=0 dy=0 dh=0 dv=0 dx=0 dy=0 dh=-50 dv=0
PairPos2: "'kern' Horizontal Kerning in Arabic lookup 0 subtable" afii57505 dx=0 dy=0 dh=0 dv=0 dx=0 dy=0 dh=-50 dv=0
PairPos2: "'kern' Horizontal Kerning in Arabic lookup 0 subtable" afii57506 dx=0 dy=0 dh=0 dv=0 dx=0 dy=0 dh=-50 dv=0
PairPos2: "'kern' Horizontal Kerning in Arabic lookup 0 subtable" afii57372 dx=0 dy=0 dh=0 dv=0 dx=0 dy=0 dh=-70 dv=0
PairPos2: "'kern' Horizontal Kerning in Arabic lookup 0 subtable" afii57534 dx=0 dy=0 dh=0 dv=0 dx=0 dy=0 dh=-50 dv=0
EndChar

StartChar: afii57427
Encoding: 1587 1587 285
Width: 2463
GlyphClass: 2
Flags: W
AnchorPoint: "Anchor-3" 1140 -1035 basechar 0
AnchorPoint: "Anchor-2" 1305 1035 basechar 0
LayerCount: 2
Fore
SplineSet
2141 1 m 0,0,1
 1973 1 1973 1 1852 168 c 1,2,3
 1796 86 1796 86 1768 61 c 0,4,5
 1705 5 1705 5 1612 5 c 0,6,7
 1527 5 1527 5 1470 49 c 1,8,9
 1470 -141 1470 -141 1414 -270 c 0,10,11
 1258 -631 1258 -631 799 -631 c 0,12,13
 469 -631 469 -631 301 -415 c 0,14,15
 167 -243 167 -243 167 5 c 0,16,17
 167 44 167 44 187 137 c 0,18,19
 210 246 210 246 239 310 c 1,20,-1
 445 237 l 1,21,22
 393 110 393 110 393 1 c 0,23,24
 393 -193 393 -193 534 -284 c 0,25,26
 641 -353 641 -353 806 -353 c 0,27,28
 1230 -353 1230 -353 1230 36 c 0,29,30
 1230 235 1230 235 1036 553 c 1,31,-1
 1237 682 l 1,32,33
 1276 608 1276 608 1359 462 c 1,34,35
 1467 283 1467 283 1567 283 c 0,36,37
 1685 283 1685 283 1685 439 c 2,38,-1
 1685 689 l 1,39,-1
 1904 689 l 1,40,41
 1904 499 1904 499 1924 428 c 0,42,43
 1965 283 1965 283 2098 283 c 0,44,45
 2213 283 2213 283 2213 394 c 0,46,47
 2213 439 2213 439 2102 637 c 1,48,-1
 2304 761 l 1,49,50
 2333 710 2333 710 2401 574 c 1,51,52
 2460 446 2460 446 2460 366 c 0,53,54
 2460 214 2460 214 2378 112 c 0,55,56
 2290 1 2290 1 2141 1 c 0,0,1
EndSplineSet
Substitution2: "'fina' Terminal Forms in Arabic lookup 3 subtable" afii62786
Substitution2: "'medi' Medial Forms in Arabic lookup 2 subtable" afii62785
Substitution2: "'init' Initial Forms in Arabic lookup 0 subtable" afii62784
EndChar

StartChar: afii62786
Encoding: 65202 65202 286
Width: 2644
GlyphClass: 2
Flags: W
AnchorPoint: "Anchor-3" 1125 -1035 basechar 0
AnchorPoint: "Anchor-2" 1605 1035 basechar 0
LayerCount: 2
Fore
SplineSet
1685 684 m 1,0,-1
 1924 684 l 1,1,2
 1924 264 1924 264 2091 264 c 0,3,4
 2193 264 2193 264 2193 417 c 2,5,-1
 2193 688 l 1,6,-1
 2428 688 l 1,7,8
 2428 423 2428 423 2477 336 c 0,9,10
 2515 268 2515 268 2619 268 c 2,11,-1
 2644 268 l 1,12,-1
 2644 1 l 1,13,-1
 2616 1 l 2,14,15
 2517 1 2517 1 2460 34 c 0,16,17
 2407 66 2407 66 2352 152 c 1,18,19
 2255 -7 2255 -7 2091 -7 c 0,20,21
 1958 -7 1958 -7 1845 139 c 1,22,23
 1772 0 1772 0 1629 0 c 0,24,25
 1532 0 1532 0 1470 48 c 1,26,27
 1470 -142 1470 -142 1414 -271 c 0,28,29
 1342 -438 1342 -438 1219 -522 c 0,30,31
 1063 -629 1063 -629 792 -629 c 0,32,33
 462 -629 462 -629 297 -414 c 0,34,35
 167 -245 167 -245 167 4 c 0,36,37
 167 43 167 43 187 136 c 0,38,39
 210 245 210 245 239 309 c 1,40,-1
 445 236 l 1,41,42
 393 109 393 109 393 0 c 0,43,44
 393 -195 393 -195 533 -287 c 0,45,46
 641 -358 641 -358 803 -358 c 0,47,48
 999 -358 999 -358 1111 -260 c 0,49,50
 1230 -157 1230 -157 1230 35 c 0,51,52
 1230 234 1230 234 1036 552 c 1,53,-1
 1237 681 l 1,54,55
 1276 607 1276 607 1359 461 c 1,56,57
 1467 282 1467 282 1567 282 c 0,58,59
 1685 282 1685 282 1685 438 c 2,60,-1
 1685 684 l 1,0,-1
EndSplineSet
EndChar

StartChar: afii62784
Encoding: 65203 65203 287
Width: 1431
GlyphClass: 2
Flags: W
AnchorPoint: "Anchor-3" 570 -615 basechar 0
AnchorPoint: "Anchor-2" 660 1035 basechar 0
LayerCount: 2
Fore
SplineSet
890 685 m 1,0,1
 890 279 890 279 1077 279 c 0,2,3
 1188 279 1188 279 1188 374 c 0,4,5
 1188 466 1188 466 1084 648 c 1,6,-1
 1279 765 l 1,7,8
 1431 518 1431 518 1431 370 c 0,9,10
 1431 211 1431 211 1354 116 c 0,11,12
 1270 12 1270 12 1116 12 c 0,13,14
 924 12 924 12 823 164 c 1,15,16
 738 1 738 1 563 1 c 0,17,18
 488 1 488 1 417 45.5 c 128,-1,19
 346 90 346 90 309 157 c 1,20,21
 268 84 268 84 191.5 42.5 c 128,-1,22
 115 1 115 1 29 1 c 2,23,-1
 -70 1 l 1,24,-1
 -70 268 l 1,25,-1
 9 268 l 2,26,27
 78 268 78 268 107 290 c 0,28,29
 150 323 150 323 150 422 c 2,30,-1
 150 689 l 1,31,-1
 386 689 l 1,32,33
 386 480 386 480 416 391 c 0,34,35
 454 279 454 279 556 279 c 0,36,37
 612 279 612 279 644 334 c 0,38,39
 671 380 671 380 671 439 c 2,40,-1
 671 685 l 1,41,-1
 890 685 l 1,0,1
EndSplineSet
EndChar

StartChar: afii62785
Encoding: 65204 65204 288
Width: 1639
GlyphClass: 2
Flags: W
AnchorPoint: "Anchor-3" 720 -630 basechar 0
AnchorPoint: "Anchor-2" 765 1050 basechar 0
LayerCount: 2
Fore
SplineSet
309 157 m 1,0,1
 224 1 224 1 29 1 c 2,2,-1
 -70 1 l 1,3,-1
 -70 268 l 1,4,-1
 11 268 l 2,5,6
 80 268 80 268 108 290 c 0,7,8
 150 323 150 323 150 422 c 2,9,-1
 150 689 l 1,10,-1
 386 689 l 1,11,12
 386 272 386 272 563 272 c 0,13,14
 671 272 671 272 671 439 c 2,15,-1
 671 689 l 1,16,-1
 914 689 l 1,17,18
 914 512 914 512 929 436 c 0,19,20
 963 265 963 265 1073 265 c 0,21,22
 1175 265 1175 265 1175 418 c 2,23,-1
 1175 689 l 1,24,-1
 1411 689 l 1,25,26
 1411 425 1411 425 1465 336 c 0,27,28
 1506 268 1506 268 1613 268 c 2,29,-1
 1639 268 l 1,30,-1
 1639 1 l 1,31,-1
 1611 1 l 2,32,33
 1447 1 1447 1 1344 153 c 1,34,35
 1258 1 1258 1 1108 1 c 0,36,37
 940 1 940 1 827 140 c 1,38,39
 795 74 795 74 715 35 c 0,40,41
 644 1 644 1 563 1 c 0,42,43
 484 1 484 1 413 43 c 0,44,45
 339 87 339 87 309 157 c 1,0,1
EndSplineSet
EndChar

StartChar: afii57429
Encoding: 1589 1589 293
Width: 2464
GlyphClass: 2
Flags: W
AnchorPoint: "Anchor-3" 1050 -975 basechar 0
AnchorPoint: "Anchor-2" 1335 1020 basechar 0
LayerCount: 2
Fore
SplineSet
2026 268 m 2,0,1
 2234 268 2234 268 2234 442 c 0,2,3
 2234 504 2234 504 2189 542.5 c 128,-1,4
 2144 581 2144 581 2081 581 c 0,5,6
 1990 581 1990 581 1886 491 c 0,7,8
 1813 427 1813 427 1685 268 c 1,9,-1
 2026 268 l 2,0,1
2050 1 m 2,10,-1
 1616 1 l 2,11,12
 1509 1 1509 1 1481 46 c 1,13,14
 1481 -320 1481 -320 1197 -505 c 0,15,16
 1018 -621 1018 -621 792 -621 c 0,17,18
 459 -621 459 -621 295 -398 c 0,19,20
 167 -224 167 -224 167 29 c 0,21,22
 167 68 167 68 187 162 c 0,23,24
 210 272 210 272 239 335 c 1,25,-1
 445 262 l 1,26,27
 393 135 393 135 393 25 c 0,28,29
 393 -169 393 -169 534 -260 c 0,30,31
 641 -329 641 -329 806 -329 c 0,32,33
 1005 -329 1005 -329 1116 -233 c 0,34,35
 1233 -131 1233 -131 1233 64 c 0,36,37
 1233 171 1233 171 1171 330 c 0,38,39
 1119 463 1119 463 1046 578 c 1,40,-1
 1261 709 l 1,41,42
 1417 362 1417 362 1490 335 c 1,43,44
 1807 828 1807 828 2116 828 c 0,45,46
 2255 828 2255 828 2359 709 c 0,47,48
 2460 594 2460 594 2460 453 c 0,49,50
 2460 225 2460 225 2327 103 c 0,51,52
 2215 1 2215 1 2050 1 c 2,10,-1
EndSplineSet
Substitution2: "'fina' Terminal Forms in Arabic lookup 3 subtable" afii62792
Substitution2: "'medi' Medial Forms in Arabic lookup 2 subtable" afii62791
Substitution2: "'init' Initial Forms in Arabic lookup 0 subtable" afii62790
EndChar

StartChar: afii62792
Encoding: 65210 65210 294
Width: 2641
GlyphClass: 2
Flags: W
AnchorPoint: "Anchor-3" 1305 -975 basechar 0
AnchorPoint: "Anchor-2" 1485 1080 basechar 0
LayerCount: 2
Fore
SplineSet
2026 268 m 2,0,1
 2234 268 2234 268 2234 442 c 0,2,3
 2234 504 2234 504 2189 542.5 c 128,-1,4
 2144 581 2144 581 2081 581 c 0,5,6
 1990 581 1990 581 1886 491 c 0,7,8
 1813 427 1813 427 1685 268 c 1,9,-1
 2026 268 l 2,0,1
1481 46 m 1,10,11
 1481 -320 1481 -320 1197 -505 c 0,12,13
 1018 -621 1018 -621 792 -621 c 0,14,15
 459 -621 459 -621 295 -398 c 0,16,17
 167 -224 167 -224 167 29 c 0,18,19
 167 68 167 68 187 162 c 0,20,21
 210 272 210 272 239 335 c 1,22,-1
 445 262 l 1,23,24
 393 135 393 135 393 25 c 0,25,26
 393 -169 393 -169 534 -260 c 0,27,28
 641 -329 641 -329 806 -329 c 0,29,30
 1005 -329 1005 -329 1116 -233 c 0,31,32
 1233 -131 1233 -131 1233 64 c 0,33,34
 1233 171 1233 171 1171 330 c 0,35,36
 1119 463 1119 463 1046 578 c 1,37,-1
 1261 709 l 1,38,39
 1417 362 1417 362 1490 335 c 1,40,41
 1807 828 1807 828 2116 828 c 0,42,43
 2251 828 2251 828 2364 712 c 0,44,45
 2471 603 2471 603 2471 487 c 0,46,47
 2471 352 2471 352 2449 303 c 1,48,49
 2496 268 2496 268 2616 268 c 2,50,-1
 2641 268 l 1,51,-1
 2641 1 l 1,52,-1
 2611 1 l 2,53,54
 2540 1 2540 1 2466 34 c 0,55,56
 2385 70 2385 70 2352 126 c 1,57,58
 2268 1 2268 1 2050 1 c 2,59,-1
 1616 1 l 2,60,61
 1509 1 1509 1 1481 46 c 1,10,11
EndSplineSet
EndChar

StartChar: afii62790
Encoding: 65211 65211 295
Width: 1491
GlyphClass: 2
Flags: W
AnchorPoint: "Anchor-3" 630 -645 basechar 0
AnchorPoint: "Anchor-2" 585 1095 basechar 0
LayerCount: 2
Fore
SplineSet
485 309 m 1,0,1
 836 833 836 833 1143 833 c 0,2,3
 1284 833 1284 833 1388 714 c 0,4,5
 1489 599 1489 599 1489 456 c 0,6,7
 1489 226 1489 226 1355 104 c 0,8,9
 1242 1 1242 1 1076 1 c 2,10,-1
 636 1 l 2,11,12
 411 1 411 1 332 158 c 1,13,14
 293 80 293 80 245 48 c 0,15,16
 174 1 174 1 30 1 c 2,17,-1
 -70 1 l 1,18,-1
 -70 268 l 1,19,-1
 14 268 l 2,20,21
 147 268 147 268 147 385 c 2,22,-1
 147 665 l 1,23,-1
 388 665 l 1,24,-1
 388 462 l 2,25,26
 388 421 388 421 417.5 374 c 128,-1,27
 447 327 447 327 485 309 c 1,0,1
1052 270 m 2,28,29
 1261 270 1261 270 1261 445 c 0,30,31
 1261 507 1261 507 1213 547 c 0,32,33
 1168 584 1168 584 1104 584 c 0,34,35
 1014 584 1014 584 911 494 c 0,36,37
 836 429 836 429 709 270 c 1,38,-1
 1052 270 l 2,28,29
EndSplineSet
EndChar

StartChar: afii62791
Encoding: 65212 65212 296
Width: 1640
GlyphClass: 2
Flags: W
AnchorPoint: "Anchor-3" 540 -615 basechar 0
AnchorPoint: "Anchor-2" 645 1110 basechar 0
LayerCount: 2
Fore
SplineSet
1046 268 m 2,0,1
 1255 268 1255 268 1255 442 c 0,2,3
 1255 504 1255 504 1207 544 c 0,4,5
 1162 581 1162 581 1098 581 c 0,6,7
 1008 581 1008 581 906 491 c 0,8,9
 832 426 832 426 706 268 c 1,10,-1
 1046 268 l 2,0,1
1459 303 m 1,11,12
 1512 268 1512 268 1613 268 c 2,13,-1
 1640 268 l 1,14,-1
 1640 1 l 1,15,-1
 1611 1 l 2,16,17
 1447 1 1447 1 1355 116 c 1,18,19
 1251 1 1251 1 1070 1 c 2,20,-1
 632 1 l 2,21,22
 409 1 409 1 330 157 c 1,23,24
 276 74 276 74 256 58 c 0,25,26
 184 1 184 1 31 1 c 2,27,-1
 -70 1 l 1,28,-1
 -70 268 l 1,29,-1
 19 268 l 2,30,31
 146 268 146 268 146 383 c 2,32,-1
 146 661 l 1,33,-1
 386 661 l 1,34,-1
 386 459 l 2,35,36
 386 353 386 353 476 310 c 1,37,38
 823 828 823 828 1136 828 c 0,39,40
 1281 828 1281 828 1383 712 c 0,41,42
 1481 600 1481 600 1481 453 c 0,43,44
 1481 397 1481 397 1459 303 c 1,11,12
EndSplineSet
EndChar

StartChar: afii57431
Encoding: 1591 1591 301
Width: 1609
GlyphClass: 2
Flags: W
AnchorPoint: "Anchor-3" 720 -570 basechar 0
AnchorPoint: "Anchor-2" 1185 1260 basechar 0
LayerCount: 2
Fore
SplineSet
514 394 m 2,0,-1
 514 1234 l 1,1,-1
 751 1234 l 1,2,-1
 751 498 l 1,3,4
 854 633 854 633 972 720 c 0,5,6
 1124 832 1124 832 1261 831 c 0,7,8
 1407 830 1407 830 1510 705 c 0,9,10
 1609 587 1609 587 1609 439 c 0,11,12
 1609 212 1609 212 1449 90 c 0,13,14
 1332 1 1332 1 1212 1 c 2,15,-1
 514 1 l 2,16,17
 350 1 350 1 167 129 c 1,18,-1
 167 268 l 1,19,-1
 438 268 l 2,20,21
 514 268 514 268 514 394 c 2,0,-1
1390 442 m 0,22,23
 1390 504 1390 504 1341 542 c 0,24,25
 1296 578 1296 578 1233 578 c 0,26,27
 1079 578 1079 578 830 268 c 1,28,-1
 1203 268 l 2,29,30
 1286 268 1286 268 1338 314.5 c 128,-1,31
 1390 361 1390 361 1390 442 c 0,22,23
EndSplineSet
Substitution2: "'fina' Terminal Forms in Arabic lookup 3 subtable" afii62798
Substitution2: "'medi' Medial Forms in Arabic lookup 2 subtable" afii62797
Substitution2: "'init' Initial Forms in Arabic lookup 0 subtable" afii62796
EndChar

StartChar: afii62798
Encoding: 65218 65218 302
Width: 1789
GlyphClass: 2
Flags: W
AnchorPoint: "Anchor-3" 810 -525 basechar 0
AnchorPoint: "Anchor-2" 1185 1215 basechar 0
LayerCount: 2
Fore
SplineSet
1397 442 m 0,0,1
 1397 502 1397 502 1351.5 540 c 128,-1,2
 1306 578 1306 578 1244 578 c 0,3,4
 1085 578 1085 578 838 268 c 1,5,-1
 1209 268 l 2,6,7
 1292 268 1292 268 1344.5 314 c 128,-1,8
 1397 360 1397 360 1397 442 c 0,0,1
167 123 m 1,9,-1
 167 275 l 1,10,-1
 410 275 l 2,11,12
 456 275 456 275 488.5 311 c 128,-1,13
 521 347 521 347 521 394 c 2,14,-1
 521 1234 l 1,15,-1
 758 1234 l 1,16,-1
 758 498 l 1,17,18
 860 632 860 632 979 720 c 0,19,20
 1131 832 1131 832 1268 831 c 0,21,22
 1415 830 1415 830 1522 715 c 128,-1,23
 1629 600 1629 600 1629 452 c 0,24,25
 1629 384 1629 384 1612 303 c 1,26,27
 1653 268 1653 268 1764 268 c 2,28,-1
 1789 268 l 1,29,-1
 1789 1 l 1,30,-1
 1760 1 l 2,31,32
 1664 1 1664 1 1589 44 c 0,33,34
 1533 76 1533 76 1508 116 c 1,35,36
 1399 1 1399 1 1220 1 c 2,37,-1
 525 1 l 2,38,39
 457 1 457 1 339 44 c 0,40,41
 239 81 239 81 167 123 c 1,9,-1
EndSplineSet
EndChar

StartChar: afii62796
Encoding: 65219 65219 303
Width: 1270
GlyphClass: 2
Flags: W
AnchorPoint: "Anchor-3" 435 -690 basechar 0
AnchorPoint: "Anchor-2" 795 1200 basechar 0
LayerCount: 2
Fore
SplineSet
1049 442 m 0,0,1
 1049 502 1049 502 1002 541 c 0,2,3
 959 578 959 578 897 578 c 0,4,5
 738 578 738 578 490 268 c 1,6,-1
 862 268 l 2,7,8
 946 268 946 268 997.5 314 c 128,-1,9
 1049 360 1049 360 1049 442 c 0,0,1
872 1 m 2,10,-1
 -70 1 l 1,11,-1
 -70 268 l 1,12,-1
 12 268 l 2,13,14
 174 268 174 268 174 394 c 2,15,-1
 174 1234 l 1,16,-1
 410 1234 l 1,17,-1
 410 498 l 1,18,19
 513 633 513 633 631 720 c 0,20,21
 783 832 783 832 921 831 c 0,22,23
 1066 830 1066 830 1170 705 c 0,24,25
 1268 587 1268 587 1268 439 c 0,26,27
 1268 212 1268 212 1108 90 c 0,28,29
 992 1 992 1 872 1 c 2,10,-1
EndSplineSet
EndChar

StartChar: afii62797
Encoding: 65220 65220 304
Width: 1442
GlyphClass: 2
Flags: W
AnchorPoint: "Anchor-3" 450 -585 basechar 0
AnchorPoint: "Anchor-2" 825 1200 basechar 0
LayerCount: 2
Fore
SplineSet
1442 1 m 1,0,-1
 1413 1 l 2,1,2
 1232 1 1232 1 1160 116 c 1,3,4
 1052 1 1052 1 872 1 c 2,5,-1
 -70 1 l 1,6,-1
 -70 268 l 1,7,-1
 12 268 l 2,8,9
 93 268 93 268 129 291 c 0,10,11
 174 319 174 319 174 394 c 2,12,-1
 174 1234 l 1,13,-1
 410 1234 l 1,14,-1
 410 498 l 1,15,16
 513 633 513 633 631 720 c 0,17,18
 783 832 783 832 921 831 c 0,19,20
 1066 830 1066 830 1174 714.5 c 128,-1,21
 1282 599 1282 599 1282 453 c 0,22,23
 1282 384 1282 384 1264 303 c 1,24,25
 1305 268 1305 268 1427 268 c 2,26,-1
 1442 268 l 1,27,-1
 1442 1 l 1,0,-1
1049 442 m 0,28,29
 1049 502 1049 502 1002 541 c 0,30,31
 959 578 959 578 897 578 c 0,32,33
 738 578 738 578 490 268 c 1,34,-1
 862 268 l 2,35,36
 946 268 946 268 997.5 314 c 128,-1,37
 1049 360 1049 360 1049 442 c 0,28,29
EndSplineSet
EndChar

StartChar: afii57433
Encoding: 1593 1593 309
Width: 1175
GlyphClass: 2
Flags: W
AnchorPoint: "Anchor-3" 600 -1140 basechar 0
AnchorPoint: "Anchor-2" 675 1125 basechar 0
LayerCount: 2
Fore
SplineSet
1292 -601 m 1,0,1
 1215 -654 1215 -654 1090 -694 c 0,2,3
 922 -747 922 -747 754 -747 c 0,4,5
 513 -747 513 -747 348 -618 c 0,6,7
 167 -477 167 -477 167 -243 c 0,8,9
 167 28 167 28 456 250 c 1,10,11
 291 413 291 413 291 580 c 0,12,13
 291 649 291 649 318.5 709.5 c 128,-1,14
 346 770 346 770 394 817.5 c 128,-1,15
 442 865 442 865 508.5 897 c 128,-1,16
 575 929 575 929 653 941 c 0,17,18
 680 945 680 945 710 947 c 128,-1,19
 740 949 740 949 772 949 c 0,20,21
 827 949 827 949 890 943 c 1,22,-1
 890 722 l 1,23,24
 842 728 842 728 800 728 c 0,25,26
 723 728 723 728 671 708 c 0,27,28
 517 651 517 651 517 542 c 0,29,30
 517 512 517 512 531 487 c 128,-1,31
 545 462 545 462 568.5 444 c 128,-1,32
 592 426 592 426 623.5 416 c 128,-1,33
 655 406 655 406 691 406 c 0,34,35
 752 406 752 406 1077 549 c 1,36,-1
 1171 354 l 1,37,-1
 907 244 l 2,38,39
 800 199 800 199 716.5 151.5 c 128,-1,40
 633 104 633 104 570 55 c 0,41,42
 403 -77 403 -77 403 -219 c 0,43,44
 403 -283 403 -283 430 -333 c 128,-1,45
 457 -383 457 -383 508 -417 c 128,-1,46
 559 -451 559 -451 632.5 -468.5 c 128,-1,47
 706 -486 706 -486 799 -486 c 0,48,49
 900 -486 900 -486 999 -458 c 0,50,51
 1006 -456 1006 -456 1053 -440 c 128,-1,52
 1100 -424 1100 -424 1188 -393 c 1,53,-1
 1292 -601 l 1,0,1
EndSplineSet
Substitution2: "'fina' Terminal Forms in Arabic lookup 3 subtable" afii62804
Substitution2: "'medi' Medial Forms in Arabic lookup 2 subtable" afii62803
Substitution2: "'init' Initial Forms in Arabic lookup 0 subtable" afii62802
EndChar

StartChar: afii62804
Encoding: 65226 65226 310
Width: 1210
GlyphClass: 2
Flags: W
AnchorPoint: "Anchor-3" 630 -1215 basechar 0
AnchorPoint: "Anchor-2" 810 1020 basechar 0
LayerCount: 2
Fore
SplineSet
1227 -655 m 1,0,1
 983 -753 983 -753 761 -753 c 0,2,3
 521 -753 521 -753 353 -627 c 0,4,5
 167 -488 167 -488 167 -256 c 0,6,7
 167 -97 167 -97 281 43 c 0,8,9
 368 150 368 150 504 234 c 1,10,-1
 660 324 l 1,11,12
 619 363 619 363 538 443 c 0,13,14
 448 533 448 533 448 598 c 0,15,16
 448 665 448 665 538 723 c 0,17,18
 646 793 646 793 823 793 c 0,19,20
 928 793 928 793 1026 737 c 0,21,22
 1133 676 1133 676 1133 595 c 0,23,24
 1133 473 1133 473 994 324 c 1,25,26
 1034 292 1034 292 1058 283 c 0,27,28
 1097 268 1097 268 1178 268 c 2,29,-1
 1210 268 l 1,30,-1
 1210 1 l 1,31,-1
 1179 1 l 2,32,33
 1006 1 1006 1 830 171 c 1,34,35
 813 171 813 171 713 111 c 0,36,37
 403 -74 403 -74 403 -242 c 0,38,39
 403 -382 403 -382 542 -445 c 0,40,41
 644 -492 644 -492 803 -492 c 0,42,43
 956 -492 956 -492 1150 -433 c 1,44,-1
 1227 -655 l 1,0,1
EndSplineSet
EndChar

StartChar: afii62802
Encoding: 65227 65227 311
Width: 932
GlyphClass: 2
Flags: W
AnchorPoint: "Anchor-3" 375 -600 basechar 0
AnchorPoint: "Anchor-2" 450 1020 basechar 0
LayerCount: 2
Fore
SplineSet
931 1 m 1,0,-1
 -70 1 l 1,1,-1
 -70 268 l 1,2,-1
 118 268 l 1,3,4
 66 352 66 352 66 487 c 0,5,6
 66 620 66 620 168 716 c 0,7,8
 282 824 282 824 473 824 c 0,9,10
 686 824 686 824 897 689 c 1,11,12
 863 635 863 635 799 509 c 1,13,14
 745 544 745 544 647 568 c 0,15,16
 565 588 565 588 514 588 c 0,17,18
 443 588 443 588 388 548 c 0,19,20
 328 504 328 504 326 435 c 0,21,22
 324 369 324 369 382 322 c 0,23,24
 448 268 448 268 567 268 c 2,25,-1
 931 268 l 1,26,-1
 931 1 l 1,0,-1
EndSplineSet
EndChar

StartChar: afii62803
Encoding: 65228 65228 312
Width: 838
GlyphClass: 2
Flags: W
AnchorPoint: "Anchor-3" 330 -510 basechar 0
AnchorPoint: "Anchor-2" 405 1035 basechar 0
LayerCount: 2
Fore
SplineSet
838 1 m 1,0,-1
 785 1 l 2,1,2
 689 1 689 1 573 70 c 0,3,4
 499 114 499 114 462 151 c 1,5,6
 322 1 322 1 143 1 c 2,7,-1
 -70 1 l 1,8,-1
 -70 268 l 1,9,-1
 46 268 l 2,10,11
 196 268 196 268 271 300 c 1,12,13
 225 338 225 338 136.5 418.5 c 128,-1,14
 48 499 48 499 48 570 c 0,15,16
 48 660 48 660 210 716 c 0,17,18
 335 759 335 759 445 759 c 0,19,20
 554 759 554 759 634 717 c 0,21,22
 733 664 733 664 733 564 c 0,23,24
 733 507 733 507 714 468 c 0,25,26
 693 424 693 424 608 314 c 1,27,28
 659 268 659 268 761 268 c 2,29,-1
 838 268 l 1,30,-1
 838 1 l 1,0,-1
EndSplineSet
EndChar

StartChar: afii57443
Encoding: 1603 1603 325
Width: 1574
GlyphClass: 2
Flags: W
AnchorPoint: "Anchor-3" 735 -570 basechar 0
AnchorPoint: "Anchor-2" 750 1230 basechar 0
LayerCount: 2
Fore
SplineSet
167 383 m 2,0,-1
 167 512 l 1,1,-1
 403 512 l 1,2,-1
 403 401 l 2,3,4
 403 268 403 268 556 268 c 2,5,-1
 1232 268 l 2,6,7
 1359 268 1359 268 1359 336 c 2,8,-1
 1359 358 l 1,9,-1
 1359 1233 l 1,10,-1
 1574 1233 l 1,11,-1
 1574 371 l 1,12,-1
 1574 320 l 2,13,14
 1574 168 1574 168 1459 80 c 0,15,16
 1354 1 1354 1 1198 1 c 2,17,-1
 500 1 l 2,18,19
 167 1 167 1 167 383 c 2,0,-1
1137 734 m 1,20,-1
 623 609 l 1,21,-1
 592 720 l 1,22,-1
 772 765 l 1,23,24
 713 833 713 833 713 900 c 0,25,26
 713 975 713 975 781 1022 c 0,27,28
 841 1063 841 1063 920 1063 c 0,29,30
 978 1063 978 1063 1022 1039 c 1,31,-1
 1022 942 l 1,32,33
 978 953 978 953 934 953 c 0,34,35
 818 953 818 953 818 886 c 0,36,37
 818 851 818 851 848 828 c 0,38,39
 875 806 875 806 911 806 c 0,40,41
 941 806 941 806 1106 852 c 1,42,-1
 1137 734 l 1,20,-1
EndSplineSet
Substitution2: "'fina' Terminal Forms in Arabic lookup 3 subtable" afii62816
Substitution2: "'medi' Medial Forms in Arabic lookup 2 subtable" afii52306
Substitution2: "'init' Initial Forms in Arabic lookup 0 subtable" afii52305
EndChar

StartChar: afii62816
Encoding: 65242 65242 326
Width: 1824
GlyphClass: 2
Flags: W
AnchorPoint: "Anchor-3" 795 -465 basechar 0
AnchorPoint: "Anchor-2" 870 1245 basechar 0
LayerCount: 2
Fore
SplineSet
1824 1 m 1,0,-1
 1770 1 l 1,1,-1
 1771 2 l 1,2,3
 1595 10 1595 10 1530 149 c 1,4,5
 1434 1 1434 1 1201 1 c 2,6,-1
 500 1 l 2,7,8
 167 1 167 1 167 383 c 2,9,-1
 167 512 l 1,10,-1
 403 512 l 1,11,-1
 403 401 l 2,12,13
 403 268 403 268 556 268 c 2,14,-1
 1185 268 l 1,15,-1
 1201 268 l 2,16,17
 1222 269 1222 269 1239 271 c 0,18,19
 1258 275 1258 275 1276 282 c 0,20,21
 1282 284 1282 284 1290 285 c 0,22,23
 1297 288 1297 288 1302 292 c 0,24,25
 1341 320 1341 320 1341 400 c 2,26,-1
 1341 1233 l 1,27,-1
 1577 1233 l 1,28,-1
 1577 514 l 2,29,30
 1577 387 1577 387 1631 329 c 0,31,32
 1687 268 1687 268 1812 268 c 2,33,-1
 1824 268 l 1,34,-1
 1824 1 l 1,0,-1
1137 734 m 1,35,-1
 623 609 l 1,36,-1
 592 720 l 1,37,-1
 772 765 l 1,38,39
 713 833 713 833 713 900 c 0,40,41
 713 975 713 975 781 1022 c 0,42,43
 841 1063 841 1063 920 1063 c 0,44,45
 978 1063 978 1063 1022 1039 c 1,46,-1
 1022 942 l 1,47,48
 978 953 978 953 934 953 c 0,49,50
 818 953 818 953 818 886 c 0,51,52
 818 851 818 851 848 828 c 0,53,54
 875 806 875 806 911 806 c 0,55,56
 941 806 941 806 1106 852 c 1,57,-1
 1137 734 l 1,35,-1
EndSplineSet
EndChar

